<svg height="512pt" viewBox="-18 0 512 512" width="512pt" xmlns="http://www.w3.org/2000/svg"><path d="m238.3125 296.15625-167.300781-260.960938c-10.972657-17.117187-37.5-9.34375-37.5 10.988282v259.234375zm0 0" fill="#ffcd00"/><path d="m125.925781 120.847656c-2.929687 24.457032-11.1875 53.460938-33.019531 67.019532-22.285156 13.839843-42.722656 23.847656-59.394531 40.980468v76.570313l204.800781-9.261719zm0 0" fill="#ffb600"/><path d="m236.871094 296.15625 167.300781-260.960938c10.976563-17.117187 37.5-9.34375 37.5 10.988282v259.234375zm0 0" fill="#ffcd00"/><path d="m349.257812 120.847656c2.929688 24.457032 11.1875 53.460938 33.019532 67.019532 22.285156 13.839843 42.722656 23.847656 59.394531 40.980468v76.570313l-204.800781-9.261719zm0 0" fill="#ffb600"/><path d="m129.636719 291.511719h217.355469l-83.441407-272.839844c-7.613281-24.894531-42.859375-24.894531-50.472656 0zm0 0" fill="#ffde55"/><path d="m383.148438 512h-289.667969c-32.320313 0-58.523438-26.203125-58.523438-58.523438v-148.058593h406.714844v148.058593c0 32.320313-26.203125 58.523438-58.523437 58.523438zm0 0" fill="#ffde55"/><path d="m34.957031 305.417969v148.058593c0 32.320313 26.203125 58.523438 58.523438 58.523438h82.078125c-9.511719-13.167969-15.191406-27.941406-18.460938-42.242188-7.472656-32.707031 13.894532-65.125 46.9375-70.960937 88.996094-15.707031 100.234375-57.441406 100.234375-57.441406v-35.9375zm0 0" fill="#ffcd00"/><path d="m431.429688 341.355469h-386.230469c-24.960938 0-45.199219-20.238281-45.199219-45.199219 0-24.964844 20.234375-45.199219 45.199219-45.199219h386.230469c24.960937 0 45.199218 20.234375 45.199218 45.199219 0 24.960938-20.238281 45.199219-45.199218 45.199219zm0 0" fill="#ffeb99"/><path d="m281.664062 293.171875c0-37.871094-19.40625-68.570313-43.351562-68.570313-23.941406 0-43.351562 30.699219-43.351562 68.570313s19.410156 68.574219 43.351562 68.574219c23.945312 0 43.351562-30.703125 43.351562-68.574219zm0 0" fill="#ff929f"/><path d="m234.703125 293.171875c0-26.539063 9.550781-49.550781 23.496094-60.949219-5.957031-4.867187-12.722657-7.621094-19.886719-7.621094-23.941406 0-43.347656 30.699219-43.347656 68.570313s19.40625 68.574219 43.347656 68.574219c7.167969 0 13.929688-2.753906 19.886719-7.621094-13.945313-11.402344-23.496094-34.414062-23.496094-60.953125zm0 0" fill="#ff737d"/><path d="m126.871094 296.15625c0-29.675781-15.207032-53.730469-33.964844-53.730469s-33.964844 24.054688-33.964844 53.730469c0 29.671875 15.207032 53.726562 33.964844 53.726562s33.964844-24.054687 33.964844-53.726562zm0 0" fill="#9ad880"/><path d="m91.371094 296.15625c0-20.382812 7.175781-38.117188 17.75-47.222656-4.820313-4.148438-10.34375-6.507813-16.214844-6.507813-18.761719 0-33.96875 24.054688-33.96875 53.730469 0 29.671875 15.207031 53.726562 33.96875 53.726562 5.871094 0 11.394531-2.355468 16.214844-6.507812-10.574219-9.105469-17.75-26.835938-17.75-47.21875zm0 0" fill="#8dc971"/><path d="m417.6875 296.15625c0-29.675781-15.207031-53.730469-33.964844-53.730469-18.757812 0-33.96875 24.054688-33.96875 53.730469 0 29.671875 15.210938 53.726562 33.96875 53.726562 18.757813 0 33.964844-24.054687 33.964844-53.726562zm0 0" fill="#9ad880"/><path d="m382.1875 296.15625c0-20.382812 7.175781-38.117188 17.75-47.222656-4.820312-4.148438-10.34375-6.507813-16.214844-6.507813-18.757812 0-33.96875 24.054688-33.96875 53.730469 0 29.671875 15.210938 53.726562 33.96875 53.726562 5.871094 0 11.394532-2.355468 16.214844-6.507812-10.574219-9.105469-17.75-26.835938-17.75-47.21875zm0 0" fill="#8dc971"/><path d="m172.359375 441.171875c0-13.582031-13.824219-24.589844-30.878906-24.589844-17.054688 0-30.878907 11.007813-30.878907 24.589844 0 13.578125 13.824219 24.589844 30.878907 24.589844 17.054687 0 30.878906-11.011719 30.878906-24.589844zm0 0" fill="#ffa6bb"/><path d="m366.023438 441.171875c0-13.582031-13.824219-24.589844-30.875-24.589844-17.054688 0-30.878907 11.007813-30.878907 24.589844 0 13.578125 13.824219 24.589844 30.878907 24.589844 17.050781 0 30.875-11.011719 30.875-24.589844zm0 0" fill="#ffa6bb"/><g fill="#57565c"><path d="m238.3125 437.179688c-10 0-20-3.238282-28.34375-9.710938-3.371094-2.613281-3.984375-7.46875-1.367188-10.839844 2.613282-3.371094 7.46875-3.984375 10.839844-1.371094 11.109375 8.621094 26.632813 8.621094 37.746094 0 3.367188-2.613281 8.222656-2 10.839844 1.371094 2.613281 3.371094 2 8.226563-1.371094 10.839844-8.34375 6.472656-18.34375 9.710938-28.34375 9.710938zm0 0"/><path d="m160.5 422.355469c-1.730469-2.539063-4.253906-2.847657-5.277344-2.847657-1.023437 0-3.589844.28125-5.277344 2.847657-2.34375 3.566406-7.132812 4.558593-10.699218 2.21875-3.566406-2.34375-4.558594-7.132813-2.214844-10.699219 4.035156-6.148438 10.835938-9.820312 18.191406-9.820312 7.355469 0 14.15625 3.671874 18.195313 9.820312 2.339843 3.566406 1.347656 8.355469-2.21875 10.699219-1.308594.855469-7.089844 3.082031-10.699219-2.21875zm0 0"/><path d="m326.683594 422.355469c-1.734375-2.539063-4.253906-2.847657-5.277344-2.847657s-3.589844.28125-5.277344 2.847657c-2.34375 3.566406-7.136718 4.558593-10.699218 2.21875-3.566407-2.34375-4.558594-7.132813-2.21875-10.699219 4.039062-6.148438 10.839843-9.820312 18.195312-9.820312 7.351562 0 14.152344 3.671874 18.191406 9.820312 2.34375 3.566406 1.351563 8.355469-2.214844 10.699219-1.308593.855469-7.089843 3.082031-10.699218-2.21875zm0 0"/></g></svg>