<svg height="700pt" viewBox="0 0 700 700" width="700pt" xmlns="http://www.w3.org/2000/svg"><path d="M238.9 218.5C238.83 219.09 238.82 219.69 238.86 220.27C232.78 226.69 229.1 235.42 229.27 244.95C229.54 260.65 240.16 273.79 254.49 277.98C256.06 278.95 257.92 279.49 259.91 279.45C273.05 279.22 378.22 277.39 391.37 277.16C411.4 276.81 428.68 264.5 435.77 246.35C443.15 246.22 502.21 245.19 509.59 245.06C515.12 244.96 519.52 240.4 519.42 234.88C519.2 221.87 517.38 117.78 517.15 104.77C517.06 99.25 512.5 94.84 506.97 94.94C499.59 95.07 440.53 96.1 433.15 96.23C425.42 78.33 407.74 66.64 387.7 66.99C380.59 67.11 323.74 68.1 316.64 68.23C278.03 68.89 247.12 100.67 247.45 139.21C245.74 155.07 239.75 210.57 238.9 218.5ZM416.31 108.77C417.43 113.29 421.53 116.45 426.2 116.37C430.94 116.28 454.65 115.87 497.31 115.12L499.23 225.22C456.57 225.96 432.86 226.38 428.12 226.46C423.46 226.54 419.47 229.83 418.51 234.4C415.73 247.55 404.43 256.91 391.02 257.14C378.38 257.36 277.21 259.13 264.56 259.35C256.28 259.49 249.43 252.88 249.29 244.6C249.14 236.32 255.76 229.47 264.04 229.32C269.56 229.23 273.97 224.66 273.87 219.14C273.77 213.62 269.21 209.21 263.69 209.31C263.44 209.31 262.22 209.33 260.02 209.37C264.46 168.2 266.93 145.33 267.42 140.76C267.47 140.35 267.49 139.93 267.48 139.51C266.99 111.72 289.2 88.73 316.99 88.24C321.73 88.16 345.42 87.74 388.05 87C404.74 92.81 414.16 100.06 416.31 108.77Z" id="bHHnmsSvI"></path><path d="M431.92 396.92C430.87 396.92 422.44 396.92 421.38 396.92C415.56 396.92 410.84 392.2 410.84 386.38C410.84 380.56 415.56 375.84 421.38 375.84C422.44 375.84 430.87 375.84 431.92 375.84C437.74 375.83 442.46 380.56 442.46 386.38C442.46 392.2 437.74 396.92 431.92 396.92Z" id="ar8M3YTSl"></path><path d="M493.11 328.11C498.85 329.11 502.64 334.56 501.69 340.31C500.69 346.04 495.23 349.88 489.5 348.88C487.71 348.57 478.75 347.01 462.64 344.21C380.1 344.21 334.25 344.21 325.08 344.21C310.96 344.21 298.89 353.85 295.72 367.65C294.62 372.44 290.36 375.84 285.45 375.84C280.45 375.84 255.49 375.84 210.55 375.84L210.55 491.79C255.49 491.79 280.46 491.79 285.45 491.79C290.36 491.79 294.63 495.19 295.72 499.98C298.88 513.78 310.95 523.42 325.08 523.42C332.52 523.42 392.02 523.42 399.46 523.42C399.69 523.4 399.92 523.39 400.1 523.39C400.46 523.38 400.83 523.39 401.18 523.42C405.31 523.42 438.33 523.42 442.46 523.42C448.28 523.42 453 518.69 453 512.88C453 510.68 453.32 507.7 453.71 503.94C454.26 498.78 455.18 490.15 454.58 486.56C453.62 480.8 457.49 475.38 463.24 474.42C468.98 473.46 474.41 477.33 475.38 483.07C476.45 489.52 475.47 498.75 474.68 506.17C474.41 508.81 474.08 511.79 474.08 512.88C474.08 530.32 459.9 544.51 442.46 544.51C438.24 544.51 404.51 544.51 400.3 544.51C400.23 544.51 400.16 544.51 400.1 544.51C400.04 544.51 399.99 544.51 399.93 544.51C392.44 544.51 332.56 544.51 325.08 544.51C303.98 544.51 285.56 531.86 277.76 512.88C269.99 512.88 207.78 512.88 200 512.88C194.18 512.88 189.46 508.16 189.46 502.34C189.46 488.64 189.46 379 189.46 365.29C189.46 359.48 194.18 354.75 200 354.75C207.78 354.75 269.98 354.75 277.75 354.75C285.55 335.77 303.96 323.13 325.07 323.13C338.92 323.13 449.69 323.13 463.54 323.13C464.15 323.13 464.75 323.18 465.35 323.29C470.9 324.25 490.33 327.63 493.11 328.11Z" id="fGWQnVhV"></path><path d="M468.82 491.79C464.07 491.79 426.12 491.79 421.38 491.79C415.56 491.79 410.84 487.07 410.84 481.25C410.84 475.44 415.56 470.71 421.38 470.71C426.12 470.71 464.07 470.71 468.82 470.71C477.53 470.71 484.63 463.62 484.63 454.9C484.63 446.18 477.53 439.09 468.82 439.09C468.81 439.09 468.79 439.09 468.79 439.09C462.97 439.09 458.26 434.37 458.26 428.55C458.26 422.73 463 418.01 468.82 418.01C489.16 418 505.71 434.55 505.71 454.9C505.71 475.24 489.16 491.79 468.82 491.79Z" id="b6CoXDnDXh"></path><path d="M585.76 344.22C605.65 344.75 621.67 361.09 621.67 381.11C621.67 401.45 605.12 418 584.78 418C584.11 418 583.45 417.94 582.81 417.82C575.8 416.48 519.71 405.8 512.7 404.46C507.65 403.5 504.13 399.08 504.13 394.12C504.13 393.47 504.2 392.81 504.32 392.14C505.41 386.42 510.93 382.66 516.65 383.76C523.55 385.07 578.75 395.59 585.65 396.9C593.96 396.45 600.59 389.54 600.59 381.11C600.59 372.39 593.49 365.3 584.78 365.3C584.17 365.3 583.57 365.24 582.97 365.13C581.39 364.86 568.76 362.66 567.18 362.39C561.44 361.39 557.63 355.94 558.6 350.2C559.6 344.46 565.06 340.62 570.79 341.62C573.79 342.14 584.27 343.96 585.76 344.22Z" id="c1YMnAGVcv"></path><path d="M210.55 523.42C210.55 529.24 205.82 533.96 200.01 533.96C182.09 533.96 38.72 533.96 20.8 533.96C14.98 533.96 10.26 529.24 10.26 523.42C10.26 506.55 10.26 371.62 10.26 354.75C10.26 348.93 14.98 344.21 20.8 344.21C38.72 344.21 182.09 344.21 200.01 344.21C205.82 344.21 210.55 348.93 210.55 354.75C210.55 388.49 210.55 506.55 210.55 523.42ZM31.34 512.88L189.46 512.88L189.46 365.29L31.34 365.29L31.34 512.88Z" id="a1ubPHYBVl"></path><path d="M577.27 355.66C565.49 364.84 471.27 438.23 459.49 447.41C454.89 450.98 448.27 450.17 444.69 445.57C441.12 440.97 441.94 434.35 446.53 430.77C458.29 421.61 552.39 348.32 564.15 339.15C570.93 333.66 571.97 323.68 566.47 316.91C560.98 310.14 551 309.09 544.23 314.59C533.18 323.55 444.74 395.26 433.68 404.22C429.16 407.88 422.52 407.19 418.86 402.67C417.27 400.71 416.51 398.37 416.51 396.03C416.51 392.97 417.84 389.92 420.41 387.85C431.47 378.89 519.9 307.18 530.96 298.22C546.76 285.41 570.04 287.84 582.85 303.64C595.65 319.44 593.23 342.72 577.27 355.66Z" id="htDqKoLVY"></path><path d="M266.49 258.6C271.5 258.51 311.53 257.81 316.54 257.72C322.06 257.63 326.47 253.07 326.37 247.54C326.27 242.02 321.71 237.61 316.19 237.71C311.18 237.8 271.15 238.5 266.15 238.58C260.62 238.68 256.22 243.24 256.31 248.77C256.41 254.29 260.97 258.69 266.49 258.6Z" id="bpyMbSax4"></path><path d="M300.18 208.21C303.19 208.15 327.21 207.73 330.21 207.68C335.73 207.59 340.14 203.02 340.04 197.5C339.95 191.98 335.38 187.57 329.86 187.67C326.86 187.72 302.84 188.14 299.84 188.19C294.31 188.29 289.91 192.85 290 198.37C290.1 203.9 294.66 208.3 300.18 208.21Z" id="c2kgS95mZk"></path><path d="M299.49 168.17C302.49 168.12 326.51 167.7 329.51 167.65C335.04 167.55 339.44 162.99 339.34 157.47C339.25 151.94 334.69 147.54 329.16 147.63C326.16 147.69 302.14 148.11 299.14 148.16C293.61 148.25 289.21 152.82 289.3 158.34C289.4 163.86 293.96 168.27 299.49 168.17Z" id="b2jaXZmdDa"></path><path d="M499.58 245.23C499.68 250.76 504.24 255.16 509.77 255.07C526.78 254.77 662.9 252.39 679.91 252.1C685.43 252 689.84 247.44 689.74 241.91C689.46 225.9 687.23 97.79 686.95 81.78C686.85 76.26 682.29 71.85 676.77 71.95C659.75 72.24 523.64 74.62 506.62 74.92C501.1 75.01 496.69 79.57 496.79 85.1C497.35 117.13 499.3 229.22 499.58 245.23ZM669.55 232.26L519.43 234.88L516.98 94.76L667.11 92.14L669.55 232.26Z" id="b2Nj5NaiVf"></path></svg>