<?xml version="1.0" encoding="UTF-8" standalone="no"?>
<!DOCTYPE svg PUBLIC "-//W3C//DTD SVG 1.1//EN" "http://www.w3.org/Graphics/SVG/1.1/DTD/svg11.dtd">
<svg version="1.1" xmlns="http://www.w3.org/2000/svg" xmlns:xlink="http://www.w3.org/1999/xlink" preserveAspectRatio="xMidYMid meet" viewBox="2.823563110774103 55.64241429901154 695.2098249747758 491.8645518427463" width="691.21" height="487.86"><defs><path d="M236.14 208.36C236.06 208.96 236.04 209.56 236.07 210.15C229.76 216.6 225.86 225.42 225.86 235.13C225.86 251.13 236.44 264.7 250.97 269.23C252.55 270.24 254.44 270.83 256.46 270.83C269.86 270.83 377.03 270.83 390.43 270.83C410.85 270.83 428.67 258.59 436.21 240.23C443.73 240.23 503.92 240.23 511.44 240.23C517.07 240.23 521.64 235.66 521.64 230.03C521.64 216.77 521.64 110.7 521.64 97.44C521.64 91.81 517.07 87.24 511.44 87.24C503.92 87.24 443.73 87.24 436.21 87.24C428.66 68.88 410.85 56.64 390.43 56.64C383.19 56.64 325.25 56.64 318.01 56.64C278.67 56.64 246.62 88.46 246.26 127.73C244.24 143.85 237.15 200.3 236.14 208.36ZM418.84 99.72C419.9 104.35 424.02 107.63 428.78 107.63C433.61 107.63 457.76 107.63 501.24 107.63L501.24 219.83C457.76 219.83 433.61 219.83 428.78 219.83C424.02 219.83 419.9 223.11 418.84 227.75C415.78 241.1 404.1 250.43 390.43 250.43C377.55 250.43 274.45 250.43 261.56 250.43C253.12 250.43 246.26 243.56 246.26 235.13C246.26 226.69 253.12 219.83 261.56 219.83C267.19 219.83 271.76 215.26 271.76 209.63C271.76 204 267.19 199.43 261.56 199.43C261.31 199.43 260.06 199.43 257.82 199.43C263.08 157.57 266 134.31 266.58 129.66C266.64 129.24 266.66 128.82 266.66 128.39C266.66 100.07 289.7 77.04 318.02 77.04C322.84 77.04 346.98 77.04 390.43 77.04C407.33 83.25 416.79 90.81 418.84 99.72Z" id="a2dWf29R5v"></path><path d="M433.47 394.12C432.4 394.12 423.81 394.12 422.73 394.12C416.8 394.12 411.99 389.31 411.99 383.38C411.99 377.46 416.8 372.64 422.73 372.64C423.81 372.64 432.4 372.64 433.47 372.64C439.4 372.64 444.21 377.46 444.21 383.38C444.21 389.31 439.4 394.12 433.47 394.12Z" id="c7bQ9Y2K7"></path><path d="M495.82 324.02C501.67 325.03 505.53 330.59 504.56 336.44C503.54 342.28 497.98 346.19 492.14 345.18C490.31 344.86 481.19 343.28 464.77 340.42C380.67 340.42 333.95 340.42 324.6 340.42C310.22 340.42 297.92 350.25 294.69 364.31C293.57 369.19 289.23 372.64 284.22 372.64C279.14 372.64 253.7 372.64 207.91 372.64L207.91 490.8C253.7 490.8 279.14 490.8 284.23 490.8C289.23 490.8 293.58 494.25 294.69 499.14C297.92 513.2 310.21 523.02 324.61 523.02C332.19 523.02 392.82 523.02 400.4 523.02C400.63 523 400.86 522.99 401.05 522.99C401.42 522.98 401.79 522.99 402.15 523.02C406.35 523.02 440.01 523.02 444.21 523.02C450.14 523.02 454.95 518.2 454.95 512.28C454.95 510.04 455.27 507.01 455.68 503.17C456.23 497.91 457.18 489.12 456.56 485.46C455.58 479.59 459.53 474.07 465.38 473.09C471.23 472.11 476.77 476.06 477.75 481.91C478.84 488.48 477.85 497.88 477.04 505.45C476.76 508.13 476.43 511.18 476.43 512.28C476.43 530.05 461.98 544.51 444.21 544.51C439.91 544.51 405.55 544.51 401.25 544.51C401.18 544.51 401.11 544.51 401.04 544.51C400.99 544.51 400.93 544.51 400.87 544.51C393.25 544.51 332.23 544.51 324.61 544.51C303.11 544.51 284.34 531.62 276.39 512.28C268.47 512.28 205.09 512.28 197.16 512.28C191.23 512.28 186.42 507.47 186.42 501.54C186.42 487.58 186.42 375.87 186.42 361.9C186.42 355.97 191.23 351.16 197.16 351.16C205.09 351.16 268.46 351.16 276.39 351.16C284.33 331.82 303.09 318.94 324.6 318.94C338.71 318.94 451.58 318.94 465.69 318.94C466.31 318.94 466.93 318.99 467.53 319.1C473.19 320.08 492.99 323.52 495.82 324.02Z" id="coNQX1SiR"></path><path d="M471.07 490.8C466.23 490.8 427.56 490.8 422.73 490.8C416.8 490.8 411.99 485.98 411.99 480.06C411.99 474.13 416.8 469.32 422.73 469.32C427.56 469.32 466.23 469.32 471.07 469.32C479.95 469.32 487.18 462.09 487.18 453.2C487.18 444.32 479.95 437.09 471.07 437.09C471.06 437.09 471.04 437.09 471.04 437.09C465.11 437.09 460.31 432.28 460.31 426.35C460.31 420.42 465.14 415.61 471.07 415.61C491.79 415.61 508.66 432.47 508.66 453.2C508.66 473.93 491.79 490.8 471.07 490.8Z" id="brROMAces"></path><path d="M590.23 340.43C610.49 340.97 626.82 357.62 626.82 378.01C626.82 398.74 609.95 415.61 589.22 415.61C588.54 415.61 587.87 415.54 587.21 415.42C580.07 414.06 522.93 403.17 515.78 401.81C510.63 400.83 507.05 396.33 507.05 391.28C507.05 390.61 507.12 389.93 507.24 389.26C508.35 383.43 513.97 379.6 519.8 380.71C526.83 382.05 583.08 392.77 590.11 394.11C598.58 393.64 605.33 386.6 605.33 378.02C605.33 369.13 598.1 361.9 589.22 361.9C588.6 361.9 587.99 361.85 587.38 361.74C585.77 361.46 572.9 359.22 571.29 358.94C565.44 357.92 561.56 352.37 562.55 346.52C563.57 340.68 569.13 336.76 574.97 337.78C578.03 338.31 588.7 340.16 590.23 340.43Z" id="amCw2wMfI"></path><path d="M207.91 523.02C207.91 528.95 203.1 533.76 197.17 533.76C178.91 533.76 32.82 533.76 14.56 533.76C8.64 533.76 3.82 528.95 3.82 523.02C3.82 505.83 3.82 368.35 3.82 351.16C3.82 345.23 8.64 340.42 14.56 340.42C32.82 340.42 178.91 340.42 197.17 340.42C203.1 340.42 207.91 345.23 207.91 351.16C207.91 385.53 207.91 505.83 207.91 523.02ZM25.3 512.28L186.42 512.28L186.42 361.9L25.3 361.9L25.3 512.28Z" id="f9vWAAKwF"></path><path d="M581.57 352.09C569.57 361.44 473.56 436.22 461.56 445.57C456.88 449.21 450.13 448.38 446.48 443.69C442.85 439.01 443.68 432.26 448.36 428.62C460.34 419.28 556.22 344.6 568.2 335.27C575.11 329.66 576.17 319.5 570.57 312.6C564.97 305.7 554.8 304.64 547.91 310.23C536.64 319.37 446.53 392.43 435.27 401.56C430.66 405.3 423.9 404.59 420.16 399.98C418.55 397.99 417.76 395.6 417.76 393.22C417.76 390.1 419.12 387 421.74 384.88C433.01 375.75 523.12 302.69 534.38 293.55C550.48 280.5 574.2 282.98 587.26 299.08C600.3 315.18 597.83 338.9 581.57 352.09Z" id="b1Ydohz7jy"></path><path d="M263.54 249.7C268.64 249.7 309.44 249.7 314.54 249.7C320.17 249.7 324.74 245.13 324.74 239.5C324.74 233.87 320.17 229.3 314.54 229.3C309.44 229.3 268.64 229.3 263.54 229.3C257.91 229.3 253.34 233.87 253.34 239.5C253.34 245.13 257.91 249.7 263.54 249.7Z" id="e1C8DcCJ1E"></path><path d="M298.76 198.96C301.82 198.96 326.3 198.96 329.36 198.96C334.99 198.96 339.56 194.39 339.56 188.76C339.56 183.13 334.99 178.56 329.36 178.56C326.3 178.56 301.82 178.56 298.76 178.56C293.13 178.56 288.56 183.13 288.56 188.76C288.56 194.39 293.13 198.96 298.76 198.96Z" id="aUeF8SGR8"></path><path d="M298.76 158.16C301.82 158.16 326.3 158.16 329.36 158.16C334.99 158.16 339.56 153.59 339.56 147.96C339.56 142.33 334.99 137.76 329.36 137.76C326.3 137.76 301.82 137.76 298.76 137.76C293.13 137.76 288.56 142.33 288.56 147.96C288.56 153.59 293.13 158.16 298.76 158.16Z" id="d1dQKzKrcc"></path><path d="M501.24 240.23C501.24 245.86 505.81 250.42 511.44 250.42C528.78 250.42 667.5 250.42 684.83 250.42C690.46 250.42 695.03 245.86 695.03 240.23C695.03 223.91 695.03 93.36 695.03 77.04C695.03 71.41 690.46 66.84 684.83 66.84C667.5 66.84 528.78 66.84 511.44 66.84C505.81 66.83 501.24 71.41 501.24 77.04C501.24 109.67 501.24 223.91 501.24 240.23ZM674.64 230.03L521.64 230.03L521.64 87.23L674.64 87.23L674.64 230.03Z" id="dOFfW90pN"></path></defs><g><g><use xlink:href="#a2dWf29R5v" opacity="1" fill="#000000" fill-opacity="1"></use><g><use xlink:href="#a2dWf29R5v" opacity="1" fill-opacity="0" stroke="#000000" stroke-width="1" stroke-opacity="0"></use></g></g><g><use xlink:href="#c7bQ9Y2K7" opacity="1" fill="#000000" fill-opacity="1"></use><g><use xlink:href="#c7bQ9Y2K7" opacity="1" fill-opacity="0" stroke="#000000" stroke-width="1" stroke-opacity="0"></use></g></g><g><use xlink:href="#coNQX1SiR" opacity="1" fill="#000000" fill-opacity="1"></use><g><use xlink:href="#coNQX1SiR" opacity="1" fill-opacity="0" stroke="#000000" stroke-width="1" stroke-opacity="0"></use></g></g><g><use xlink:href="#brROMAces" opacity="1" fill="#000000" fill-opacity="1"></use><g><use xlink:href="#brROMAces" opacity="1" fill-opacity="0" stroke="#000000" stroke-width="1" stroke-opacity="0"></use></g></g><g><use xlink:href="#amCw2wMfI" opacity="1" fill="#000000" fill-opacity="1"></use><g><use xlink:href="#amCw2wMfI" opacity="1" fill-opacity="0" stroke="#000000" stroke-width="1" stroke-opacity="0"></use></g></g><g><use xlink:href="#f9vWAAKwF" opacity="1" fill="#000000" fill-opacity="1"></use><g><use xlink:href="#f9vWAAKwF" opacity="1" fill-opacity="0" stroke="#000000" stroke-width="1" stroke-opacity="0"></use></g></g><g><use xlink:href="#b1Ydohz7jy" opacity="1" fill="#000000" fill-opacity="1"></use><g><use xlink:href="#b1Ydohz7jy" opacity="1" fill-opacity="0" stroke="#000000" stroke-width="1" stroke-opacity="0"></use></g></g><g><use xlink:href="#e1C8DcCJ1E" opacity="1" fill="#000000" fill-opacity="1"></use><g><use xlink:href="#e1C8DcCJ1E" opacity="1" fill-opacity="0" stroke="#000000" stroke-width="1" stroke-opacity="0"></use></g></g><g><use xlink:href="#aUeF8SGR8" opacity="1" fill="#000000" fill-opacity="1"></use><g><use xlink:href="#aUeF8SGR8" opacity="1" fill-opacity="0" stroke="#000000" stroke-width="1" stroke-opacity="0"></use></g></g><g><use xlink:href="#d1dQKzKrcc" opacity="1" fill="#000000" fill-opacity="1"></use><g><use xlink:href="#d1dQKzKrcc" opacity="1" fill-opacity="0" stroke="#000000" stroke-width="1" stroke-opacity="0"></use></g></g><g><use xlink:href="#dOFfW90pN" opacity="1" fill="#000000" fill-opacity="1"></use><g><use xlink:href="#dOFfW90pN" opacity="1" fill-opacity="0" stroke="#000000" stroke-width="1" stroke-opacity="0"></use></g></g></g></svg>