<svg height="512pt" viewBox="-44 0 512 512.00077" width="512pt" xmlns="http://www.w3.org/2000/svg"><path d="m243.226562 113.410156h-62.238281v-82.292968c.003907-17.183594 13.933594-31.117188 31.121094-31.117188s31.117187 13.933594 31.117187 31.117188zm0 0" fill="#b2785b"/><path d="m348.582031 262.632812-125.835937-32.324218c-6.285156-1.613282-12.878906-1.613282-19.164063 0l-125.835937 32.324218c-13.378906 3.433594-23.875 13.757813-27.554688 27.074219-7.859375 28.441407-16.308594 79.371094 7.300782 120.683594 25.351562 44.367187 84.988281 57.308594 123.824218 90.042969 18.296875 15.421875 45.398438 15.421875 63.691406 0 38.839844-32.734375 98.476563-45.675782 123.828126-90.042969 23.605468-41.3125 15.160156-92.242187 7.300781-120.683594-3.679688-13.316406-14.179688-23.640625-27.554688-27.074219zm0 0" fill="#fce6d4"/><path d="m210.945312 423.574219c-11.394531-2.824219-21.046874-6.726563-29.222656-11.25-35.460937-19.632813-31.085937-72.179688 7.15625-85.605469 69.078125-24.25 155.773438-21.613281 155.773438-21.613281l1.03125-43.21875-122.9375-31.578125c-6.285156-1.613282-12.878906-1.613282-19.164063 0l-125.835937 32.320312c-13.378906 3.4375-23.875 13.761719-27.554688 27.074219-7.859375 28.445313-16.308594 79.375 7.300782 120.6875 25.351562 44.367187 84.988281 57.304687 123.824218 90.042969 18.296875 15.421875 45.398438 15.421875 63.691406 0 10.042969-8.460938 21.472657-15.605469 33.339844-22.304688-12.832031-22.058594-34.027344-46.273437-67.402344-54.554687zm0 0" fill="#efd4bf"/><path d="m4.914062 225.234375c-20.03125 47.632813 24.492188 97.15625 74.011719 82.394531 37.898438-11.300781 83.5625-20.242187 133.183594-20.242187s95.285156 8.941406 133.183594 20.242187c49.519531 14.761719 94.042969-34.761718 74.011719-82.394531-31.652344-75.269531-92.347657-155.765625-207.195313-155.765625-114.84375 0-175.542969 80.496094-207.195313 155.765625zm0 0" fill="#dd9f80"/><path d="m146.152344 381.832031c0-13.582031-13.824219-24.589843-30.875-24.589843-17.054688 0-30.878906 11.007812-30.878906 24.589843 0 13.578125 13.824218 24.585938 30.878906 24.585938 17.050781 0 30.875-11.007813 30.875-24.585938zm0 0" fill="#ffa6bb"/><path d="m339.820312 381.832031c0-13.582031-13.824218-24.589843-30.878906-24.589843-17.050781 0-30.875 11.007812-30.875 24.589843 0 13.578125 13.824219 24.585938 30.875 24.585938 17.054688 0 30.878906-11.007813 30.878906-24.585938zm0 0" fill="#ffa6bb"/><path d="m295.199219 368.332031c-4.265625 0-7.726563-3.457031-7.726563-7.726562v-12.824219c0-4.269531 3.460938-7.726562 7.726563-7.726562 4.269531 0 7.726562 3.457031 7.726562 7.726562v12.824219c0 4.269531-3.457031 7.726562-7.726562 7.726562zm0 0" fill="#57565c"/><path d="m129.019531 368.332031c-4.269531 0-7.726562-3.457031-7.726562-7.726562v-12.824219c0-4.269531 3.457031-7.726562 7.726562-7.726562 4.265625 0 7.726563 3.457031 7.726563 7.726562v12.824219c0 4.269531-3.460938 7.726562-7.726563 7.726562zm0 0" fill="#57565c"/><path d="m233.597656 375.601562c0-14.050781-9.621094-25.441406-21.488281-25.441406s-21.488281 11.390625-21.488281 25.441406c0 14.050782 9.621094 25.445313 21.488281 25.445313s21.488281-11.394531 21.488281-25.445313zm0 0" fill="#57565c"/><g fill="#c68d6d"><path d="m121.292969 197.078125c-28.714844-45.425781 15.457031-114.25 15.457031-114.25-67.605469 25.964844-107.980469 85.671875-131.835938 142.40625-20.03125 47.632813 24.492188 97.15625 74.011719 82.390625 37.894531-11.296875 83.558594-20.238281 133.183594-20.238281 32.878906 0 63.988281 3.917969 92.285156 9.851562-54.972656-60.144531-157.632812-59.867187-183.101562-100.160156zm0 0"/><path d="m257.253906 143.234375c0 9.507813-7.707031 17.214844-17.210937 17.214844-9.507813 0-17.214844-7.707031-17.214844-17.214844s7.707031-17.214844 17.214844-17.214844c9.503906 0 17.210937 7.707031 17.210937 17.214844zm0 0"/><path d="m337.355469 172.660156c0 9.507813-7.707031 17.214844-17.214844 17.214844s-17.214844-7.707031-17.214844-17.214844c0-9.507812 7.707031-17.214844 17.214844-17.214844s17.214844 7.707032 17.214844 17.214844zm0 0"/><path d="m277.65625 213.773438c0 9.507812-7.707031 17.214843-17.214844 17.214843-9.507812 0-17.214844-7.707031-17.214844-17.214843 0-9.507813 7.707032-17.210938 17.214844-17.210938 9.507813 0 17.214844 7.703125 17.214844 17.210938zm0 0"/></g></svg>