<svg height="512pt" viewBox="-31 0 512 512.00103" width="512pt" xmlns="http://www.w3.org/2000/svg"><path d="m367.484375 512h-285.164063c-16.8125 0-30.4375-13.628906-30.4375-30.4375v-14.65625c0-50.652344 41.058594-91.710938 91.710938-91.710938h162.617188c50.652343 0 91.710937 41.058594 91.710937 91.710938v14.65625c0 16.808594-13.628906 30.4375-30.4375 30.4375zm0 0" fill="#8faa83"/><path d="m239.308594 375.195312h-95.71875c-50.648438 0-91.710938 41.058594-91.710938 91.710938v14.65625c0 16.808594 13.628906 30.4375 30.441406 30.4375h127.222657c24.1875-41.964844 29.296875-99.804688 29.765625-136.804688zm0 0" fill="#809674"/><path d="m88.855469 408.445312s43.863281 43.152344 43.863281 103.554688h49.753906s1.65625-67.960938-46.816406-124.867188c-1.671875-1.75-46.800781 21.3125-46.800781 21.3125zm0 0" fill="#c68d6d"/><path d="m360.945312 408.445312s-43.863281 43.152344-43.863281 103.554688h-49.75s-1.660156-67.960938 46.8125-124.867188c1.671875-1.75 46.800781 21.3125 46.800781 21.3125zm0 0" fill="#dd9f80"/><path d="m136.777344 365.058594s-57.785156-9.492188-82.320313 20.890625c-10.734375 13.289062-23.230469 20.683593-33.894531 24.796875-12.371094 4.769531-16.535156 20.339844-8.246094 30.683594 17.730469 22.132812 49.691406 47.023437 94.019532 22.273437 70.902343-39.585937 100.105468-66.195313 100.105468-66.195313zm0 0" fill="#c6c5ca"/><path d="m313.027344 365.058594s57.78125-9.492188 82.316406 20.890625c10.734375 13.289062 23.230469 20.683593 33.894531 24.796875 12.371094 4.769531 16.539063 20.339844 8.25 30.683594-17.730469 22.132812-49.691406 47.023437-94.023437 22.273437-70.898438-39.585937-100.101563-66.195313-100.101563-66.195313zm0 0" fill="#d8d7da"/><path d="m90.523438 243.09375c17.648437 17.652344 17.648437 46.269531 0 63.917969-17.652344 17.648437-46.265626 17.648437-63.914063 0-17.652344-17.652344-37.351563-65.96875-19.703125-83.617188 17.652344-17.652343 65.96875 2.050781 83.617188 19.699219zm0 0" fill="#8faa83"/><path d="m50.75 362.0625c-22.136719 0-40.144531-18.007812-40.144531-40.144531 0-15.257813 8.472656-29.003907 22.109375-35.871094 3.804687-1.914063 8.445312-.386719 10.359375 3.421875 1.917969 3.804688.386719 8.445312-3.417969 10.359375-8.398438 4.230469-13.617188 12.695313-13.617188 22.089844 0 13.625 11.085938 24.710937 24.710938 24.710937s24.710938-11.085937 24.710938-24.710937c0-4.261719 3.453124-7.714844 7.71875-7.714844 4.261718 0 7.714843 3.453125 7.714843 7.714844 0 22.136719-18.007812 40.144531-40.144531 40.144531zm0 0" fill="#ffeb99"/><path d="m359.277344 243.09375c-17.648438 17.652344-17.648438 46.269531 0 63.917969 17.652344 17.648437 46.269531 17.648437 63.917968 0 17.648438-17.652344 37.347657-65.96875 19.699219-83.617188-17.652343-17.652343-65.964843 2.050781-83.617187 19.699219zm0 0" fill="#a1bf94"/><path d="m240.867188 415.253906h-31.929688c-83.667969 0-152.125-68.453125-152.125-152.121094v-69.890624c0-92.445313 75.640625-168.085938 168.089844-168.085938 92.445312 0 168.085937 75.636719 168.085937 168.085938v69.890624c0 83.667969-68.457031 152.121094-152.121093 152.121094zm0 0" fill="#b3d1a7"/><path d="m137.292969 300.398438c-7.839844-41.515626 4.976562-83.996094 33.046875-115.574219 41.746094-46.953125 54.5625-159.667969 54.5625-159.667969-92.449219 0-168.089844 75.636719-168.089844 168.085938v69.890624c0 83.097657 67.546875 151.191407 150.441406 152.113282-44.234375-36.636719-63.089844-78.488282-69.960937-114.847656zm0 0" fill="#a1bf94"/><path d="m224.902344 339.003906c-15.96875 0-28.914063-12.941406-28.914063-28.910156v-21.019531c0-4.359375 3.535157-7.894531 7.894531-7.894531h42.039063c4.359375 0 7.890625 3.535156 7.890625 7.894531v21.019531c0 15.96875-12.945312 28.910156-28.910156 28.910156zm0 0" fill="#57565c"/><path d="m159.03125 310.09375c0-13.5625-13.808594-24.558594-30.839844-24.558594s-30.839844 10.996094-30.839844 24.558594 13.808594 24.558594 30.839844 24.558594 30.839844-10.996094 30.839844-24.558594zm0 0" fill="#ffa6bb"/><path d="m352.449219 310.09375c0-13.5625-13.808594-24.558594-30.839844-24.558594s-30.835937 10.996094-30.835937 24.558594 13.804687 24.558594 30.835937 24.558594 30.839844-10.996094 30.839844-24.558594zm0 0" fill="#ffa6bb"/><path d="m307.886719 296.613281c-4.261719 0-7.71875-3.457031-7.71875-7.71875v-12.808593c0-4.261719 3.457031-7.71875 7.71875-7.71875s7.714843 3.457031 7.714843 7.71875v12.808593c0 4.261719-3.453124 7.71875-7.714843 7.71875zm0 0" fill="#57565c"/><path d="m141.914062 296.613281c-4.261718 0-7.714843-3.457031-7.714843-7.71875v-12.808593c0-4.261719 3.453125-7.71875 7.714843-7.71875 4.265626 0 7.71875 3.457031 7.71875 7.71875v12.808593c0 4.261719-3.457031 7.71875-7.71875 7.71875zm0 0" fill="#57565c"/><path d="m66.3125 401.171875c6.355469 6.964844 5.867188 17.761719-1.09375 24.117187-6.960938 6.359376-17.757812 5.871094-24.117188-1.09375-6.359374-6.960937-16.011718-28.867187-9.050781-35.222656 6.960938-6.359375 27.902344 5.238282 34.261719 12.199219zm0 0" fill="#d8d7da"/><path d="m383.492188 401.171875c-6.359376 6.964844-5.871094 17.761719 1.089843 24.117187 6.964844 6.359376 17.761719 5.871094 24.117188-1.09375 6.359375-6.960937 16.015625-28.867187 9.050781-35.222656-6.960938-6.359375-27.902344 5.238282-34.257812 12.199219zm0 0" fill="#eaeaea"/><path d="m264.09375 72.917969c0 21.648437-17.546875 39.195312-39.191406 39.195312-21.648438 0-39.195313-17.546875-39.195313-39.195312 0-21.644531 17.546875-72.917969 39.195313-72.917969 21.644531 0 39.191406 51.273438 39.191406 72.917969zm0 0" fill="#976cc1"/><path d="m243.859375 86.097656c9.445313 17.902344 2.59375 40.074219-15.308594 49.523438-17.902343 9.445312-40.074219 2.59375-49.523437-15.308594-9.449219-17.902344-32.148438-106.671875-14.246094-116.117188 17.902344-9.449218 69.628906 64 79.078125 81.902344zm0 0" fill="#b189e0"/></svg>