<svg height="511pt" viewBox="0 0 511.9998 511" width="511pt" xmlns="http://www.w3.org/2000/svg"><path d="m404.117188 202.171875 19.039062 5.953125c9.445312 2.949219 19.753906.625 27.019531-6.089844 15.589844-14.40625 28.070313-26.792968 37.175781-36.171875 12.589844-12.964843 20.558594-29.722656 22.582032-47.679687 4-35.554688 1.410156-69.152344-1.207032-89.898438-1.613281-12.808594-11.699218-22.894531-24.503906-24.507812-20.75-2.617188-54.363281-5.210938-89.933594-1.203125-17.9375 2.023437-34.683593 9.984375-47.636718 22.5625-39.570313 38.425781-132.6875 136.855469-205.457032 276.003906l70.164063 70.167969c65.089844-34.039063 121.257813-72.527344 166.554687-107.90625 6.726563-5.253906 10.675782-13.292969 10.675782-21.828125v-27.984375c0-8.070313 7.824218-13.824219 15.527344-11.417969zm0 0" fill="#eaeaea"/><path d="m211.359375 371.304688c23.980469-12.539063 46.742187-25.679688 68.207031-39.050782-8.28125-22.355468-19.753906-45.253906-35.554687-63.761718-21.230469-24.871094-31.863281-52.851563-37.125-76.28125-22.410157 32.679687-44.882813 69.136718-65.691407 108.929687zm0 0" fill="#d8d7da"/><path d="m500.667969 11.832031c-4.324219-4.328125-10.054688-7.253906-16.460938-8.0625-20.746093-2.617187-54.335937-5.203125-89.882812-1.203125-17.957031 2.023438-34.71875 9.992188-47.683594 22.582032-39.578125 38.4375-132.679687 136.859374-205.441406 275.988281l35.082031 35.082031zm0 0" fill="#d8d7da"/><path d="m206.886719 192.210938c-22.410157 32.679687-44.878907 69.136718-65.6875 108.925781l35.082031 35.082031 67.730469-67.726562c-21.230469-24.871094-31.863281-52.855469-37.125-76.28125zm0 0" fill="#c6c5ca"/><path d="m101.957031 490.402344 77.324219-99.941406-57.242188-57.242188-99.941406 77.324219c-27.132812 20.988281-29.675781 61.023437-5.421875 85.277343 24.253907 24.253907 64.292969 21.710938 85.28125-5.417968zm0 0" fill="#eab9a4"/><path d="m179.277344 390.457031-57.238282-57.238281-75.417968 58.347656zm0 0" fill="#dd9f80"/><path d="m154.9375 421.917969-145.304688 1.925781c-10.414062 15.507812-12.472656 35.230469-5.746093 52.453125h108.980469zm0 0" fill="#dd9f80"/><path d="m190.578125 429.117188c-21.167969-47.773438-59.570313-85.695313-107.195313-107.195313-19.757812-8.917969-28.542968-32.167969-19.625-51.925781 8.921876-19.757813 32.167969-28.542969 51.925782-19.621094 65.058594 29.375 117.066406 81.378906 146.441406 146.4375 8.921875 19.757812.136719 43.003906-19.621094 51.925781-15.304687 6.910157-41.597656 3.691407-51.925781-19.621093zm0 0" fill="#ffcd00"/><path d="m240.328125 336.222656c0 35.375-28.675781 64.050782-64.050781 64.050782s-64.050782-28.675782-64.050782-64.050782 28.675782-64.050781 64.050782-64.050781 64.050781 28.675781 64.050781 64.050781zm0 0" fill="#ffeb99"/><path d="m206.285156 336.222656c0 16.574219-13.4375 30.007813-30.007812 30.007813-16.570313 0-30.007813-13.433594-30.007813-30.007813 0-16.570312 13.4375-30.003906 30.007813-30.003906 16.570312 0 30.007812 13.433594 30.007812 30.003906zm0 0" fill="#ff929f"/><path d="m291.148438 41.242188 4.894531 8.949218c4.878906 8.925782 12.21875 16.265625 21.144531 21.144532l8.949219 4.894531c9.15625 5.007812 9.15625 18.160156 0 23.171875l-8.949219 4.890625c-8.925781 4.882812-16.265625 12.222656-21.144531 21.148437l-4.894531 8.945313c-5.011719 9.160156-18.164063 9.160156-23.171876 0l-4.890624-8.945313c-4.882813-8.925781-12.222657-16.265625-21.148438-21.148437l-8.945312-4.890625c-9.160157-5.011719-9.160157-18.164063 0-23.171875l8.945312-4.894531c8.925781-4.882813 16.265625-12.21875 21.148438-21.144532l4.890624-8.949218c5.011719-9.15625 18.164063-9.15625 23.171876 0zm0 0" fill="#ffeb99"/></svg>