<svg height="512pt" viewBox="0 0 512 512" width="512pt" xmlns="http://www.w3.org/2000/svg"><path d="m512 256c0 141.386719-114.613281 256-256 256s-256-114.613281-256-256 114.613281-256 256-256 256 114.613281 256 256zm0 0" fill="#d8d7da"/><path d="m194.546875 246.972656c-58.402344-64.851562-53.460937-167.609375-45.144531-223.792968-88.160156 40.433593-149.402344 129.480468-149.402344 232.820312 0 141.382812 114.613281 256 256 256 39.050781 0 76.054688-8.742188 109.171875-24.378906-35.480469-85.808594-104.925781-167.695313-170.625-240.648438zm0 0" fill="#c6c5ca"/><path d="m256 450.1875c-107.074219 0-194.1875-87.113281-194.1875-194.1875s87.113281-194.1875 194.1875-194.1875 194.1875 87.113281 194.1875 194.1875-87.113281 194.1875-194.1875 194.1875zm0 0" fill="#dd9f80"/><path d="m194.546875 246.972656c-37.609375-41.761718-48.949219-99.25-50.035156-149.886718-49.976563 35.167968-82.699219 93.296874-82.699219 158.914062 0 107.074219 87.113281 194.1875 194.1875 194.1875 29.117188 0 56.757812-6.441406 81.574219-17.972656-37.929688-65.613282-91.625-128.164063-143.027344-185.242188zm0 0" fill="#c68d6d"/><path d="m61.8125 256c0 25.9375 5.109375 50.699219 14.378906 73.339844h359.617188c9.269531-22.640625 14.378906-47.402344 14.378906-73.339844s-5.109375-50.699219-14.378906-73.339844h-359.617188c-9.269531 22.640625-14.378906 47.402344-14.378906 73.339844zm0 0" fill="#c68d6d"/><path d="m61.8125 256c0 25.9375 5.109375 50.699219 14.378906 73.339844h189.277344c-22.945312-28.464844-47.175781-56-70.921875-82.367188-17.03125-18.914062-28.675781-41.050781-36.421875-64.3125h-81.933594c-9.269531 22.640625-14.378906 47.402344-14.378906 73.339844zm0 0" fill="#b2785b"/><path d="m329.339844 256c0 40.503906-32.835938 73.339844-73.339844 73.339844s-73.339844-32.835938-73.339844-73.339844 32.835938-73.339844 73.339844-73.339844 73.339844 32.835938 73.339844 73.339844zm0 0" fill="#c6c5ca"/><g fill="#57565c"><path d="m319.671875 140.773438c-4.269531 0-7.726563-3.460938-7.726563-7.726563v-12.828125c0-4.265625 3.457032-7.726562 7.726563-7.726562s7.726563 3.460937 7.726563 7.726562v12.828125c0 4.265625-3.457032 7.726563-7.726563 7.726563zm0 0"/><path d="m192.328125 140.773438c-4.269531 0-7.726563-3.460938-7.726563-7.726563v-12.828125c0-4.265625 3.457032-7.726562 7.726563-7.726562 4.265625 0 7.726563 3.460937 7.726563 7.726562v12.828125c0 4.265625-3.460938 7.726563-7.726563 7.726563zm0 0"/><path d="m261.277344 125.328125c-1.734375 2.542969-4.253906 2.847656-5.277344 2.847656s-3.589844-.277343-5.277344-2.847656c-2.34375-3.566406-7.136718-4.558594-10.699218-2.214844-3.566407 2.34375-4.558594 7.132813-2.21875 10.699219 4.039062 6.148438 10.839843 9.816406 18.195312 9.816406 7.351562 0 14.152344-3.667968 18.191406-9.816406 2.34375-3.566406 1.351563-8.355469-2.214844-10.699219-1.308593-.859375-7.089843-3.082031-10.699218 2.214844zm0 0"/></g><path d="m245.78125 283.734375-17.515625-17.515625c-5.644531-5.644531-5.644531-14.792969 0-20.4375l17.515625-17.515625c5.644531-5.644531 14.792969-5.644531 20.4375 0l17.515625 17.515625c5.644531 5.644531 5.644531 14.792969 0 20.4375l-17.515625 17.515625c-5.644531 5.644531-14.792969 5.644531-20.4375 0zm0 0" fill="#eaeaea"/><path d="m243.035156 389.445312c0-11.640624-9.433594-21.074218-21.074218-21.074218h-124.25c11.40625 16.023437 25.191406 30.234375 40.820312 42.148437h83.429688c11.640624 0 21.074218-9.4375 21.074218-21.074219zm0 0" fill="#b2785b"/><path d="m449.050781 234.925781h-51.347656c-11.640625 0-21.074219 9.433594-21.074219 21.074219s9.433594 21.074219 21.074219 21.074219h51.347656c.753907-6.925781 1.136719-13.953125 1.136719-21.074219s-.382812-14.148438-1.136719-21.074219zm0 0" fill="#b2785b"/><path d="m126.507812 277.074219h-7.726562c-11.636719 0-21.070312-9.4375-21.070312-21.074219 0-11.640625 9.433593-21.074219 21.070312-21.074219h7.726562c11.640626 0 21.074219 9.433594 21.074219 21.074219 0 11.636719-9.433593 21.074219-21.074219 21.074219zm0 0" fill="#935b45"/></svg>