<svg height="511pt" viewBox="0 -37 511.99997 511" width="511pt" xmlns="http://www.w3.org/2000/svg"><path d="m342.222656 357.265625-15.238281 4.832031c-7.121094 2.253906-14.90625.359375-20.183594-4.921875l-8.367187-8.367187c-11.15625-11.152344-15.585938-27.375-11.65625-42.652344l19.238281-74.746094 74.75-19.238281c15.277344-3.933594 31.496094.5 42.648437 11.65625l82.148438 82.148437c11.71875 11.714844 6.710938 31.695313-9.144531 36.503907l-42.820313 12.984375c-11.277344 3.421875-20.105468 12.246094-23.523437 23.527344l-12.988281 42.820312c-4.808594 15.855469-24.785157 20.863281-36.503907 9.144531l-20.113281-20.113281c-4.773438-4.773438-6.816406-11.636719-5.429688-18.246094l4.1875-19.957031c2.085938-9.941406-7.320312-18.449219-17.003906-15.375zm0 0" fill="#b2e59c"/><path d="m306.015625 231.410156 74.75-19.238281c15.277344-3.933594 31.496094.5 42.648437 11.65625l82.148438 82.148437c11.71875 11.714844 6.710938 31.695313-9.144531 36.503907l-42.820313 12.984375c-5.640625 1.710937-10.667968 4.773437-14.710937 8.816406zm0 0" fill="#c8efb9"/><path d="m398.835938 324.230469c7.839843-7.84375 7.839843-20.558594 0-28.398438l-252.9375-252.9375-28.398438 28.394531 252.9375 252.941407c7.84375 7.839843 20.554688 7.839843 28.398438 0zm0 0" fill="#dd9f80"/><path d="m228.5 125.496094c-3.734375 9.816406-9.925781 22.683594-20.058594 36.738281l79.59375 79.59375c8.609375-9.054687 17.589844-19.464844 25.910156-30.886719zm0 0" fill="#c68d6d"/><path d="m102.589844.582031 99.101562 7.769531c17.179688 1.347657 22.988282 23.628907 8.65625 33.195313l-35.203125 23.5c-14.050781 9.378906-26.113281 21.441406-35.488281 35.492187l-23.5 35.203126c-9.570312 14.332031-31.851562 8.519531-33.199219-8.660157l-7.769531-99.101562c-1.226562-15.613281 11.789062-28.625 27.402344-27.398438zm0 0" fill="#c6c5ca"/><path d="m102.589844.582031 99.101562 7.769531c17.179688 1.347657 22.988282 23.628907 8.65625 33.195313l-35.203125 23.5c-7.023437 4.691406-13.550781 10.050781-19.496093 15.996094l-73.074219-73.078125c5.050781-5.050782 12.207031-7.996094 20.015625-7.382813zm0 0" fill="#d8d7da"/><path d="m169.777344 357.265625 15.238281 4.832031c7.121094 2.253906 14.90625.359375 20.183594-4.921875l8.367187-8.367187c11.15625-11.152344 15.585938-27.375 11.65625-42.652344l-19.238281-74.746094-74.75-19.238281c-15.277344-3.933594-31.496094.5-42.648437 11.65625l-82.148438 82.144531c-11.71875 11.71875-6.710938 31.699219 9.144531 36.507813l42.820313 12.984375c11.277344 3.421875 20.105468 12.246094 23.523437 23.523437l12.988281 42.820313c4.808594 15.859375 24.785157 20.863281 36.503907 9.148437l20.113281-20.113281c4.773438-4.773438 6.816406-11.636719 5.429688-18.246094l-4.1875-19.957031c-2.085938-9.941406 7.320312-18.449219 17.003906-15.375zm0 0" fill="#ff929f"/><path d="m205.984375 231.410156-74.75-19.238281c-15.277344-3.933594-31.496094.5-42.648437 11.65625l-82.148438 82.148437c-11.71875 11.714844-6.710938 31.695313 9.144531 36.503907l42.820313 12.984375c5.640625 1.710937 10.667968 4.773437 14.710937 8.816406zm0 0" fill="#ff737d"/><path d="m113.164062 324.230469c-7.839843-7.84375-7.839843-20.558594 0-28.398438l252.9375-252.9375 28.398438 28.394531-252.9375 252.941407c-7.84375 7.839843-20.554688 7.839843-28.398438 0zm0 0" fill="#eab9a4"/><path d="m409.410156.582031-99.101562 7.769531c-17.179688 1.347657-22.992188 23.628907-8.660156 33.195313l35.207031 23.5c14.050781 9.378906 26.109375 21.441406 35.488281 35.492187l23.5 35.203126c9.566406 14.332031 31.847656 8.519531 33.195312-8.660157l7.773438-99.101562c1.226562-15.613281-11.789062-28.625-27.402344-27.398438zm0 0" fill="#eaeaea"/><path d="m409.410156.582031-99.101562 7.769531c-17.179688 1.347657-22.988282 23.628907-8.65625 33.195313l35.203125 23.5c7.023437 4.691406 13.550781 10.050781 19.496093 15.996094l73.074219-73.078125c-5.050781-5.050782-12.207031-7.996094-20.015625-7.382813zm0 0" fill="#d8d7da"/></svg>