<svg height="511pt" viewBox="0 0 511.99992 511" width="511pt" xmlns="http://www.w3.org/2000/svg"><path d="m289.871094 34.136719c0 16.882812-13.6875 30.574219-30.574219 30.574219s-30.574219-13.691407-30.574219-30.574219c0-16.886719 13.6875-30.574219 30.574219-30.574219s30.574219 13.6875 30.574219 30.574219zm0 0" fill="#8dc971"/><path d="m508.191406 253.953125c0 16.882813-13.6875 30.574219-30.574218 30.574219-16.886719 0-30.574219-13.691406-30.574219-30.574219 0-16.886719 13.6875-30.578125 30.574219-30.578125 16.886718 0 30.574218 13.691406 30.574218 30.578125zm0 0" fill="#9ad880"/><path d="m202.917969 232.710938-193.417969 217.292968c-13.222656 14.851563-12.566406 37.441406 1.496094 51.5 14.058594 14.0625 36.648437 14.71875 51.5 1.496094l217.292968-193.417969zm0 0" fill="#ffeb99"/><path d="m125.601562 319.570312c31.210938 32.175782 61.230469 45.871094 85.992188 50.714844l68.195312-60.703125-76.871093-76.871093zm0 0" fill="#ffde55"/><path d="m348.4375 253.433594c0 49.359375-40.011719 89.375-89.371094 89.375s-89.375-40.015625-89.375-89.375 40.015625-89.371094 89.375-89.371094 89.371094 40.011719 89.371094 89.371094zm0 0" fill="#ffcd00"/><path d="m246.386719 251.859375 69-67.828125c-35.101563-28.554688-86.824219-26.488281-119.515625 6.207031-34.90625 34.902344-34.90625 91.492188 0 126.394531 3.984375 3.988282 8.261718 7.519532 12.75 10.597657-5.253906-46.847657 37.765625-75.371094 37.765625-75.371094zm0 0" fill="#ffb600"/><path d="m512 55.019531c0 30.113281-24.410156 54.523438-54.519531 54.523438-30.113281 0-54.523438-24.410157-54.523438-54.523438 0-30.109375 24.410157-54.519531 54.523438-54.519531 30.109375 0 54.519531 24.410156 54.519531 54.519531zm0 0" fill="#ffde55"/><path d="m450.226562 244.582031c58.472657-58.472656 65.0625-146.6875 14.71875-197.03125s-138.558593-43.753906-197.03125 14.71875c-58.476562 58.472657-65.066406 146.6875-14.722656 197.035157 50.34375 50.34375 138.558594 43.75 197.035156-14.722657zm0 0" fill="#ff929f"/><path d="m446.136719 32.40625c-51.46875-32.984375-126.488281-21.867188-178.222657 29.867188-58.476562 58.472656-65.066406 146.6875-14.722656 197.035156 4.707032 4.707031 9.746094 8.914062 15.058594 12.628906.132812-5.90625 1.144531-11.449219 2.683594-16.550781 5.6875-18.894531 25.417968-29.894531 44.507812-24.890625 27.328125 7.164062 57.566406 4.121094 57.566406 4.121094s-58.644531-95.035157-59.453124-95.84375c39.054687-77.398438 106.429687-100.234376 132.582031-106.367188zm0 0" fill="#ff737d"/><path d="m322.261719 190.238281c-29.773438-29.773437-55.832031-63.265625-77.351563-99.648437-12.613281-21.328125-5.546875-48.847656 15.785156-61.460938 21.328126-12.617187 48.84375-5.550781 61.460938 15.78125 35.355469 59.785156 85.648438 110.074219 145.433594 145.433594 21.332031 12.621094 28.394531 40.128906 15.78125 61.460938-12.613282 21.332031-40.132813 28.398437-61.460938 15.78125-36.382812-21.511719-69.871094-47.570313-99.648437-77.347657zm0 0" fill="#ffeb99"/><path d="m379.742188 158.511719c0 14.222656-11.53125 25.753906-25.753907 25.753906-14.222656 0-25.753906-11.53125-25.753906-25.753906 0-14.222657 11.53125-25.753907 25.753906-25.753907 14.222657 0 25.753907 11.53125 25.753907 25.753907zm0 0" fill="#ff737d"/><path d="m10.996094 501.503906c14.058594 14.0625 36.648437 14.71875 51.5 1.496094l65.332031-58.152344s-19.503906-3.253906-38.214844-21.960937c-18.710937-18.710938-21.960937-38.214844-21.960937-38.214844l-58.152344 65.332031c-13.222656 14.851563-12.566406 37.441406 1.496094 51.5zm0 0" fill="#ffcd00"/><path d="m295.15625 97.433594c27.410156-27.007813 55.347656-10.691406 55.347656-10.691406-10.28125-13.335938-19.75-27.296876-28.347656-41.832032-12.617188-21.332031-40.128906-28.398437-61.460938-15.78125-21.332031 12.613282-28.398437 40.132813-15.78125 61.460938 14.25 24.09375 30.492188 46.925781 48.488282 68.242187-1.054688-1.441406-25.0625-34.976562 1.753906-61.398437zm0 0" fill="#ffde55"/></svg>