<svg height="512pt" viewBox="0 -3 512.00138 512" width="512pt" xmlns="http://www.w3.org/2000/svg"><path d="m210.457031 63.144531h91.089844l-28.832031-53.195312c-7.191406-13.265625-26.234375-13.265625-33.425782 0zm0 0" fill="#c6c5ca"/><path d="m95.378906 198.429688h321.242188v277.519531h-321.242188zm0 0" fill="#74747c"/><path d="m256 334.265625c68.457031 0 128.269531 34.046875 160.621094 84.757813v-220.59375h-321.242188v220.59375c32.351563-50.710938 92.167969-84.757813 160.621094-84.757813zm0 0" fill="#66666d"/><path d="m59.632812 294.042969s-79.46875 106.996093-54.929687 143.222656c24.542969 36.230469 65.445313 25.710937 65.445313 25.710937zm0 0" fill="#b2785b"/><path d="m452.371094 294.042969s79.46875 106.996093 54.925781 143.222656c-24.542969 36.230469-65.445313 25.710937-65.445313 25.710937zm0 0" fill="#c68d6d"/><path d="m256 40.234375c-113.148438 0-204.875 91.726563-204.875 204.875h409.75c0-113.148437-91.722656-204.875-204.875-204.875zm0 0" fill="#d8d7da"/><path d="m51.125 245.109375v221.347656c0 21.753907 17.632812 39.382813 39.382812 39.382813 21.753907 0 39.386719-17.628906 39.386719-39.382813v-150.136719c0-23.902343 19.375-43.28125 43.28125-43.28125 5.578125 0 10.894531 1.050782 15.792969 2.972657-7.429688-14.058594-17.667969-27.460938-31.578125-39.382813-44.8125-38.40625-47.417969-96.957031-40.777344-141.667968-40.273437 37.410156-65.488281 90.84375-65.488281 150.148437zm0 0" fill="#c6c5ca"/><path d="m90.507812 505.839844c21.75 0 39.382813-17.632813 39.382813-39.382813v-150.140625c0-23.902344 19.378906-43.277344 43.28125-43.277344 23.90625 0 43.28125 19.375 43.28125 43.277344v33.269532c0 21.839843 17.707031 39.546874 39.546875 39.546874s39.546875-17.707031 39.546875-39.546874v-33.269532c0-23.902344 19.378906-43.277344 43.28125-43.277344s43.28125 19.375 43.28125 43.277344v150.140625c0 21.75 17.632813 39.382813 39.382813 39.382813 21.753906 0 39.382812-17.632813 39.382812-39.382813v-221.347656s-50.539062-21.242187-132.859375-30.164063c-19.414063-2.101562-37.191406-11.863281-49.28125-27.195312l-9.863281-12.507812c-6.5625-8.324219-19.175782-8.324219-25.738282 0l-9.859374 12.507812c-12.09375 15.335938-29.871094 25.09375-49.285157 27.199219-82.324219 8.917969-132.863281 30.164062-132.863281 30.164062v221.34375c0 21.75 17.632812 39.382813 39.382812 39.382813zm0 0" fill="#dd9f80"/><path d="m157.390625 236.628906c-5.765625-4.941406-10.835937-10.222656-15.273437-15.753906-57.265626 10.054688-90.992188 24.234375-90.992188 24.234375v221.347656c0 21.75 17.632812 39.382813 39.382812 39.382813 21.753907 0 39.386719-17.632813 39.386719-39.382813v-150.140625c0-23.902344 19.375-43.277344 43.28125-43.277344 5.578125 0 10.894531 1.046876 15.792969 2.96875-7.429688-14.054687-17.667969-27.457031-31.578125-39.378906zm0 0" fill="#c68d6d"/><g fill="#acabb1"><path d="m213.566406 102.0625c0 10.261719-8.316406 18.582031-18.578125 18.582031s-18.582031-8.320312-18.582031-18.582031c0-10.257812 8.320312-18.578125 18.582031-18.578125s18.578125 8.320313 18.578125 18.578125zm0 0"/><path d="m181.464844 163.878906c0 10.257813-8.316406 18.578125-18.578125 18.578125s-18.578125-8.320312-18.578125-18.578125c0-10.261718 8.316406-18.582031 18.578125-18.582031s18.578125 8.320313 18.578125 18.582031zm0 0"/><path d="m335.59375 102.0625c0 10.261719-8.320312 18.582031-18.578125 18.582031-10.261719 0-18.582031-8.320312-18.582031-18.582031 0-10.257812 8.320312-18.578125 18.582031-18.578125 10.257813 0 18.578125 8.320313 18.578125 18.578125zm0 0"/><path d="m367.695312 163.878906c0 10.257813-8.320312 18.578125-18.582031 18.578125-10.257812 0-18.578125-8.320312-18.578125-18.578125 0-10.261718 8.320313-18.582031 18.578125-18.582031 10.261719 0 18.582031 8.320313 18.582031 18.582031zm0 0"/></g></svg>