<svg height="512pt" viewBox="-46 0 512 512.00105" width="512pt" xmlns="http://www.w3.org/2000/svg"><path d="m189.109375 42.023438c-16.652344-8.730469-36.8125 2.347656-38.375 21.085937l-15.46875 185.605469c-5.640625 51.972656-54.796875 62.234375-54.796875 62.234375-55.386719 11.808593-90.441406 66.613281-77.9375 121.851562 0 0 25.605469 79.199219 99.136719 79.199219h79.3125c15.050781 0 29.589843-5.46875 40.90625-15.394531l15.625-13.699219c10.875-9.539062 27.285156-9 37.515625 1.226562l9.691406 9.695313c11.636719 11.636719 27.417969 18.171875 43.875 18.171875h26.554688c19.007812 0 34.804687-14.652344 36.230468-33.605469l29.597656-393.804687c1.460938-19.449219-18.03125-33.652344-36.097656-26.300782l-92.730468 37.742188zm0 0" fill="#dd9f80"/><path d="m101.667969 512h66.246093c-7.367187-10.070312-12.71875-21.117188-16.585937-32.050781-10.304687-29.132813-5.496094-61.257813 11.484375-87.074219 11.125-16.910156 15.085938-34.921875 15.085938-34.921875l-89.402344-49.519531c-4.835938 1.847656-8.027344 2.515625-8.027344 2.515625-55.386719 11.808593-90.441406 66.613281-77.9375 121.851562 0 0 25.605469 79.199219 99.136719 79.199219zm0 0" fill="#c68d6d"/><path d="m308.960938 402.75c-23.964844-88.984375-122.964844-136.753906-123.960938-137.226562l26.273438-55.488282c5.117187 2.421875 125.710937 60.679688 156.972656 176.746094zm0 0" fill="#898890"/><path d="m292.148438 96.03125-103.039063-54.007812c-16.652344-8.730469-36.8125 2.347656-38.375 21.085937l-3.871094 46.433594c76.039063 23.492187 175.910157 59.734375 255.574219 221.691406l7.421875-98.757813c-30-82.230468-117.710937-136.445312-117.710937-136.445312zm0 0" fill="#898890"/><path d="m273.761719 453.636719c-1.316407 1.316406 68.457031.957031 119.4375.523437l10.265625-136.605468c-38.019532 3.019531-124.867188 22.398437-129.703125 136.082031zm0 0" fill="#74747c"/><path d="m101.667969 512h79.3125c15.050781 0 29.589843-5.46875 40.90625-15.394531l15.625-13.699219c10.875-9.539062 27.285156-9 37.515625 1.226562l9.691406 9.695313c11.636719 11.636719 27.417969 18.171875 43.875 18.171875h26.554688c19.007812 0 34.804687-14.652344 36.226562-33.605469l3.796875-50.523437c-148.761719 28.480468-328.824219 25.214844-384.429687 23.347656 12.515624 23.402344 40.410156 60.78125 90.925781 60.78125zm0 0" fill="#898890"/><path d="m112.84375 258.03125s9.257812-136.351562-16.878906-214.925781c-6.660156-20.027344 7.496094-40.863281 28.527344-42.574219 15.664062-1.273438 33.953124-.5234375 52.246093 5.183594 23.671875 7.386718 41.460938 27.015625 47.199219 51.140625 13.105469 55.078125 31.625 176.152343-27.746094 269.558593 1.21875-4.570312-83.347656-68.382812-83.347656-68.382812zm0 0" fill="#d8d7da"/><path d="m112.847656 258.03125s84.570313 63.8125 83.347656 68.382812c20.761719-32.660156 31.992188-68.703124 37.265626-104.125 0 0-46.652344-24.832031-119.042969-26.550781.207031 36.070313-1.570313 62.292969-1.570313 62.292969zm0 0" fill="#c6c5ca"/><path d="m195.125 282.800781c-11.484375-10.503906-25.5625-21.792969-41.503906-31.410156-24.03125-14.503906-54.734375-11.609375-76.066406 6.632813-35.011719 29.945312-81.152344 80.136718-50.886719 117.582031 42.261719 52.285156 120.175781 6.445312 165.589843-28.128907 20.902344-15.914062 22.25-46.945312 2.867188-64.675781zm0 0" fill="#eaeaea"/><path d="m315.359375 220.960938-41.960937-41.960938c-6.035157-6.035156-6.035157-15.820312 0-21.855469l41.960937-41.960937c6.035156-6.035156 15.816406-6.035156 21.851563 0l41.960937 41.960937c6.035156 6.035157 6.035156 15.820313 0 21.855469l-41.960937 41.960938c-8.710938 7.792968-18.835938 3.015624-21.851563 0zm-9.179687-52.890626 20.105468 20.109376 20.109375-20.109376-20.109375-20.105468zm0 0" fill="#eaeaea"/><path d="m295.164062 384.125-41.960937-41.960938c-6.035156-6.035156-6.035156-15.820312 0-21.855468l41.960937-41.960938c6.035157-6.035156 15.820313-6.035156 21.851563 0l41.960937 41.960938c6.035157 6.035156 6.035157 15.820312 0 21.855468l-41.960937 41.960938c-8.886719 9.203125-18.835937 3.015625-21.851563 0zm-9.179687-52.890625 20.105469 20.109375 20.109375-20.109375-20.109375-20.105469zm0 0" fill="#eaeaea"/><g fill="#898890"><path d="m168.988281 313.644531c0 9.714844-7.875 17.589844-17.589843 17.589844-9.714844 0-17.59375-7.875-17.59375-17.589844 0-9.714843 7.878906-17.59375 17.59375-17.59375 9.714843 0 17.589843 7.878907 17.589843 17.59375zm0 0"/><path d="m202.589844 210.144531c0 9.714844-7.875 17.589844-17.589844 17.589844s-17.59375-7.875-17.59375-17.589844c0-9.714843 7.878906-17.589843 17.59375-17.589843s17.589844 7.875 17.589844 17.589843zm0 0"/><path d="m202.589844 134.28125c0 9.714844-7.875 17.589844-17.589844 17.589844s-17.59375-7.875-17.59375-17.589844 7.878906-17.59375 17.59375-17.59375 17.589844 7.878906 17.589844 17.59375zm0 0"/><path d="m190.929688 58.414062c0 9.714844-7.875 17.589844-17.589844 17.589844s-17.589844-7.875-17.589844-17.589844c0-9.714843 7.875-17.589843 17.589844-17.589843s17.589844 7.875 17.589844 17.589843zm0 0"/><path d="m103.921875 348.828125c0 9.714844-7.875 17.589844-17.589844 17.589844-9.714843 0-17.589843-7.875-17.589843-17.589844s7.875-17.59375 17.589843-17.59375c9.714844 0 17.589844 7.878906 17.589844 17.59375zm0 0"/></g><path d="m10.742188 451.21875c12.515624 23.402344 40.410156 60.78125 90.925781 60.78125h66.246093c-7.367187-10.070312-12.71875-21.117188-16.585937-32.050781-3.269531-9.25-5.019531-18.796875-5.339844-28.347657-60.671875 1.566407-110.394531.453126-135.246093-.382812zm0 0" fill="#74747c"/></svg>