<svg height="512pt" viewBox="-69 0 512 512.00017" width="512pt" xmlns="http://www.w3.org/2000/svg"><path d="m317.628906 215.800781-71.140625 71.144531 90.402344 44.164063c15.925781 7.78125 32.6875-8.980469 24.90625-24.90625zm0 0" fill="#aeadb2"/><path d="m305.453125 48.972656c13.222656-14.5 5.929687-37.832031-13.097656-42.644531-75.792969-19.164063-149.210938 6.777344-198.886719 56.453125-49.679688 49.675781-75.617188 123.09375-56.453125 198.886719 4.808594 19.027343 28.140625 26.320312 42.644531 13.097656 35.570313-32.4375 104.441406-68.144531 191.585938 19l53.207031-53.203125c-87.148437-87.148438-51.4375-156.015625-19-191.589844zm0 0" fill="#c6c5ca"/><path d="m136.421875 105.734375c75.28125-75.285156 169.03125-56.761719 169.03125-56.761719 13.222656-14.5 5.929687-37.832031-13.097656-42.644531-75.792969-19.164063-149.210938 6.777344-198.886719 56.453125-49.679688 49.675781-75.617188 123.09375-56.453125 198.886719 4.808594 19.027343 28.140625 26.320312 42.644531 13.097656 0 0-18.523437-93.75 56.761719-169.03125zm0 0" fill="#eaeaea"/><path d="m271.246094 293.765625 53.207031-53.203125c-57.425781-57.425781-61.507813-106.910156-48.328125-144.167969-35.691406 9.984375-67.96875 29.382813-93.816406 55.230469-25.847656 25.84375-45.246094 58.121094-55.230469 93.816406 37.257813-13.179687 86.742187-9.101562 144.167969 48.324219zm0 0" fill="#aeadb2"/><path d="m362.664062 149.335938c-14.3125-14.3125-37.363281-14.789063-52.253906-1.078126l-292.914062 269.644532c-22.675782 20.875-23.410156 56.425781-1.617188 78.21875 21.792969 21.792968 57.34375 21.058594 78.21875-1.617188l269.648438-292.914062c13.707031-14.890625 13.230468-37.941406-1.082032-52.253906zm0 0" fill="#dd9f80"/><path d="m362.664062 149.335938c-14.3125-14.3125-37.363281-14.789063-52.253906-1.078126l-292.914062 269.644532c-22.675782 20.875-23.410156 56.425781-1.617188 78.21875 0 0 18.320313-31.914063 28.75-42.234375 10.488282-10.378907 24.824219-15.609375 39.582032-15.550781 17.574218.066406 37.992187-13.03125 37.992187-13.03125s23.976563-42.40625 41.597656-72.898438c9.21875-15.949219 27.519531-24.054688 45.636719-20.707031 11.875 2.195312 23.628906 2.386719 32.703125 1.988281l121.601563-132.097656c13.710937-14.890625 13.234374-37.941406-1.078126-52.253906zm0 0" fill="#c68d6d"/><path d="m232.347656 305.542969-25.886718-25.890625c-14.664063-14.660156-14.664063-38.429688 0-53.089844l56-56.003906c14.660156-14.660156 38.429687-14.660156 53.089843 0l25.890625 25.890625c14.660156 14.660156 14.660156 38.429687 0 53.089843l-56.003906 56.003907c-14.660156 14.660156-38.429688 14.660156-53.089844 0zm0 0" fill="#eaeaea"/><path d="m241.367188 261.46875 56.003906-56c13.121094-13.125 33.554687-14.484375 48.207031-4.113281-1.214844-1.71875-2.597656-3.367188-4.136719-4.90625l-25.890625-25.890625c-14.660156-14.660156-38.429687-14.660156-53.089843 0l-56.003907 56.003906c-14.660156 14.660156-14.660156 38.429688 0 53.089844l25.890625 25.890625c1.539063 1.535156 3.199219 2.925781 4.914063 4.140625-10.367188-14.652344-9.015625-35.089844 4.105469-48.214844zm0 0" fill="#d8d7da"/><path d="m17.496094 417.902344c-22.675782 20.875-23.410156 56.425781-1.617188 78.21875 21.792969 21.792968 57.34375 21.058594 78.21875-1.617188l63.792969-69.296875-71.097656-71.097656zm0 0" fill="#d8d7da"/><path d="m17.496094 417.902344c-22.675782 20.875-23.410156 56.425781-1.617188 78.21875 0 0 18.320313-31.914063 28.75-42.234375 10.488282-10.378907 24.824219-15.609375 39.582032-15.550781 17.574218.066406 37.992187-13.03125 37.992187-13.03125s5.398437-9.546876 12.949219-22.835938l-48.359375-48.359375zm0 0" fill="#c6c5ca"/><path d="m140.003906 443.109375-71.109375-71.113281c-8.785156-8.785156-8.785156-23.023438 0-31.808594 8.78125-8.785156 23.023438-8.785156 31.804688 0l71.113281 71.113281c8.785156 8.78125 8.785156 23.023438 0 31.808594-8.785156 8.78125-23.023438 8.78125-31.808594 0zm0 0" fill="#eaeaea"/><path d="m107.539062 378.835938c8.785157-8.785157 23.027344-8.785157 31.808594 0l-38.648437-38.648438c-8.78125-8.785156-23.023438-8.785156-31.808594 0-8.78125 8.785156-8.78125 23.023438 0 31.808594l38.648437 38.648437c-8.78125-8.785156-8.78125-23.027343 0-31.808593zm0 0" fill="#d8d7da"/></svg>