<svg height="511pt" viewBox="-26 0 511 511.99952" width="511pt" xmlns="http://www.w3.org/2000/svg"><path d="m173.746094 210.066406c-16.269532 0-29.507813-13.234375-29.507813-29.503906v-39.960938c0-16.269531 13.238281-29.507812 29.507813-29.507812 16.269531 0 29.507812 13.238281 29.507812 29.507812v39.960938c0 16.269531-13.238281 29.503906-29.507812 29.503906zm0-83.382812c-7.75 0-14.054688 6.167968-14.054688 13.917968v39.960938c0 7.746094 6.304688 14.050781 14.054688 14.050781s14.054687-6.304687 14.054687-14.050781v-39.960938c0-7.75-6.304687-13.917968-14.054687-13.917968zm0 0" fill="#d8d7da"/><path d="m173.746094 43.164062c-16.269532 0-29.507813 13.238282-29.507813 29.507813v39.960937c0 16.269532 13.238281 29.503907 29.507813 29.503907 5.023437 0 9.773437-1.273438 13.917968-3.496094-.957031-6.804687-6.832031-11.957031-13.917968-11.957031-7.75 0-14.054688-6.304688-14.054688-14.050782v-39.960937c0-7.75 6.304688-14.054687 14.054688-14.054687s14.054687 6.304687 14.054687 14.054687v39.957031c0 .667969-.066406 1.300782-.160156 1.945313 5.105469 2.742187 9.328125 6.945312 12.082031 12.042969 2.253906-4.167969 3.53125-8.925782 3.53125-13.984376v-39.960937c0-16.269531-13.238281-29.507813-29.507812-29.507813zm0 0" fill="#eaeaea"/><path d="m134.382812 458.769531h75.203126l-24.195313 45.199219c-5.730469 10.707031-21.078125 10.707031-26.8125 0zm0 0" fill="#74747c"/><path d="m61.777344 283.484375 53.175781-53.175781-49.070313-14.855469c-11.621093-3.515625-22.476562 7.335937-18.957031 18.960937zm0 0" fill="#74747c"/><path d="m229.015625 450.722656 53.175781-53.179687 14.855469 49.070312c3.515625 11.625-7.335937 22.480469-18.960937 18.960938zm0 0" fill="#898890"/><path d="m53.730469 378.117188v-75.203126l-45.199219 24.195313c-10.707031 5.730469-10.707031 21.082031 0 26.8125zm0 0" fill="#74747c"/><path d="m290.238281 378.117188v-75.203126l45.203125 24.195313c10.707032 5.730469 10.707032 21.082031 0 26.8125zm0 0" fill="#898890"/><path d="m114.953125 450.722656-53.175781-53.179687-14.851563 49.070312c-3.519531 11.625 7.335938 22.480469 18.960938 18.960938zm0 0" fill="#74747c"/><path d="m282.191406 283.484375-53.175781-53.175781 49.070313-14.855469c11.621093-3.515625 22.476562 7.335937 18.960937 18.960937zm0 0" fill="#898890"/><path d="m183 168.582031h-22.03125c-10.898438 0-20.519531 7.113281-23.71875 17.527344l-13.269531 43.191406h96.007812l-13.269531-43.191406c-3.199219-10.414063-12.820312-17.527344-23.71875-17.527344zm0 0" fill="#898890"/><path d="m299.078125 340.515625c0 70.191406-56.898437 127.09375-127.09375 127.09375-70.191406 0-127.09375-56.902344-127.09375-127.09375s56.902344-127.09375 127.09375-127.09375c70.195313 0 127.09375 56.902344 127.09375 127.09375zm0 0" fill="#c6c5ca"/><path d="m123.980469 371.011719c-31.664063-71.464844 48.003906-157.59375 48.003906-157.59375-70.191406 0-127.09375 56.902343-127.09375 127.097656 0 70.191406 56.902344 127.09375 127.09375 127.09375 12.226563 0 24.054687-1.730469 35.246094-4.949219-28.734375-45.863281-63.136719-46.257812-83.25-91.648437zm0 0" fill="#aeadb2"/><path d="m139.886719 23.253906c-3.804688 15.917969 5.730469 31.980469 21.53125 36.261719l249.609375 67.667969c20.742187 5.625 42.03125-7.015625 47.027344-27.917969 4.992187-20.90625-8.28125-41.804687-29.328126-46.164063l-253.242187-52.464843c-16.027344-3.324219-31.792969 6.695312-35.597656 22.617187zm0 0" fill="#c68d6d"/><path d="m454.644531 108.304688c-79.238281-38.910157-226.507812-59.847657-261.171875-69.113282-25.699218-6.863281-40.003906-19.25-47.421875-28.265625-2.890625 3.472657-5.042969 7.644531-6.164062 12.324219-3.800781 15.921875 5.734375 31.984375 21.535156 36.265625l249.605469 67.667969c17.546875 4.757812 35.480468-3.554688 43.617187-18.878906zm0 0" fill="#b2785b"/><g fill="#57565c"><path d="m255.074219 338.296875c-4.265625 0-7.726563-3.457031-7.726563-7.726563v-12.824218c0-4.269532 3.460938-7.726563 7.726563-7.726563 4.269531 0 7.726562 3.457031 7.726562 7.726563v12.824218c0 4.269532-3.457031 7.726563-7.726562 7.726563zm0 0"/><path d="m88.894531 338.296875c-4.269531 0-7.726562-3.457031-7.726562-7.726563v-12.824218c0-4.269532 3.457031-7.726563 7.726562-7.726563s7.726563 3.457031 7.726563 7.726563v12.824218c0 4.269532-3.460938 7.726563-7.726563 7.726563zm0 0"/><path d="m193.472656 345.566406c0-14.050781-9.621094-25.441406-21.488281-25.441406s-21.488281 11.390625-21.488281 25.441406c0 14.050782 9.621094 25.445313 21.488281 25.445313s21.488281-11.394531 21.488281-25.445313zm0 0"/></g><path d="m244.972656 15.03125-69.488281-14.394531c-16.027344-3.324219-31.792969 6.695312-35.597656 22.617187-3.804688 15.921875 5.730469 31.980469 21.53125 36.265625l69.605469 18.867188zm0 0" fill="#c6c5ca"/><path d="m193.472656 39.191406c-25.699218-6.863281-40.003906-19.25-47.421875-28.265625-2.890625 3.472657-5.042969 7.644531-6.164062 12.328125-3.800781 15.917969 5.734375 31.980469 21.53125 36.261719l69.605469 18.871094 6.601562-29.984375c-19.851562-3.863282-35.507812-6.898438-44.152344-9.210938zm0 0" fill="#aeadb2"/></svg>