<svg height="512.0005pt" viewBox="0 0 512.0005 512.0005" width="512.0005pt" xmlns="http://www.w3.org/2000/svg"><path d="m352.597656 213.769531-54.367187-54.367187-280.492188 257.449218c-22.96875 21.082032-23.738281 57.058594-1.691406 79.101563 22.046875 22.046875 58.019531 21.277344 79.101563-1.691406zm0 0" fill="#b2785b"/><path d="m298.230469 159.402344-93.167969 85.515625c19.953125-.179688 39.273438 2.21875 52.140625 9.875 14.828125 8.824219 31.421875 12.003906 46.175781 12.597656l49.21875-53.621094zm0 0" fill="#935b45"/><path d="m352.191406 96.402344-47.515625-65.386719c-8.910156-12.261719-28.304687-5.207031-27.257812 9.910156l8.433593 121.816407zm0 0" fill="#acabb1"/><path d="m418.378906 162.585938 65.382813 47.515624c12.261719 8.910157 5.207031 28.304688-9.910157 27.257813l-121.816406-8.429687zm0 0" fill="#d8d7da"/><path d="m487.359375.554688-96.855469 22.902343c-24.511718 5.796875-42.996094 25.984375-46.609375 50.910157l-15.910156 109.648437 109.648437-15.910156c24.925782-3.613281 45.113282-22.097657 50.910157-46.609375l22.902343-96.855469c3.429688-14.488281-9.597656-27.511719-24.085937-24.085937zm0 0" fill="#eaeaea"/><path d="m487.355469.554688-96.851563 22.902343c-24.511718 5.796875-42.996094 25.984375-46.613281 50.910157l-15.90625 109.648437 178.136719-178.136719c-4.640625-4.636718-11.519532-7.039062-18.765625-5.324218zm0 0" fill="#d8d7da"/><path d="m339.855469 234.644531-62.5-62.5c-9.28125-9.28125-9.28125-24.332031 0-33.617187 9.285156-9.28125 24.335937-9.28125 33.617187 0l62.5 62.5c9.28125 9.285156 9.28125 24.332031 0 33.617187-9.285156 9.28125-24.335937 9.28125-33.617187 0zm0 0" fill="#dd9f80"/><path d="m315.503906 202.324219c1.210938-10.109375 12.304688-16.066407 21.5-11.6875 9.976563 4.75 20.820313 3.058593 27.3125 1.238281l-53.34375-53.34375c-9.285156-9.285156-24.335937-9.285156-33.617187 0-9.285157 9.28125-9.285157 24.332031 0 33.617188l43.253906 43.253906c-4.398437-4.402344-5.605469-8.90625-5.105469-13.078125zm0 0" fill="#c68d6d"/><path d="m371.207031 203.292969-62.5-62.496094c-9.285156-9.285156-9.285156-24.335937 0-33.617187 9.28125-9.285157 24.332031-9.285157 33.617188 0l62.5 62.5c9.28125 9.28125 9.28125 24.332031 0 33.617187-9.285157 9.28125-24.335938 9.28125-33.617188-.003906zm0 0" fill="#eab9a4"/><path d="m340.273438 138.746094c9.285156-9.28125 24.335937-9.28125 33.617187 0l-31.566406-31.566406c-9.285157-9.285157-24.332031-9.285157-33.617188 0-9.28125 9.28125-9.28125 24.332031 0 33.617187l31.566407 31.566406c-9.28125-9.285156-9.28125-24.335937 0-33.617187zm0 0" fill="#dd9f80"/><path d="m17.738281 416.851562c-22.96875 21.082032-23.738281 57.058594-1.691406 79.101563 22.046875 22.046875 58.019531 21.277344 79.101563-1.691406l66.410156-72.355469-71.464844-71.464844zm0 0" fill="#66666d"/></svg>