<svg height="511pt" viewBox="0 0 511.99273 511" width="511pt" xmlns="http://www.w3.org/2000/svg"><path d="m406.886719 504.429688c-167.410157-92.035157-304.546875-229.167969-396.578125-396.578126l27.082031-14.890624c89.203125 162.265624 222.121094 295.183593 384.382813 384.386718zm0 0" fill="#eaeaea"/><path d="m56.257812 161.191406c-39.816406-12.21875-64.828124-55.238281-53.53125-92.070312 11.695313-38.117188 52.222657-59.617188 90.339844-47.925782.003906 0 .007813.003907.003906.007813l-27.242187 40.410156c-10.105469 2.140625-18.789063 9.558594-22.023437 20.113281-4.347657 14.160157 8.066406 33.175782 25.054687 38.386719 20.183594 6.191407 53.304687 5.265625 77.566406-8.484375 31.324219-17.746094 67.851563-22.894531 102.859375-14.496094 35.015625 8.394532 65.222656 29.566407 85.082032 59.597657l20.167968 30.496093-35.839844 23.699219-20.167968-30.496093c-21.40625-40.355469-85.988282-56.878907-130.917969-31.417969-31.734375 17.984375-76.480469 22.875-111.351563 12.179687zm0 0" fill="#c68d6d"/><path d="m197.429688 138.445312c39.960937-7.046874 84.117187 9.96875 101.097656 41.984376l20.167968 30.496093 35.839844-23.699219-20.167968-30.496093c-19.859376-30.03125-50.066407-51.203125-85.082032-59.597657-13.59375-3.261718-27.414062-4.480468-41.074218-3.710937-8.625 16.425781-11.066407 32.03125-10.78125 45.023437zm0 0" fill="#b2785b"/><path d="m117.542969 121.808594c-17.730469 3.3125-35.824219 2.253906-48.683594-1.691406-16.992187-5.210938-29.402344-24.226563-25.058594-38.386719 3.238281-10.554688 11.921875-17.972657 22.023438-20.113281l27.246093-40.40625c0-.007813-.003906-.011719-.007812-.011719-38.121094-11.691407-78.644531 9.808593-90.339844 47.925781-3.085937 10.0625-3.460937 20.570312-1.566406 30.804688 43.578125 53.917968 116.386719 21.878906 116.386719 21.878906zm0 0" fill="#b2785b"/><path d="m100.582031 30.082031c0 16.339844-13.246093 29.582031-29.585937 29.582031-16.335938 0-29.582032-13.242187-29.582032-29.582031 0-16.339843 13.246094-29.585937 29.582032-29.585937 16.339844 0 29.585937 13.246094 29.585937 29.585937zm0 0" fill="#9ad880"/><path d="m44.007812 77.714844-24.160156-28.105469c-7.019531-8.167969-6.089844-20.484375 2.078125-27.507813 8.171875-7.023437 20.488281-6.089843 27.507813 2.078126l24.160156 28.105468c7.019531 8.171875 6.089844 20.484375-2.078125 27.507813-8.171875 7.023437-20.484375 6.089843-27.507813-2.078125zm0 0" fill="#eab9a4"/><path d="m351.296875 456.230469c12.21875 39.816406 55.238281 64.832031 92.070313 53.53125 38.117187-11.695313 59.617187-52.21875 47.925781-90.339844 0-.003906-.003907-.007813-.007813-.003906l-40.207031 26.191406c-1.835937 10.550781-9.394531 19.726563-20.3125 23.078125-14.164063 4.34375-33.179687-8.070312-38.390625-25.058594-6.191406-20.179687-5.265625-53.304687 8.484375-77.566406 17.75-31.324219 22.898437-67.851562 14.496094-102.859375-8.394531-35.015625-29.566407-65.222656-59.59375-85.082031l-30.5-20.164063-23.699219 35.839844 30.5 20.164063c40.351562 21.40625 56.875 85.992187 31.414062 130.917968-17.980468 31.734375-22.875 76.480469-12.179687 111.351563zm0 0" fill="#c68d6d"/><path d="m374.042969 315.0625c7.046875-39.957031-9.96875-84.117188-41.980469-101.101562l-30.5-20.164063 23.699219-35.839844 30.5 20.164063c30.027343 19.859375 51.199219 50.066406 59.59375 85.082031 3.261719 13.59375 4.480469 27.417969 3.710937 41.078125-16.425781 8.625-32.03125 11.070312-45.023437 10.78125zm0 0" fill="#b2785b"/><path d="m390.683594 394.921875c-3.3125 17.730469-2.257813 35.847656 1.6875 48.710937 5.210937 16.988282 24.226562 29.402344 38.386718 25.054688 10.921876-3.347656 18.480469-12.527344 20.316407-23.078125l40.203125-26.1875c.003906-.003906.011718 0 .011718.003906 11.691407 38.117188-9.808593 78.644531-47.929687 90.339844-10.0625 3.085937-20.5625 3.460937-30.792969 1.566406-53.917968-43.574219-21.882812-116.410156-21.882812-116.410156zm0 0" fill="#b2785b"/><path d="m511.992188 441.492188c0 16.339843-13.246094 29.582031-29.585938 29.582031-16.335938 0-29.582031-13.242188-29.582031-29.582031 0-16.339844 13.246093-29.585938 29.582031-29.585938 16.339844 0 29.585938 13.246094 29.585938 29.585938zm0 0" fill="#9ad880"/><path d="m434.773438 468.480469 28.105468 24.160156c8.171875 7.019531 20.484375 6.089844 27.507813-2.078125 7.023437-8.171875 6.09375-20.484375-2.078125-27.507812l-28.105469-24.15625c-8.167969-7.023438-20.484375-6.09375-27.507813 2.074218-7.023437 8.171875-6.089843 20.488282 2.078126 27.507813zm0 0" fill="#eab9a4"/><path d="m270.957031 175.636719-26.652343-18.191407c-11.023438-7.527343-14.15625-22.402343-7.101563-33.734374l11.992187-19.261719c7.34375-11.792969 22.917969-15.300781 34.605469-7.789063l40.261719 25.871094zm0 0" fill="#dd9f80"/><path d="m339.101562 243.78125 18.191407 26.648438c7.523437 11.027343 22.402343 14.15625 33.734375 7.101562l19.261718-11.992188c11.792969-7.339843 15.296876-22.914062 7.789063-34.605468l-25.871094-40.257813zm0 0" fill="#dd9f80"/><path d="m386.695312 223.398438-10.289062 10.289062c-15.59375 15.59375-40.878906 15.59375-56.476562 0l-38.878907-38.878906c-15.59375-15.597656-15.59375-40.882813 0-56.480469l10.289063-10.285156c15.59375-15.59375 40.878906-15.59375 56.476562 0l38.878906 38.878906c15.59375 15.59375 15.59375 40.878906 0 56.476563zm0 0" fill="#ffde55"/></svg>