<svg height="512pt" viewBox="-69 0 511 512" width="512pt" xmlns="http://www.w3.org/2000/svg"><path d="m263.164062 164.039062-13.484374-63.214843c-6.277344-29.417969-32.664063-50.765625-62.742188-50.765625s-56.460938 21.347656-62.738281 50.765625l-13.484375 63.214843-48.957032-10.445312 13.488282-63.214844c5.4375-25.492187 19.589844-48.558594 39.851562-64.953125 20.261719-16.394531 45.777344-25.425781 71.839844-25.425781 26.066406 0 51.578125 9.03125 71.839844 25.425781 20.261718 16.394531 34.417968 39.460938 39.855468 64.953125l13.488282 63.214844zm0 0" fill="#c6c5ca"/><path d="m186.9375 50.058594c30.078125 0 56.464844 21.347656 62.742188 50.765625l13.484374 63.214843 48.957032-10.445312c-37.527344-110.820312-125.183594-103.535156-125.183594-103.535156zm0 0" fill="#acabb1"/><path d="m110.714844 164.039062 13.484375-63.214843c6.277343-29.417969 32.015625-50.765625 62.738281-50.765625 0 0-87.652344-7.285156-125.179688 103.535156zm0 0" fill="#acabb1"/><path d="m370.09375 291.082031-23.207031-123.058593c-5.039063-26.738282-34.070313-41.5-58.585938-29.695313-26.65625 12.832031-62.347656 25.109375-101.363281 25.109375-39.011719 0-74.703125-12.277344-101.359375-25.109375-24.515625-11.804687-53.546875 2.957031-58.589844 29.695313l-23.203125 123.058593c-21.640625 114.753907 66.375 220.917969 183.152344 220.917969 116.78125 0 204.792969-106.164062 183.15625-220.917969zm0 0" fill="#dd9f80"/><path d="m157.902344 441.003906c-30.464844-51.65625-42.222656-99.460937-46.117188-136.335937-3.664062-34.664063 16.832032-67.667969 49.773438-79.074219 51.714844-17.90625 73.777344-68.121094 73.777344-68.121094-15.199219 3.660156-31.484376 5.964844-48.398438 5.964844-39.015625 0-74.707031-12.277344-101.359375-25.109375-24.515625-11.804687-53.546875 2.957031-58.589844 29.695313l-23.203125 123.058593c-21.640625 114.753907 66.375 220.917969 183.152344 220.917969h.003906c-.003906 0-13.023437-43.835938-29.039062-70.996094zm0 0" fill="#c68d6d"/><path d="m186.9375 243.402344c76.960938 0 142.613281-41.730469 163.5-56.546875l-3.550781-18.832031c-5.039063-26.738282-34.070313-41.5-58.585938-29.695313-26.65625 12.832031-62.347656 25.109375-101.363281 25.109375-39.011719 0-74.703125-12.277344-101.359375-25.109375-24.515625-11.804687-53.546875 2.957031-58.589844 29.695313l-3.550781 18.832031c20.886719 14.816406 86.542969 56.546875 163.5 56.546875zm0 0" fill="#eaeaea"/><path d="m3.199219 357.46875c11.527343 66.621094 59.007812 122.53125 123.1875 144.523438 1.5-116.484376-77.820313-140.378907-123.1875-144.523438zm0 0" fill="#d8d7da"/><path d="m370.679688 357.46875c-45.367188 4.144531-124.714844 28.046875-123.210938 144.53125 64.179688-21.988281 111.679688-77.910156 123.210938-144.53125zm0 0" fill="#eaeaea"/><path d="m216.832031 334.855469c4.65625-6.398438 7.308594-14.347657 7.035157-22.925781-.605469-18.855469-15.742188-34.492188-34.574219-35.660157-21.46875-1.332031-39.300781 15.6875-39.300781 36.871094 0 8.175781 2.65625 15.730469 7.152343 21.851563 2.273438 3.097656 2.960938 7.085937 1.984375 10.804687l-9.558594 36.472656c-4.46875 17.039063 8.386719 33.699219 26.003907 33.699219h22.726562c17.617188 0 30.472657-16.660156 26.003907-33.699219l-9.558594-36.472656c-.988282-3.777344-.210938-7.785156 2.085937-10.941406zm0 0" fill="#74747c"/><path d="m189.292969 314.667969c12.320312.765625 23.058593 7.726562 29.183593 17.726562 3.625-5.925781 5.628907-12.953125 5.390626-20.46875-.605469-18.855469-15.742188-34.492187-34.574219-35.660156-21.46875-1.332031-39.300781 15.6875-39.300781 36.875 0 7.035156 1.96875 13.613281 5.382812 19.210937 6.863281-11.261718 19.574219-18.574218 33.917969-17.683593zm0 0" fill="#616166"/><path d="m161.558594 225.59375c51.714844-17.90625 73.777344-68.121094 73.777344-68.121094-15.199219 3.660156-31.484376 5.964844-48.398438 5.964844-39.015625 0-74.707031-12.277344-101.359375-25.109375-24.515625-11.804687-53.546875 2.957031-58.589844 29.695313l-3.550781 18.832031c16.371094 11.613281 60.230469 39.757812 115.492188 51.382812 6.601562-5.398437 14.210937-9.730469 22.628906-12.644531zm0 0" fill="#d8d7da"/></svg>