<svg height="512pt" viewBox="-29 0 512 512" width="512pt" xmlns="http://www.w3.org/2000/svg"><path d="m416.335938 265.152344-20.824219-21.246094c-8.132813-8.300781-19.894531-11.945312-31.292969-9.703125l-62.464844 12.292969c-11.398437 2.242187-20.902344 10.074218-25.28125 20.832031l-11.21875 27.554687c-6.234375 15.304688-7.855468 32.09375-4.664062 48.308594l14.675781 74.574219c4.601563 23.386719 27.292969 38.617187 50.679687 34.015625l93.660157-18.429688c23.390625-4.601562 38.621093-27.292968 34.019531-50.683593l-14.675781-74.574219c-3.1875-16.210938-11.050781-31.140625-22.613281-42.941406zm-67.136719 57.589844c-22.226563 4.375-42.660157-4.363282-45.644531-19.519532-2.980469-15.15625 12.621093-30.984375 34.847656-35.359375 22.226562-4.371093 42.660156 4.367188 45.644531 19.519531 2.980469 15.15625-12.621094 30.988282-34.847656 35.359376zm0 0" fill="#fce6d4"/><path d="m362.464844 318.46875c-4.039063 1.871094-8.496094 3.335938-13.261719 4.273438-22.230469 4.375-42.664063-4.367188-45.644531-19.519532-2.984375-15.15625 12.617187-30.988281 34.84375-35.359375 2.480468-.488281 4.933594-.8125 7.347656-.984375-4.132812-10.40625-8.183594-19.367187-11.769531-26.726562l-32.222657 6.339844c-11.398437 2.242187-20.902343 10.074218-25.285156 20.835937l-11.21875 27.554687c-6.230468 15.300782-7.851562 32.09375-4.660156 48.308594l14.671875 74.570313c4.601563 23.390625 27.292969 38.621093 50.683594 34.019531l48.128906-9.472656c3.179687-46.648438-2.726563-88.871094-11.613281-123.839844zm0 0" fill="#efd4bf"/><path d="m313.277344 278.5625c-18.429688-61.558594-69.855469-73.21875-72.035156-73.683594l.230468.046875 9.949219-51.210937c3.421875.667968 84.121094 17.34375 111.832031 109.882812 4.132813 13.800782-3.558594 28.875-17.503906 32.46875-17.882812 4.605469-29.371094-7.148437-32.472656-17.503906zm0 0" fill="#dd9f80"/><path d="m256.722656 106.644531h-192.105468v-67.492187c0-21.621094 17.53125-39.152344 39.15625-39.152344h113.792968c21.625 0 39.15625 17.53125 39.15625 39.152344zm0 0" fill="#dd9f80"/><path d="m170.324219 0h-66.550781c-21.625 0-39.15625 17.53125-39.15625 39.152344v67.492187h66.554687v-67.492187c0-21.621094 17.53125-39.152344 39.152344-39.152344zm0 0" fill="#c68d6d"/><path d="m271.640625 179.140625h-221.941406l-28.851563 54.351563c-13.691406 25.785156-20.847656 54.53125-20.847656 83.722656v120.46875c0 41.042968 33.273438 74.316406 74.316406 74.316406h172.703125c41.042969 0 74.320313-33.273438 74.320313-74.316406v-120.46875c0-29.191406-7.160156-57.9375-20.847656-83.722656zm0 0" fill="#abebf4"/><path d="m296.199219 225.40625-24.558594-46.265625h-221.941406l-28.851563 54.351563c-13.691406 25.785156-20.847656 54.53125-20.847656 83.722656v120.46875c0 41.042968 33.273438 74.316406 74.316406 74.316406h29.828125c-21.417969-47.019531-22.105469-112.6875-18.394531-161.519531 2.660156-34.992188 29.867188-63.359375 64.777344-66.957031 89.640625-9.234376 145.671875-58.117188 145.671875-58.117188zm0 0" fill="#8ed7e8"/><path d="m244.054688 163.824219h-166.769532c-25.835937 0-46.78125-20.945313-46.78125-46.78125 0-25.835938 20.945313-46.78125 46.78125-46.78125h166.769532c25.835937 0 46.78125 20.945312 46.78125 46.78125 0 25.835937-20.945313 46.78125-46.78125 46.78125zm0 0" fill="#ccf8ff"/><path d="m104.144531 117.042969c0-25.835938 20.945313-46.78125 46.78125-46.78125h-73.640625c-25.835937 0-46.78125 20.945312-46.78125 46.78125 0 25.835937 20.945313 46.78125 46.78125 46.78125h73.640625c-25.835937 0-46.78125-20.945313-46.78125-46.78125zm0 0" fill="#abebf4"/><path d="m276.039062 204.570312h-230.738281c-14.039062 0-25.425781-11.382812-25.425781-25.429687 0-14.039063 11.382812-25.425781 25.425781-25.425781h230.738281c14.042969 0 25.425782 11.382812 25.425782 25.425781s-11.382813 25.429687-25.425782 25.429687zm0 0" fill="#eab9a4"/><path d="m116.707031 179.140625c0-14.039063 11.382813-25.425781 25.429688-25.425781h-96.835938c-14.039062 0-25.425781 11.382812-25.425781 25.425781s11.382812 25.429687 25.425781 25.429687h96.835938c-14.046875 0-25.429688-11.386718-25.429688-25.429687zm0 0" fill="#dd9f80"/><path d="m321.339844 437.683594v-105.136719s-181.113282 41.355469-318.925782-44.613281c-1.601562 9.640625-2.414062 19.441406-2.414062 29.28125v120.46875c0 41.042968 33.273438 74.316406 74.320312 74.316406h172.699219c41.046875 0 74.320313-33.273438 74.320313-74.316406zm0 0" fill="#8dc971"/><path d="m85.75 350.480469c.644531-8.46875 2.722656-16.546875 6.003906-23.980469-30.304687-8.382812-60.757812-20.738281-89.339844-38.566406-1.601562 9.640625-2.414062 19.441406-2.414062 29.28125v120.46875c0 41.042968 33.273438 74.316406 74.316406 74.316406h29.828125c-21.417969-47.019531-22.101562-112.6875-18.394531-161.519531zm0 0" fill="#7fb762"/><path d="m321.339844 332.546875s-94.308594 5.921875-157.367188-34.488281c-56.550781-36.246094-130.035156-84.847656-158.84375-19.386719-28.8125 65.460937 147.402344 153.429687 316.210938 53.875zm0 0" fill="#9ad880"/><path d="m5.125 278.671875c-14.058594 31.949219 20.71875 69.257813 79.632812 87.511719.269532-5.386719.609376-10.640625.992188-15.703125 2.464844-32.441407 26.015625-59.183594 57.253906-65.777344-52.570312-32.910156-112.519531-63.648437-137.878906-6.03125zm0 0" fill="#8dc971"/><path d="m94.714844 446.773438c0-13.582032-13.824219-24.589844-30.878906-24.589844-17.050782 0-30.875 11.007812-30.875 24.589844 0 13.578124 13.824218 24.589843 30.875 24.589843 17.054687 0 30.878906-11.011719 30.878906-24.589843zm0 0" fill="#ffa6bb"/><path d="m288.378906 446.773438c0-13.582032-13.824218-24.589844-30.875-24.589844-17.054687 0-30.878906 11.007812-30.878906 24.589844 0 13.578124 13.824219 24.589843 30.878906 24.589843 17.050782 0 30.875-11.011719 30.875-24.589843zm0 0" fill="#ffa6bb"/><g fill="#57565c"><path d="m160.671875 442.78125c-10 0-20-3.234375-28.347656-9.707031-3.371094-2.617188-3.984375-7.46875-1.367188-10.84375 2.613281-3.371094 7.46875-3.984375 10.839844-1.367188 11.113281 8.617188 26.632813 8.617188 37.746094 0 3.371093-2.617187 8.226562-2.003906 10.839843 1.367188 2.617188 3.375 2.003907 8.226562-1.371093 10.84375-8.339844 6.472656-18.339844 9.707031-28.339844 9.707031zm0 0"/><path d="m82.855469 427.957031c-1.730469-2.539062-4.25-2.84375-5.277344-2.84375-1.023437 0-3.589844.277344-5.277344 2.84375-2.34375 3.566407-7.132812 4.558594-10.699219 2.21875-3.566406-2.34375-4.558593-7.132812-2.214843-10.699219 4.039062-6.148437 10.839843-9.816406 18.191406-9.816406 7.355469 0 14.15625 3.667969 18.195313 9.816406 2.34375 3.566407 1.351562 8.355469-2.214844 10.699219-1.308594.855469-7.09375 3.082031-10.703125-2.21875zm0 0"/><path d="m249.039062 427.957031c-1.734374-2.539062-4.253906-2.84375-5.277343-2.84375-1.023438 0-3.589844.277344-5.277344 2.84375-2.34375 3.566407-7.136719 4.558594-10.699219 2.21875-3.566406-2.34375-4.558594-7.132812-2.21875-10.699219 4.039063-6.148437 10.839844-9.816406 18.195313-9.816406 7.351562 0 14.152343 3.667969 18.191406 9.816406 2.34375 3.566407 1.351563 8.355469-2.214844 10.699219-1.308593.855469-7.089843 3.082031-10.699219-2.21875zm0 0"/></g></svg>