<svg height="512pt" viewBox="0 -9 512 511" width="512pt" xmlns="http://www.w3.org/2000/svg"><path d="m420.773438 408.960938 47.636718-47.636719c9.972656-9.96875 26.136719-9.96875 36.109375 0 9.972657 9.972656 9.972657 26.140625 0 36.113281l-47.632812 47.636719zm0 0" fill="#acabb1"/><path d="m430.011719 291.363281-12.980469 12.984375c-6.261719 6.257813-16.410156 6.257813-22.667969 0-6.261719-6.261718-6.261719-16.410156 0-22.671875l22.335938-22.335937c9.929687-9.929688 9.929687-26.179688 0-36.109375-9.933594-9.933594-26.183594-9.933594-36.113281 0l-72.773438 72.773437 95.578125 94.207032 62.734375-62.734376c9.929688-9.933593 9.929688-26.183593 0-36.113281-9.929688-9.933593-26.179688-9.933593-36.113281 0zm0 0" fill="#acabb1"/><path d="m482.875 483.371094c-14.589844 14.589844-38.246094 14.589844-52.835938 0l-241.121093-241.121094 52.832031-52.832031 241.125 241.121093c14.585938 14.589844 14.585938 38.246094 0 52.832032zm0 0" fill="#c6c5ca"/><path d="m188.917969 242.25 113.992187 113.992188c34.902344-45.578126 25.164063-80.503907 25.164063-80.503907l-86.324219-86.320312zm0 0" fill="#acabb1"/><path d="m56.246094 28.625c0 15.53125-12.589844 28.121094-28.121094 28.121094-15.535156 0-28.125-12.589844-28.125-28.121094 0-15.535156 12.589844-28.125 28.125-28.125 15.53125 0 28.121094 12.589844 28.121094 28.125zm0 0" fill="#acabb1"/><path d="m161.1875 54.335938-40.542969 28.738281.054688.078125c-4.957031-6.878906-33.121094-43.703125-57.433594-19.386719-24.316406 24.316406 12.507813 52.476563 19.386719 57.433594l-28.820313 40.488281c-4.621093-3.277344-45.257812-33.21875-48.792969-75.019531-1.242187-14.707031 1.75-36.710938 23.082032-58.042969 21.335937-21.335938 43.339844-24.328125 58.046875-23.085938 41.800781 3.535157 71.742187 44.171876 75.019531 48.796876zm0 0" fill="#c6c5ca"/><path d="m232.855469 233.453125c-20.914063 20.914063-48.6875 33.164063-80.320313 35.425781-27.304687 1.953125-55.472656-3.785156-79.320312-16.160156-37.679688-19.550781-57.476563-52.492188-51.664063-85.964844 5.085938-29.277344 20.867188-43.949218 33.214844-51.101562 32.996094-19.117188 74.609375-4.886719 79.246094-3.199219l-16.980469 46.703125.117188.042969c-7.832032-2.753907-40.292969-11.195313-46.632813 16.058593-3.117187 13.421876 11.671875 26.128907 25.589844 33.351563 29.875 15.5 74.367187 16.941406 101.609375-10.296875zm0 0" fill="#d8d7da"/><path d="m152.535156 268.878906c31.632813-2.261718 59.410156-14.511718 80.320313-35.425781l-35.140625-35.140625c-27.242188 27.238281-71.738282 25.796875-101.613282 10.296875-9.476562-4.917969-19.351562-12.371094-23.707031-20.867187 0 0-1.660156 47.390624 42.433594 79.054687 12.429687 2.257813 25.140625 2.980469 37.707031 2.082031zm0 0" fill="#c6c5ca"/><path d="m232.953125 233.355469c20.914063-20.914063 33.164063-48.6875 35.425781-80.320313 1.953125-27.304687-3.785156-55.472656-16.160156-79.320312-19.550781-37.679688-52.492188-57.476563-85.964844-51.664063-29.277344 5.085938-43.949218 20.867188-51.101562 33.214844-19.117188 32.996094-4.886719 74.609375-3.199219 79.246094l46.703125-16.980469.042969.117188c-2.753907-7.832032-11.195313-40.292969 16.058593-46.632813 13.421876-3.117187 26.128907 11.671875 33.351563 25.589844 15.5 29.875 16.941406 74.367187-10.296875 101.609375zm0 0" fill="#d8d7da"/><path d="m268.378906 153.035156c-2.261718 31.632813-14.511718 59.410156-35.425781 80.320313l-35.140625-35.140625c27.238281-27.242188 25.796875-71.734375 10.296875-101.609375-4.917969-9.476563-12.371094-19.355469-20.867187-23.710938 0 0 47.394531-1.65625 79.054687 42.4375 2.261719 12.425781 2.980469 25.136719 2.082031 37.703125zm0 0" fill="#c6c5ca"/><path d="m318.992188 253.457031-66.035157 66.035157c-13.476562 13.476562-35.324219 13.476562-48.800781 0l-35.035156-35.039063 114.832031-114.832031 35.039063 35.035156c13.476562 13.476562 13.476562 35.324219 0 48.800781zm0 0" fill="#d8d7da"/><path d="m250.546875 273.105469-35.039063-35.039063-46.386718 46.386719 35.035156 35.039063c13.476562 13.476562 35.324219 13.476562 48.800781 0l46.386719-46.390626c-13.476562 13.480469-35.324219 13.480469-48.796875.003907zm0 0" fill="#c6c5ca"/><path d="m306.144531 188.710938-117.933593 117.933593c-14.398438 14.398438-37.746094 14.398438-52.148438 0-14.398438-14.398437-14.398438-37.75 0-52.148437l117.933594-117.933594c14.398437-14.398438 37.75-14.398438 52.148437 0 14.398438 14.402344 14.398438 37.75 0 52.148438zm0 0" fill="#eaeaea"/><path d="m187.636719 255.074219c-14.402344-14.402344-14.402344-37.75 0-52.148438l-51.574219 51.570313c-14.398438 14.398437-14.398438 37.75 0 52.148437 14.402344 14.398438 37.75 14.398438 52.148438 0l51.570312-51.570312c-14.398438 14.398437-37.746094 14.398437-52.144531 0zm0 0" fill="#d8d7da"/><path d="m157.015625 91.625c-22.441406-22.445312-55.386719-25.886719-73.582031-7.691406-18.195313 18.195312-14.753906 51.140625 7.6875 73.582031 22.445312 22.441406 55.386718 25.886719 73.582031 7.6875 18.195313-18.195313 14.753906-51.136719-7.6875-73.578125zm0 0" fill="#ff929f"/></svg>