<svg height="512pt" viewBox="-23 0 512 512.00103" width="512pt" xmlns="http://www.w3.org/2000/svg"><path d="m402.753906 97.777344c-14.890625 0-26.964844-12.074219-26.964844-26.964844 0-14.894531 12.074219-26.964844 26.964844-26.964844l15.921875-20.277344h-390v96.128907h390zm0 0" fill="#fce6d4"/><path d="m115.242188 23.570312h-86.566407v96.128907h88.105469c-12.164062-12.722657-19.660156-29.941407-19.660156-48.890625 0-18.136719 6.863281-34.695313 18.121094-47.238282zm0 0" fill="#efd4bf"/><path d="m238.542969 78.535156h-215.402344c-4.265625 0-7.726563-3.457031-7.726563-7.726562 0-4.265625 3.460938-7.722656 7.726563-7.722656h215.402344c4.265625 0 7.726562 3.457031 7.726562 7.722656 0 4.269531-3.460937 7.726562-7.726562 7.726562zm0 0" fill="#efd4bf"/><path d="m97.542969 63.085938h-74.402344c-4.265625 0-7.726563 3.457031-7.726563 7.722656 0 4.269531 3.460938 7.726562 7.726563 7.726562h74.402344c-.277344-2.539062-.421875-5.113281-.421875-7.726562 0-2.609375.144531-5.1875.421875-7.722656zm0 0" fill="#e0c1ad"/><path d="m301.394531 78.535156h-26.238281c-4.269531 0-7.726562-3.457031-7.726562-7.726562 0-4.265625 3.457031-7.722656 7.726562-7.722656h26.238281c4.269531 0 7.726563 3.457031 7.726563 7.722656 0 4.269531-3.457032 7.726562-7.726563 7.726562zm0 0" fill="#efd4bf"/><path d="m0 70.808594v370.378906c0 39.046875 31.765625 70.8125 70.8125 70.8125h90.289062v-347.949219zm0 0" fill="#4d6299"/><path d="m70.8125 119.699219v392.300781h312.324219c28.539062 0 51.671875-23.132812 51.671875-51.671875v-340.628906zm0 0" fill="#7e8cc1"/><path d="m70.8125 119.699219v392.300781h145.75c-39.921875-51.476562-54.667969-117.03125-59.695312-168.917969-4.4375-45.789062 15.019531-90.835937 51.851562-118.402343 50.691406-37.9375 77.664062-83.058594 77.664062-83.058594v-21.921875zm0 0" fill="#6678b2"/><path d="m92.796875 413.65625c-7.652344 0-15.035156 1.15625-21.984375 3.296875v95.046875h92.730469c2.5-7.457031 3.875-15.425781 3.875-23.722656 0-41.210938-33.410157-74.621094-74.621094-74.621094zm0 0" fill="#ffde55"/><path d="m434.808594 460.328125v-43.375c-6.949219-2.140625-14.332032-3.296875-21.984375-3.296875-41.210938 0-74.621094 33.410156-74.621094 74.621094 0 8.296875 1.375 16.269531 3.875 23.722656h41.058594c28.539062 0 51.671875-23.132812 51.671875-51.671875zm0 0" fill="#ffeb99"/><path d="m167.417969 165.347656c0-17.199218-5.835938-33.027344-15.613281-45.648437h-80.992188v116.972656c6.949219 2.140625 14.328125 3.296875 21.980469 3.296875 41.214843 0 74.625-33.410156 74.625-74.621094zm0 0" fill="#ffde55"/><path d="m412.824219 239.96875c7.652343 0 15.035156-1.15625 21.984375-3.296875v-116.972656h-80.996094c-9.773438 12.621093-15.609375 28.449219-15.609375 45.648437 0 41.210938 33.410156 74.621094 74.621094 74.621094zm0 0" fill="#ffeb99"/><path d="m412.882812 141.625h-342.070312c-39.046875 0-70.8125-31.769531-70.8125-70.816406 0-39.042969 31.765625-70.808594 70.8125-70.808594h342.074219c12.105469 0 21.921875 9.816406 21.921875 21.921875 0 12.109375-9.816406 21.925781-21.921875 21.925781h-342.074219c-14.867188 0-26.964844 12.09375-26.964844 26.960938 0 14.871094 12.097656 26.96875 26.964844 26.96875h342.074219c12.105469 0 21.921875 9.8125 21.921875 21.921875s-9.816406 21.925781-21.925782 21.925781zm0 0" fill="#909bd1"/><path d="m102.46875 97.777344h-31.65625c-14.867188 0-26.964844-12.097656-26.964844-26.96875 0-14.867188 12.097656-26.960938 26.964844-26.960938h31.65625c10.628906-25.707031 35.964844-43.847656 65.464844-43.847656h-97.121094c-39.046875 0-70.8125 31.765625-70.8125 70.808594 0 39.046875 31.765625 70.816406 70.8125 70.816406h97.121094c-29.5 0-54.835938-18.140625-65.464844-43.847656zm0 0" fill="#7e8cc1"/><path d="m434.808594 369.59375h-51.039063c-23.628906 0-42.78125-19.15625-42.78125-42.78125 0-23.628906 19.152344-42.78125 42.78125-42.78125h51.039063c17.574218 0 31.820312 14.246094 31.820312 31.820312v21.917969c0 17.574219-14.246094 31.824219-31.820312 31.824219zm0 0" fill="#dd9f80"/><path d="m407.539062 326.8125c0 9.832031-7.972656 17.808594-17.808593 17.808594-9.832031 0-17.808594-7.976563-17.808594-17.808594 0-9.835938 7.976563-17.808594 17.808594-17.808594 9.835937 0 17.808593 7.972656 17.808593 17.808594zm0 0" fill="#ffeb99"/><path d="m314.527344 326.8125c0-53.703125-27.632813-97.238281-61.71875-97.238281-34.082032 0-61.714844 43.535156-61.714844 97.238281s27.632812 97.238281 61.714844 97.238281c34.085937 0 61.71875-43.535156 61.71875-97.238281zm0 0" fill="#fff"/></svg>