<svg height="511pt" viewBox="0 -45 511.9998 511" width="511pt" xmlns="http://www.w3.org/2000/svg"><path d="m130.535156 147.246094 11.878906 24.066406c5.839844 11.832031 17.125 20.03125 30.179688 21.929688l26.5625 3.859374c19.15625 2.78125 26.808594 26.328126 12.945312 39.839844l-19.21875 18.734375c-9.449218 9.207031-13.757812 22.476563-11.527343 35.480469l4.535156 26.453125c3.273437 19.078125-16.753906 33.632813-33.890625 24.621094l-23.757812-12.488281c-11.675782-6.140626-25.625-6.140626-37.304688 0l-23.753906 12.488281c-17.136719 9.011719-37.164063-5.542969-33.890625-24.621094l4.535156-26.453125c2.230469-13.003906-2.082031-26.273438-11.527344-35.480469l-19.222656-18.734375c-13.863281-13.511718-6.210937-37.058594 12.945313-39.839844l26.5625-3.859374c13.054687-1.898438 24.339843-10.097657 30.179687-21.929688l11.878906-24.066406c8.566407-17.363282 33.324219-17.363282 41.890625 0zm0 0" fill="#b2e59c"/><path d="m199.15625 197.101562-26.5625-3.859374c-5.179688-.753907-10.085938-2.503907-14.480469-5.070313-12.769531 8.917969-32.367187 16.140625-55.574219 22.589844-49.898437 13.867187-40.890624 52.726562-14.078124 88.617187 6.910156 9.253906 11.84375 18.101563 15.386718 26.171875 8.257813-1.191406 16.808594.203125 24.394532 4.191407l23.757812 12.492187c17.136719 9.007813 37.164062-5.542969 33.890625-24.625l-4.535156-26.453125c-2.230469-13 2.078125-26.269531 11.527343-35.476562l19.21875-18.734376c13.863282-13.515624 6.210938-37.0625-12.945312-39.84375zm0 0" fill="#9ad880"/><path d="m423.355469 147.246094 11.878906 24.066406c5.839844 11.832031 17.125 20.03125 30.179687 21.929688l26.5625 3.859374c19.15625 2.78125 26.808594 26.328126 12.945313 39.839844l-19.21875 18.734375c-9.449219 9.207031-13.761719 22.476563-11.53125 35.480469l4.539063 26.453125c3.273437 19.078125-16.753907 33.632813-33.890626 24.621094l-23.757812-12.488281c-11.675781-6.140626-25.625-6.140626-37.304688 0l-23.757812 12.488281c-17.132812 9.011719-37.160156-5.542969-33.890625-24.621094l4.539063-26.453125c2.230468-13.003906-2.082032-26.273438-11.527344-35.480469l-19.21875-18.734375c-13.863282-13.511718-6.214844-37.058594 12.945312-39.839844l26.558594-3.859374c13.054688-1.898438 24.34375-10.097657 30.179688-21.929688l11.878906-24.066406c8.566406-17.363282 33.324218-17.363282 41.890625 0zm0 0" fill="#abebf4"/><path d="m312.84375 197.101562 26.558594-3.859374c5.183594-.753907 10.089844-2.5 14.480468-5.070313 12.773438 8.917969 32.371094 16.140625 55.578126 22.589844 49.898437 13.867187 40.890624 52.726562 14.078124 88.617187-6.914062 9.253906-11.847656 18.101563-15.390624 26.171875-8.257813-1.191406-16.804688.203125-24.394532 4.191407l-23.753906 12.492187c-17.136719 9.007813-37.164062-5.542969-33.890625-24.625l4.535156-26.453125c2.230469-13.003906-2.078125-26.269531-11.527343-35.480469l-19.21875-18.734375c-13.863282-13.511718-6.210938-37.058594 12.945312-39.839844zm0 0" fill="#8ed7e8"/><path d="m284.085938 169.765625 15.09375 30.585937c7.417968 15.03125 21.761718 25.453126 38.351562 27.863282l33.753906 4.902344c24.34375 3.539062 34.066406 33.457031 16.449219 50.628906l-24.421875 23.808594c-12.007812 11.699218-17.484375 28.5625-14.652344 45.085937l5.765625 33.613281c4.160157 24.246094-21.289062 42.738282-43.066406 31.292969l-30.1875-15.871094c-14.839844-7.804687-32.566406-7.804687-47.40625 0l-30.1875 15.871094c-21.777344 11.445313-47.226563-7.042969-43.070313-31.292969l5.765626-33.613281c2.835937-16.523437-2.644532-33.386719-14.648438-45.085937l-24.421875-23.808594c-17.617187-17.171875-7.894531-47.089844 16.449219-50.628906l33.753906-4.902344c16.589844-2.410156 30.929688-12.832032 38.351562-27.863282l15.09375-30.585937c10.886719-22.0625 42.34375-22.0625 53.234376 0zm0 0" fill="#ffde55"/><g fill="#ffeb99"><path d="m284.746094 29.246094c0 15.875-12.871094 83.859375-28.746094 83.859375s-28.746094-67.984375-28.746094-83.859375 12.871094-28.746094 28.746094-28.746094 28.746094 12.871094 28.746094 28.746094zm0 0"/><path d="m192.507812 67.71875c11.226563 11.222656 34.058594 52.257812 22.832032 63.480469-11.226563 11.226562-52.257813-11.601563-63.484375-22.828125-11.226563-11.226563-11.226563-29.425782 0-40.652344 11.226562-11.226562 29.425781-11.226562 40.652343 0zm0 0"/><path d="m322.425781 67.71875c-11.226562 11.222656-34.058593 52.257812-22.828125 63.480469 11.222656 11.226562 52.257813-11.601563 63.480469-22.828125 11.226563-11.226563 11.226563-29.425782 0-40.652344-11.222656-11.226562-29.425781-11.226562-40.652344 0zm0 0"/></g><path d="m321.140625 315.285156c-4.269531 0-7.726563-3.460937-7.726563-7.726562v-12.828125c0-4.265625 3.457032-7.726563 7.726563-7.726563 4.265625 0 7.726563 3.460938 7.726563 7.726563v12.828125c0 4.265625-3.460938 7.726562-7.726563 7.726562zm0 0" fill="#57565c"/><path d="m193.796875 315.285156c-4.269531 0-7.726563-3.460937-7.726563-7.726562v-12.828125c0-4.265625 3.457032-7.726563 7.726563-7.726563 4.265625 0 7.726563 3.460938 7.726563 7.726563v12.828125c0 4.265625-3.460938 7.726562-7.726563 7.726562zm0 0" fill="#57565c"/><path d="m262.746094 299.839844c-1.734375 2.542968-4.253906 2.847656-5.28125 2.847656-1.023438 0-3.585938-.277344-5.273438-2.847656-2.34375-3.566406-7.136718-4.558594-10.699218-2.214844-3.566407 2.339844-4.558594 7.132812-2.21875 10.699219 4.039062 6.144531 10.839843 9.816406 18.195312 9.816406 7.351562 0 14.152344-3.671875 18.191406-9.816406 2.34375-3.566407 1.351563-8.359375-2.214844-10.699219-1.308593-.859375-7.089843-3.085938-10.699218 2.214844zm0 0" fill="#57565c"/></svg>