<svg height="512pt" viewBox="-40 0 512 512.00029" width="512pt" xmlns="http://www.w3.org/2000/svg"><path d="m337.53125 424.117188c-100.367188 63.648437-200.730469-26.652344-301.097656 3.765624-18.15625 5.503907-36.433594-8.308593-36.433594-27.28125v-307.921874c0-17.464844 11.0625-33.003907 27.550781-38.753907 103.328125-36.054687 206.652344 78.953125 309.980469 13.425781zm0 0" fill="#efd4bf"/><path d="m154.136719 62.746094c10.339843 39.453125 26.742187 118.054687 14.628906 184.335937-11.769531 64.398438-17.761719 141.636719-20.328125 182.832031 63.03125 13.433594 126.0625 34.175782 189.09375-5.800781v-356.761719c-61.132812 38.769532-122.265625 14.34375-183.394531-4.605468zm0 0" fill="#e0c1ad"/><path d="m292.28125 57.355469s16.210938-42 76.96875-56.808594c11.933594-2.90625 23.445312 6.121094 23.445312 18.40625v57.757813zm0 0" fill="#e0c1ad"/><path d="m292.28125 454.644531s16.210938 42 76.96875 56.808594c11.933594 2.90625 23.445312-6.121094 23.445312-18.402344v-57.761719zm0 0" fill="#e0c1ad"/><path d="m431.15625 83.898438c0-25.632813-38.988281-46.410157-87.082031-46.410157s-87.082031 20.777344-87.082031 46.410157v344.203124c0 25.632813 38.988281 46.410157 87.082031 46.410157s87.082031-20.777344 87.082031-46.410157zm0 0" fill="#fce6d4"/><path d="m358.203125 38.097656c5.707031 6.671875 8.902344 14.097656 8.902344 21.910156v.003907 391.980469c0 7.8125-3.195313 15.238281-8.902344 21.910156 41.367187-3.601563 72.953125-22.734375 72.953125-45.800782v-344.203124c0-23.066407-31.585938-42.199219-72.953125-45.800782zm0 0" fill="#efd4bf"/><path d="m178.792969 332.457031 6.574219-22.210937c2.421874-8.183594-2.25-16.78125-10.433594-19.203125s-16.78125 2.25-19.203125 10.433593l-6.574219 22.207032-22.207031-6.570313c-8.183594-2.421875-16.78125 2.25-19.203125 10.429688-2.421875 8.183593 2.246094 16.78125 10.429687 19.203125l22.210938 6.574218-6.574219 22.207032c-2.421875 8.183594 2.25 16.785156 10.433594 19.203125 4.089844 1.210937 8.285156.648437 11.761718-1.238281 3.472657-1.886719 6.226563-5.101563 7.441407-9.191407l6.570312-22.210937 22.210938 6.574218c4.09375 1.210938 8.289062.648438 11.761719-1.238281 3.476562-1.890625 6.230468-5.101562 7.441406-9.195312 2.421875-8.183594-2.246094-16.78125-10.433594-19.203125zm0 0" fill="#ff929f"/><g fill="#898890"><path d="m117.644531 288.335938c-.210937-.183594-5.691406-5.421876-8.566406-8.625-2.847656-3.179688-2.582031-8.0625.597656-10.910157 3.175781-2.847656 8.0625-2.585937 10.910157.59375 2.207031 2.464844 7.183593 7.269531 7.199218 7.285157 3.199219 2.808593 3.765625 7.90625.730469 10.890624-5.375 5.285157-9.746094 1.742188-10.871094.765626zm0 0"/><path d="m87.546875 257.527344c-2.429687-3.476563-4.726563-7.128906-6.820313-10.863282-2.089843-3.71875-.769531-8.429687 2.953126-10.519531 3.71875-2.089843 8.429687-.769531 10.519531 2.953125 1.847656 3.289063 3.871093 6.511719 6.007812 9.570313 2.449219 3.496093 1.609375 8.332031-1.898437 10.757812-4.671875 3.226563-9.257813.246094-10.761719-1.898437zm0 0"/><path d="m68.519531 217.183594c-1.148437-4.03125-2.136719-8.199219-2.949219-12.382813-.808593-4.1875 1.929688-8.242187 6.121094-9.054687s8.242188 1.929687 9.050782 6.121094c.726562 3.75 1.613281 7.480468 2.640624 11.085937 1.167969 4.105469-1.128906 8.726563-5.316406 9.546875-5.019531.980469-8.578125-1.917969-9.546875-5.316406zm0 0"/><path d="m70.476562 181.066406c-5.28125-.1875-7.863281-3.707031-7.726562-7.972656.140625-4.5.617188-8.925781 1.410156-13.160156.785156-4.191406 4.820313-6.957032 9.019532-6.167969 4.191406.785156 6.953124 4.824219 6.167968 9.019531-.648437 3.457032-1.039062 7.089844-1.15625 10.800782-.132812 4.179687-3.5625 7.480468-7.714844 7.480468zm0 0"/><path d="m79.042969 140.109375c-3.359375-2.632813-3.957031-7.484375-1.328125-10.84375 2.804687-3.585937 5.996094-6.890625 9.488281-9.816406 3.269531-2.742188 8.144531-2.316407 10.886719.957031 2.742187 3.269531 2.3125 8.140625-.957032 10.882812-2.667968 2.234376-5.105468 4.757813-7.246093 7.492188-1.523438 1.949219-6.730469 4.554688-10.84375 1.328125zm0 0"/><path d="m206.699219 140.347656c-3.484375-1.804687-6.730469-3.992187-10.0625-5.769531-3.765625-2.007813-5.191407-6.6875-3.183594-10.453125s6.6875-5.1875 10.453125-3.183594c3.605469 1.921875 7.261719 4.019532 10.867188 6.230469 3.640624 2.230469 4.78125 6.988281 2.550781 10.625-1.457031 2.378906-5.375 5.269531-10.625 2.550781zm0 0"/><path d="m170.222656 123.3125c-3.671875-1.191406-7.367187-2.160156-10.96875-2.945312-4.167968-.917969-6.804687-5.035157-5.890625-9.203126.914063-4.167968 5.039063-6.804687 9.203125-5.894531 4.054688.890625 8.203125 2.003907 12.328125 3.3125 4.066407 1.289063 6.320313 5.632813 5.03125 9.699219-1.046875 3.289062-3.898437 6.914062-9.703125 5.03125zm0 0"/><path d="m111.503906 114.035156c-.96875-4.15625 1.621094-8.308594 5.777344-9.277344 4.191406-.972656 8.589844-1.644531 13.066406-1.988281 4.265625-.34375 7.96875 2.851563 8.296875 7.105469.332031 4.253906-2.851562 7.96875-7.105469 8.300781-3.703124.285157-7.328124.824219-10.761718 1.636719-5.582032 1.320312-8.445313-2.210938-9.273438-5.777344zm0 0"/></g></svg>