<svg height="512pt" viewBox="0 0 512 512.00269" width="512pt" xmlns="http://www.w3.org/2000/svg"><path d="m205.820312 408.84375c-3.859374-13.195312-.09375-27.453125 9.628907-37.171875l66.585937-66.585937c8.359375-8.359376 11.492188-20.613282 8.167969-31.960938l-3.804687-12.996094c-3.265626-11.148437 7.460937-21.3125 18.417968-17.449218l10.074219 3.554687c11.742187 4.140625 24.820313 1.171875 33.625-7.632813l23.152344-23.152343c9.722656-9.722657 23.976562-13.488281 37.175781-9.628907 15.566406 4.554688 30.386719 7.132813 40.84375 7.132813 34.40625 0 63.121094-27.898437 62.296875-62.296875-1.125-46.894531-32.320313-60.664062-68.316406-58.289062-13.558594.898437-24.929688-10.476563-24.035157-24.03125 2.375-36-11.394531-67.195313-58.289062-68.320313-34.394531-.824219-62.296875 27.894531-62.296875 62.296875 0 10.457031 2.578125 25.28125 7.132813 40.847656 3.863281 13.195313.09375 27.449219-9.628907 37.171875l-156.21875 156.222657c-9.722656 9.71875-23.976562 13.488281-37.171875 9.628906-15.566406-4.554688-30.386718-7.136719-40.84375-7.136719-34.40625 0-63.121094 27.902344-62.2968748 62.296875 1.1210938 46.898438 32.3203128 60.667969 68.3164068 58.289062 13.558593-.894531 24.929687 10.476563 24.035156 24.035157-2.378906 35.996093 11.390625 67.195312 58.289062 68.316406 34.394532.824219 62.296875-27.890625 62.296875-62.296875 0-10.457031-2.582031-25.277344-7.136719-40.84375zm0 0" fill="#ccf8ff"/><path d="m212.957031 449.6875c0-10.457031-2.582031-25.277344-7.136719-40.84375-3.859374-13.195312-.09375-27.453125 9.628907-37.171875l11.035156-11.035156c-2.519531-7.535157-5.019531-14.640625-7.414063-21.191407-10.34375-28.308593-3.402343-60.039062 17.910157-81.351562l92.578125-92.578125c15.195312-15.191406 23.140625-36.191406 21.699218-57.628906-1.082031-16.117188 1.421876-35.773438 15.40625-50.917969 16.066407-17.40625 36.964844-15.503906 52.160157-10.515625-4.09375-25.921875-20.472657-45.546875-57.480469-46.4335938-34.394531-.8242192-62.296875 27.8906248-62.296875 62.2968748 0 10.457032 2.582031 25.277344 7.136719 40.84375 3.859375 13.195313.089844 27.449219-9.632813 37.171875l-156.21875 156.222657c-9.722656 9.71875-23.976562 13.488281-37.171875 9.628906-15.566406-4.554688-30.386718-7.136719-40.84375-7.136719-34.40625 0-63.121094 27.902344-62.2968748 62.296875 1.1210938 46.898438 32.3203128 60.667969 68.3164068 58.289062 13.558593-.894531 24.929687 10.476563 24.035156 24.035157-2.378906 35.996093 11.390625 67.195312 58.289062 68.316406 34.394532.824219 62.296875-27.890625 62.296875-62.296875zm0 0" fill="#abebf4"/></svg>