<svg height="512pt" viewBox="-75 0 512 512.00084" width="512pt" xmlns="http://www.w3.org/2000/svg"><path d="m312.90625 308.792969 32.957031-29.984375c10.296875-9.375 16.050781-22.734375 15.820313-36.660156-2.101563-126.09375-53.289063-200.230469-83.335938-233.015626-11.441406-12.488281-31.191406-12.117187-42.15625.789063-28.796875 33.890625-77.167968 109.894531-74.539062 235.976563.289062 13.925781 6.539062 27.0625 17.183594 36.039062l34.054687 28.730469-19.582031 7.691406c-11.6875 4.589844-12.496094 20.824219-1.320313 26.550781l72.265625 37.027344 70.824219-39.710938c10.953125-6.140624 9.539063-22.332031-2.3125-26.480468zm0 0" fill="#b2e59c"/><path d="m321.1875 350.015625c-25.941406-18.125-52.828125-47.976563-65.152344-96.675781-14.984375-59.226563-50.265625-102.414063-79.289062-129.46875-9.785156 33.796875-16.089844 74.328125-15.09375 122.03125.289062 13.921875 6.539062 27.058594 17.183594 36.039062l34.054687 28.730469-19.582031 7.691406c-11.6875 4.589844-12.496094 20.820313-1.320313 26.546875l72.265625 37.03125zm0 0" fill="#9ad880"/><path d="m257.089844.0078125c-7.738282.1445315-15.417969 3.4609375-20.898438 9.9140625-28.796875 33.890625-77.167968 109.894531-74.539062 235.980469.289062 13.921875 6.539062 27.058594 17.183594 36.039062l34.054687 28.726563-19.582031 7.695312c-11.6875 4.589844-12.496094 20.820313-1.320313 26.546875l72.265625 37.03125zm0 0" fill="#9ad880"/><path d="m264.253906 381.941406-2.039062-108.726562c-2.328125-6.246094-4.40625-12.871094-6.179688-19.875-14.984375-59.222656-50.265625-102.410156-79.289062-129.464844-9.785156 33.796875-16.089844 74.328125-15.09375 122.027344.289062 13.921875 6.539062 27.058594 17.183594 36.039062l34.054687 28.730469-19.585937 7.691406c-11.6875 4.589844-12.492188 20.824219-1.316407 26.546875zm0 0" fill="#8dc971"/><path d="m265.394531 442.8125c-10.859375.203125-19.832031-8.4375-20.035156-19.300781l-6.054687-322.816407c-.203126-10.863281 8.4375-19.835937 19.296874-20.039062 10.863282-.203125 19.835938 8.4375 20.039063 19.300781l6.054687 322.816407c.203126 10.863281-8.4375 19.832031-19.300781 20.039062zm0 0" fill="#ffde55"/><path d="m185.8125 368.851562 22.347656-38.546874c6.984375-12.046876 8.425782-26.523438 3.996094-39.726563-40.125-119.558594-111.328125-174.75-149.882812-196.917969-14.683594-8.441406-33.394532-2.117187-39.945313 13.5-17.203125 41.007813-40.332031 128.082032.292969 247.46875 4.484375 13.183594 14.414062 23.816406 27.273437 29.160156l41.148438 17.089844-16.34375 13.25c-9.75 7.910156-5.613281 23.625 6.769531 25.707032l80.078125 13.449218 55.507813-59.269531c8.582031-9.164063 2.339843-24.167969-10.210938-24.539063zm0 0" fill="#dfaeff"/><path d="m39.25 91.386719c-7.332031 2.476562-13.648438 7.964843-16.921875 15.773437-17.203125 41.007813-40.332031 128.082032.292969 247.46875 4.484375 13.183594 14.414062 23.816406 27.273437 29.15625l41.148438 17.089844-16.34375 13.253906c-9.75 7.910156-5.613281 23.625 6.769531 25.707032l80.078125 13.449218zm0 0" fill="#cf92ff"/><path d="m181.039062 510.960938c-10.292968 3.476562-21.453124-2.046876-24.933593-12.339844l-103.367188-305.878906c-3.476562-10.292969 2.046875-21.457032 12.339844-24.933594 10.292969-3.480469 21.453125 2.042968 24.933594 12.335937l103.367187 305.882813c3.476563 10.292968-2.046875 21.453125-12.339844 24.933594zm0 0" fill="#ffde55"/><path d="m241.390625 211.917969 3.96875 211.59375c.203125 10.863281 9.175781 19.503906 20.035156 19.300781 10.863281-.207031 19.503907-9.175781 19.296875-20.039062l-2.078125-110.867188c-11.121093-15.601562-20.578125-34.847656-26.578125-58.566406-3.746094-14.8125-8.773437-28.617188-14.644531-41.421875zm0 0" fill="#ffcd00"/></svg>