<svg height="512pt" viewBox="-25 0 512 512.00103" width="512pt" xmlns="http://www.w3.org/2000/svg"><path d="m178.820312 322.191406h195.773438v118.894532h-195.773438zm0 0" fill="#6a6a72"/><path d="m365.050781 269.582031-4.234375 145.242188-17.019531-.605469c0-15.855469-12.851563-28.710938-28.710937-28.710938-15.859376 0-28.710938 12.855469-28.710938 28.710938h-40.785156c0-15.855469-12.851563-28.710938-28.710938-28.710938s-28.710937 12.855469-28.710937 28.710938l-18.859375.335938-.695313 32.699218c-.757812 35.53125 27.835938 64.746094 63.378907 64.746094h135.941406c40.160156 0 72.71875-32.558594 72.71875-72.71875v-169.699219zm0 0" fill="#abebf4"/><path d="m360.816406 414.824219-17.019531-.605469c0-15.855469-12.851563-28.710938-28.710937-28.710938-4.863282 0-9.445313 1.210938-13.460938 3.34375 0 0 18.414062 3.328126 18.414062 29.640626 0 21.277343-9.574218 65.613281 15.445313 93.507812h32.449219c40.160156 0 72.71875-32.558594 72.71875-72.71875v-169.699219h-75.601563zm0 0" fill="#8ed7e8"/><path d="m461.015625 167.105469c0-92.289063-74.8125-167.105469-167.101563-167.105469-92.289062 0-167.105468 74.816406-167.105468 167.105469v54.003906c0 10.421875-5.734375 19.867187-14.75 25.09375-21.546875 12.5-34.808594 36.933594-31.789063 63.261719 3.078125 26.855468 22.210938 47.960937 46.71875 54.847656 7.167969 2.015625 12.128907 8.535156 12.128907 15.984375v26.402344c0 15.859375 12.851562 28.714843 28.710937 28.714843 15.855469 0 28.710937-12.855468 28.710937-28.714843v-33.058594c0-11.28125 9.148438-20.429687 20.429688-20.429687 11.285156 0 20.429688 9.148437 20.429688 20.429687v33.058594c0 15.859375 12.855468 28.714843 28.710937 28.714843 15.859375 0 28.714844-12.855468 28.714844-28.714843v-33.058594c0-11.28125 9.144531-20.429687 20.429687-20.429687 11.28125 0 20.429688 9.148437 20.429688 20.429687v33.058594c0 15.859375 12.851562 28.714843 28.710937 28.714843s28.710938-12.855468 28.710938-28.714843v-36.011719c0-10.851562 5.65625-20.921875 14.921875-26.574219l11.574218-7.0625c25.722657-15.6875 41.414063-43.636719 41.414063-73.765625zm0 0" fill="#ccf8ff"/><path d="m461.015625 263.285156v-96.179687c0-92.289063-74.8125-167.105469-167.101563-167.105469-11.800781 0-23.332031 1.226562-34.441406 3.554688 0 0 77.644532 20.480468 84.949219 143.398437.582031 9.742187-3.292969 19.300781-10.761719 25.585937-9.59375 8.074219-20.78125 24.761719-13.902344 56.429688 0-.484375 4.828126 14.886719 10.265626 32.324219-18.050782 13.273437-28.683594 35.578125-25.949219 59.433593 1.417969 12.371094 6.246093 23.503907 13.429687 32.609376 10.21875 1.125 18.175782 9.789062 18.175782 20.304687v33.058594c0 15.859375 12.855468 28.714843 28.714843 28.714843 15.855469 0 28.710938-12.855468 28.710938-28.714843v-36.007813c0-10.855468 5.65625-20.925781 14.921875-26.578125l11.574218-7.058593c25.722657-15.691407 41.414063-43.644532 41.414063-73.769532zm0 0" fill="#abebf4"/><path d="m289.511719 291.414062c0 13.144532-10.652344 23.796876-23.796875 23.796876-13.140625 0-23.796875-10.652344-23.796875-23.796876 0-13.140624 10.65625-38.074218 23.796875-38.074218 13.144531 0 23.796875 24.933594 23.796875 38.074218zm0 0" fill="#898890"/><path d="m265.714844 253.339844c-4.335938 0-8.402344 2.714844-11.902344 6.824218 7.109375 8.347657 11.902344 22.445313 11.902344 31.25 0 8.808594-4.792969 16.496094-11.902344 20.609376 3.5 2.027343 7.566406 3.1875 11.902344 3.1875 13.144531 0 23.800781-10.652344 23.800781-23.796876-.003906-13.140624-10.65625-38.074218-23.800781-38.074218zm0 0" fill="#6a6a72"/><path d="m219.964844 236.214844c0-26.546875-15-48.0625-33.507813-48.0625-18.503906 0-33.507812 21.515625-33.507812 48.0625 0 26.542968 15.003906 48.058594 33.507812 48.058594 18.507813 0 33.507813-21.515626 33.507813-48.058594zm0 0" fill="#898890"/><path d="m186.457031 188.152344c-5.050781 0-9.84375 1.605468-14.140625 4.476562 11.441406 7.648438 19.386719 24.285156 19.386719 43.585938 0 19.296875-7.945313 35.933594-19.386719 43.582031 4.296875 2.871094 9.089844 4.476563 14.140625 4.476563 18.507813 0 33.507813-21.515626 33.507813-48.058594 0-26.546875-15-48.0625-33.507813-48.0625zm0 0" fill="#6a6a72"/><path d="m378.480469 236.214844c0-26.546875-15-48.0625-33.507813-48.0625-18.503906 0-33.507812 21.515625-33.507812 48.0625 0 26.542968 15.003906 48.058594 33.507812 48.058594 18.507813 0 33.507813-21.515626 33.507813-48.058594zm0 0" fill="#898890"/><path d="m344.972656 188.152344c-5.050781 0-9.84375 1.605468-14.140625 4.476562 11.441407 7.648438 19.386719 24.285156 19.386719 43.585938 0 19.300781-7.945312 35.9375-19.386719 43.585937 4.296875 2.871094 9.089844 4.472657 14.140625 4.472657 18.507813 0 33.507813-21.515626 33.507813-48.058594 0-26.546875-15-48.0625-33.507813-48.0625zm0 0" fill="#6a6a72"/><path d="m38.570312 188.152344h-26.28125c-9.6875 0-15.304687 10.96875-9.640624 18.828125l20.5625 28.542969-21.042969 30.054687c-5.511719 7.875.121093 18.695313 9.734375 18.695313h26.667968c12.738282 0 24.605469-6.457032 31.519532-17.152344l19.976562-30.90625-19.976562-30.90625c-6.914063-10.695313-18.78125-17.15625-31.519532-17.15625zm0 0" fill="#b2e59c"/><path d="m181.640625 253.339844h-125.140625c-9.84375 0-17.820312-7.976563-17.820312-17.816406 0-9.839844 7.976562-17.816407 17.820312-17.816407h125.140625c9.839844 0 17.816406 7.976563 17.816406 17.816407 0 9.839843-7.976562 17.816406-17.816406 17.816406zm0 0" fill="#dd9f80"/><path d="m181.640625 217.707031h-63.898437c9.839843 0 17.816406 7.976563 17.816406 17.816407 0 9.839843-7.976563 17.816406-17.816406 17.816406h63.898437c9.839844 0 17.816406-7.976563 17.816406-17.816406 0-9.839844-7.976562-17.816407-17.816406-17.816407zm0 0" fill="#c68d6d"/></svg>