<svg height="512pt" viewBox="0 0 512.00068 512" width="512pt" xmlns="http://www.w3.org/2000/svg"><path d="m277.328125 383.933594-43.277344-105.984375-105.984375-43.273438c-26.933594-11-58.015625-3.691406-76.894531 18.441407-34.070313 39.949218-74.300781 111.320312-34.871094 199.574218 8.535157 19.113282 23.894531 34.472656 43.007813 43.007813 88.253906 39.425781 159.628906-.800781 199.574218-34.871094 22.132813-18.878906 29.441407-49.960937 18.445313-76.894531zm0 0" fill="#d8d7da"/><path d="m234.75 479.054688c8.976562-5.949219 17.050781-12.1875 24.132812-18.226563 22.132813-18.878906 29.441407-49.960937 18.445313-76.894531l-43.277344-105.984375-105.984375-43.277344c-26.933594-10.996094-58.015625-3.6875-76.894531 18.445313-6.039063 7.082031-12.273437 15.15625-18.222656 24.128906 45.09375 4.480468 93.902343 27.710937 133.996093 67.808594 40.097657 40.09375 63.328126 88.902343 67.804688 134zm0 0" fill="#c6c5ca"/><path d="m128.066406 234.675781c-26.933594-11-58.015625-3.691406-76.894531 18.441407-34.070313 39.945312-74.300781 111.320312-34.871094 199.574218 4.269531 9.558594 10.242188 18.175782 17.539063 25.46875l200.210937-200.210937zm0 0" fill="#c6c5ca"/><path d="m234.050781 277.949219-105.984375-43.273438c-26.933594-11-58.015625-3.691406-76.894531 18.441407-6.039063 7.082031-12.273437 15.15625-18.222656 24.132812 45.09375 4.476562 93.902343 27.707031 133.996093 67.804688zm0 0" fill="#acabb1"/><path d="m113.574219 398.425781c-13.042969-13.042969-13.042969-34.191406 0-47.234375l217.339843-217.335937 47.234376 47.230469-217.339844 217.339843c-13.042969 13.042969-34.191406 13.042969-47.234375 0zm0 0" fill="#dd9f80"/><path d="m269.113281 195.652344c24.535157 10.894531 45.214844 24.652344 59.257813 35.207031l49.773437-49.773437-47.230469-47.230469zm0 0" fill="#c68d6d"/><path d="m352.332031 195.871094-36.203125-36.203125c-12.992187-12.992188-12.992187-34.0625 0-47.058594l30.910156-30.910156 83.261719 83.261719-30.910156 30.910156c-12.996094 12.992187-34.066406 12.992187-47.058594 0zm0 0" fill="#d8d7da"/><path d="m316.128906 112.613281c-12.992187 12.992188-12.992187 34.0625 0 47.058594l20.414063 20.414063c8.0625-11.351563 24.742187-15.808594 37.792969-6.246094 13.027343 9.546875 24.4375 13.6875 31.605468 15.480468l24.359375-24.359374-83.261719-83.257813zm0 0" fill="#c6c5ca"/><path d="m392.734375 163.753906-44.488281-44.488281c-24.351563-24.351563-24.351563-63.972656.003906-88.324219l12.675781-12.675781c24.351563-24.351563 63.972657-24.351563 88.324219 0l44.488281 44.484375c24.351563 24.351562 24.351563 63.976562 0 88.328125l-12.675781 12.675781c-24.351562 24.351563-63.976562 24.351563-88.328125 0zm20.519531-109.492187c-4.503906-4.5-11.828125-4.5-16.332031 0l-12.675781 12.675781c-4.5 4.503906-4.5 11.828125 0 16.332031l44.488281 44.484375c4.5 4.503906 11.828125 4.503906 16.328125 0l12.675781-12.675781c4.503907-4.5 4.503907-11.824219 0-16.328125zm0 0" fill="#eaeaea"/><path d="m384.246094 66.9375 12.675781-12.675781c24.351563-24.351563 64.476563-23.847657 88.828125.503906l-36.5-36.5c-24.351562-24.351563-63.972656-24.355469-88.328125 0l-12.675781 12.675781c-24.351563 24.351563-24.351563 63.972656 0 88.324219l36.5 36.503906c-24.347656-24.351562-24.851563-64.480469-.5-88.832031zm0 0" fill="#d8d7da"/></svg>