<svg height="512pt" viewBox="-52 0 512 512" width="512pt" xmlns="http://www.w3.org/2000/svg"><path d="m203.734375 512c-16.203125 0-29.335937-13.132812-29.335937-29.332031v-453.335938c0-16.199219 13.132812-29.332031 29.335937-29.332031 16.199219 0 29.332031 13.132812 29.332031 29.332031v453.335938c0 16.199219-13.132812 29.332031-29.332031 29.332031zm0 0" fill="#dd9f80"/><path d="m174.398438 282.039062v160.246094c24.054687-2.582031 43.367187-9.304687 58.667968-17.5625v-142.683594zm0 0" fill="#c68d6d"/><path d="m379.734375 134.398438h-352c-15.316406 0-27.734375-12.414063-27.734375-27.734376 0-15.316406 12.417969-27.730468 27.734375-27.730468h352c15.316406 0 27.734375 12.414062 27.734375 27.730468 0 15.320313-12.417969 27.734376-27.734375 27.734376zm0 0" fill="#eab9a4"/><path d="m321.507812 78.933594h-235.550781v199.953125c0 22.847656 11.238281 44.234375 30.046875 57.195312l64.015625 44.113281c14.277344 9.835938 33.152344 9.835938 47.429688 0l64.015625-44.113281c18.808594-12.960937 30.046875-34.347656 30.046875-57.195312v-199.953125zm0 0" fill="#ff929f"/><path d="m85.957031 78.933594v199.953125c0 22.847656 11.238281 44.234375 30.046875 57.199219l64.015625 44.109374c7.140625 4.917969 15.425781 7.378907 23.714844 7.378907v-308.640625zm0 0" fill="#ff737d"/><path d="m252.667969 194.65625c-11.480469-11.554688-29.085938-13.285156-42.398438-5.1875-3.949219 2.402344-8.894531 2.507812-12.832031.085938-13.296875-8.175782-30.933594-6.503907-42.453125 5.015624-13.472656 13.476563-13.472656 35.320313 0 48.796876l31.519531 31.519531c9.542969 9.542969 25.015625 9.542969 34.558594 0l31.253906-31.253907c13.484375-13.484374 13.789063-35.445312.351563-48.976562zm0 0" fill="#fff"/><path d="m203.734375 282.039062v-90.722656c-2.183594.003906-4.363281-.574218-6.296875-1.761718-13.296875-8.175782-30.933594-6.503907-42.453125 5.015624-13.472656 13.472657-13.472656 35.320313 0 48.796876l31.519531 31.519531c4.757813 4.757812 10.992188 7.140625 17.230469 7.152343zm0 0" fill="#ccf8ff"/></svg>