<svg height="512pt" viewBox="-92 0 512 512" width="512pt" xmlns="http://www.w3.org/2000/svg"><path d="m289.691406 137.632812v-104.566406h-252.074218v104.566406c0 46.476563 28.148437 86.734376 69.207031 106.375 10.390625 4.972657 10.390625 19.011719 0 23.980469-41.058594 19.640625-69.207031 59.902344-69.207031 106.378907v104.566406h252.074218v-104.566406c0-46.476563-28.148437-86.738282-69.207031-106.378907-10.394531-4.96875-10.394531-19.007812 0-23.980469 41.058594-19.640624 69.207031-59.898437 69.207031-106.375zm0 0" fill="#ccf8ff"/><path d="m37.617188 33.066406v104.5625c0 46.480469 28.148437 86.738282 69.207031 106.378906 10.390625 4.972657 10.390625 19.011719 0 23.984376-41.058594 19.640624-69.207031 59.898437-69.207031 106.378906v104.5625h67.046874c-15.6875-56.449219-20.722656-117.722656 10.554688-157.914063 36.214844-46.535156 34.007812-96.703125 22.972656-135.070312-8.878906-30.867188 11.617188-62.269531 43.441406-66.601563 73.367188-9.984375 108.058594-40.414062 108.058594-40.414062v-45.867188zm0 0" fill="#abebf4"/><path d="m170.570312 118.046875c-58.195312-23.035156-109.089843-10.769531-132.953124-2.136719v21.722656c0 46.476563 28.148437 86.734376 69.207031 106.375.003906.003907 35.207031 12.25 35.207031 38.066407.226562 0 .234375 9.140625.179688 18.566406-.0625 11.234375 9.554687 20.378906 21.441406 20.378906 11.886718 0 21.503906-9.140625 21.441406-20.378906-.050781-9.425781-.046875-18.566406.179688-18.566406 0-25.816407 35.203124-38.0625 35.210937-38.066407 41.054687-19.640624 69.203125-59.898437 69.203125-106.375.003906 0-78.996094-3.703124-119.117188-19.585937zm0 0" fill="#efd4bf"/><path d="m170.570312 118.046875c-58.195312-23.035156-109.09375-10.769531-132.953124-2.136719v21.722656c0 46.476563 28.148437 86.734376 69.203124 106.375.007813.003907 26.171876 9.089844 33.382813 28.148438 8.660156-30.917969 5.210937-61.082031-2.015625-86.210938-8.394531-29.1875 9.578125-58.878906 38.457031-65.679687-2-.722656-4.089843-1.433594-6.074219-2.21875zm0 0" fill="#e0c1ad"/><path d="m185.09375 367.429688c0-11.242188-9.640625-20.355469-21.53125-20.355469s-21.53125 9.113281-21.53125 20.355469c0 11.242187 9.640625 20.355468 21.53125 20.355468s21.53125-9.113281 21.53125-20.355468zm0 0" fill="#efd4bf"/><path d="m108.183594 452.253906h110.941406s-16.40625-38.410156-55.472656-38.410156c-39.0625 0-55.46875 38.410156-55.46875 38.410156zm0 0" fill="#efd4bf"/><path d="m294.242188 66.132812h-261.175782c-18.261718 0-33.066406-14.804687-33.066406-33.066406 0-18.261718 14.804688-33.066406 33.066406-33.066406h261.175782c18.261718 0 33.066406 14.804688 33.066406 33.066406 0 18.261719-14.804688 33.066406-33.066406 33.066406zm0 0" fill="#dd9f80"/><path d="m100.148438 33.066406c0-18.261718 14.804687-33.066406 33.070312-33.066406h-100.152344c-18.261718 0-33.066406 14.804688-33.066406 33.066406 0 18.261719 14.804688 33.066406 33.066406 33.066406h100.152344c-18.265625 0-33.070312-14.804687-33.070312-33.066406zm0 0" fill="#c68d6d"/><path d="m294.242188 445.867188h-261.175782c-18.261718 0-33.066406 14.804687-33.066406 33.066406 0 18.261718 14.804688 33.066406 33.066406 33.066406h261.175782c18.261718 0 33.066406-14.804688 33.066406-33.066406 0-18.261719-14.804688-33.066406-33.066406-33.066406zm0 0" fill="#dd9f80"/><path d="m100.148438 478.933594c0-18.261719 14.804687-33.066406 33.070312-33.066406h-100.152344c-18.261718 0-33.066406 14.804687-33.066406 33.066406 0 18.261718 14.804688 33.066406 33.066406 33.066406h100.152344c-18.265625 0-33.070312-14.804688-33.070312-33.066406zm0 0" fill="#c68d6d"/><g fill="#57565c"><path d="m246.746094 186.929688c-4.269532 0-7.726563-3.457032-7.726563-7.722657v-12.828125c0-4.265625 3.457031-7.726562 7.726563-7.726562 4.265625 0 7.726562 3.460937 7.726562 7.726562v12.828125c0 4.265625-3.460937 7.722657-7.726562 7.722657zm0 0"/><path d="m80.5625 186.929688c-4.269531 0-7.726562-3.457032-7.726562-7.722657v-12.828125c0-4.265625 3.457031-7.726562 7.726562-7.726562s7.726562 3.460937 7.726562 7.726562v12.828125c0 4.265625-3.457031 7.722657-7.726562 7.722657zm0 0"/><path d="m163.652344 195.023438c-10 0-20-3.238282-28.34375-9.710938-3.371094-2.613281-3.984375-7.46875-1.367188-10.839844 2.613282-3.371094 7.46875-3.984375 10.839844-1.371094 11.109375 8.621094 26.632812 8.621094 37.746094 0 3.371094-2.613281 8.222656-2 10.839844 1.371094 2.613281 3.371094 2 8.226563-1.371094 10.839844-8.34375 6.472656-18.34375 9.710938-28.34375 9.710938zm0 0"/></g></svg>