<svg height="511pt" viewBox="0 -77 511.99933 511" width="511pt" xmlns="http://www.w3.org/2000/svg"><path d="m13.609375 182.035156s-35.585937 77.984375 8.328125 101.457032c43.914062 23.472656 91.613281-21.199219 91.613281-21.199219l-32.074219-80.257813zm0 0" fill="#ba9280"/><path d="m101.71875 182.023438s-33.03125-45.6875-67.246094-31.53125c-12.003906 4.964843-19.507812 13.566406-24.1875 22.636718-9.484375 18.378906 2.285156 40.339844 22.847656 42.5625 22.984376 2.484375 53.09375-1.519531 68.585938-33.667968zm0 0" fill="#cca996"/><path d="m498.390625 182.035156s35.585937 77.984375-8.328125 101.457032c-43.917969 23.472656-91.617188-21.199219-91.617188-21.199219l32.078126-80.257813zm0 0" fill="#cca996"/><path d="m410.28125 182.023438s33.03125-45.6875 67.246094-31.53125c12.003906 4.964843 19.503906 13.566406 24.1875 22.636718 9.484375 18.378906-2.285156 40.339844-22.847656 42.5625-22.984376 2.484375-53.09375-1.519531-68.585938-33.667968zm0 0" fill="#e0c1ad"/><path d="m395.9375 94.191406h-279.875s-46.53125 43.496094-62.785156 113.351563c-15.410156 66.25 29.441406 131.484375 96.738281 141.363281 30.582031 4.488281 67.03125 8.023438 105.984375 8.023438s75.402344-3.535157 105.984375-8.023438c67.296875-9.878906 112.148437-75.113281 96.738281-141.363281-16.253906-69.855469-62.785156-113.351563-62.785156-113.351563zm0 0" fill="#efd4bf"/><path d="m375.105469 94.191406h-259.042969s-46.53125 43.496094-62.785156 113.351563c-15.410156 66.25 29.441406 131.484375 96.738281 141.363281 12.199219 1.789062 25.339844 3.429688 39.191406 4.753906 6.128907-21.402344 23.6875-38.34375 46.335938-43.316406 29.953125-6.574219 45.277343-32.660156 45.277343-32.660156s-7.578124-20.550782-8.660156-19.800782c70.75-17.289062 96.191406-126.035156 102.945313-163.691406zm0 0" fill="#e0c1ad"/><path d="m256.109375 15.394531c-52.496094 0-94.785156 9.914063-126.082031 21.332031-43.085938 15.714844-58.105469 69.566407-29.011719 105.023438 27.449219 33.453125 74.804687 66.09375 155.097656 66.09375 79.515625 0 126.726563-32.007812 154.292969-65.121094 29.894531-35.910156 14.984375-90.359375-28.949219-106.265625-31.21875-11.304687-73.257812-21.0625-125.347656-21.0625zm0 0" fill="#fce6d4"/><path d="m268.703125 207.570312c-22.421875-15.273437-68.109375-49.105468-98.257813-89.832031-41.269531-55.75 13.242188-95.691406 13.242188-95.691406-20.445312 3.878906-38.371094 9.101563-53.660156 14.679687-43.085938 15.714844-58.105469 69.566407-29.015625 105.023438 27.449219 33.457031 74.804687 66.09375 155.097656 66.09375 4.289063 0 8.492187-.09375 12.59375-.273438zm0 0" fill="#efd4bf"/><path d="m256 286.507812c-21.726562 0-39.335938-17.613281-39.335938-39.335937v-215.316406c0-17.316407 14.039063-31.355469 31.355469-31.355469h15.960938c17.316406 0 31.355469 14.039062 31.355469 31.355469v215.316406c0 21.722656-17.609376 39.335937-39.335938 39.335937zm0 0" fill="#dd9f80"/><path d="m272.160156 241.722656c0 8.925782-7.234375 16.160156-16.160156 16.160156s-16.160156-7.234374-16.160156-16.160156c0-8.925781 7.234375-16.160156 16.160156-16.160156s16.160156 7.234375 16.160156 16.160156zm0 0" fill="#898890"/><path d="m86.304688 227.496094c-13.089844 0-25.371094 3.425781-36.027344 9.40625 1.394531 52.984375 39.375 99.867187 93.21875 110.859375 10.339844-12.691407 16.542968-28.882813 16.542968-46.53125 0-40.722657-33.011718-73.734375-73.734374-73.734375zm0 0" fill="#b2785b"/><path d="m461.71875 236.910156c-10.652344-5.980468-22.957031-9.414062-36.042969-9.414062-40.722656 0-73.738281 33.011718-73.738281 73.734375 0 17.648437 6.210938 33.84375 16.550781 46.535156 53.84375-10.992187 91.839844-57.871094 93.230469-110.855469zm0 0" fill="#c68d6d"/></svg>