<svg height="512pt" viewBox="-118 0 512 512.00103" width="512pt" xmlns="http://www.w3.org/2000/svg"><path d="m60.820312 269.441406c-3.484374-20.617187-18.972656-35.191406-34.59375-32.550781-15.621093 2.640625-25.457031 21.496094-21.972656 42.117187 3.488282 20.617188 18.976563 35.191407 34.59375 32.550782 15.621094-2.640625 25.457032-21.496094 21.972656-42.117188zm0 0" fill="#8dc971"/><path d="m214.628906 269.445312c-3.488281 20.621094 6.351563 39.476563 21.96875 42.117188 15.621094 2.640625 31.109375-11.933594 34.597656-32.554688 3.484376-20.617187-6.351562-39.472656-21.972656-42.113281s-31.109375 11.933594-34.59375 32.550781zm0 0" fill="#9ad880"/><path d="m146.582031 39.835938c-13.921875 0-25.207031 11.289062-25.207031 25.210937v22.835937c0 10.609376-8.601562 19.210938-19.210938 19.210938-10.605468 0-19.207031-8.601562-19.207031-19.210938v-62.671874c0-13.925782-11.285156-25.210938-25.210937-25.210938-13.921875 0-25.210938 11.285156-25.210938 25.210938v153.734374h139.257813v-113.898437c0-13.921875-11.285157-25.210937-25.210938-25.210937zm0 0" fill="#ffeb99"/><path d="m202.359375 346.996094h-129.277344s31.398438 24.402344 31.398438 67.667968c0 43.257813-10.816407 97.335938-10.816407 97.335938h88.113282s-10.816406-54.078125-10.816406-97.335938c.003906-43.265624 31.398437-67.667968 31.398437-67.667968zm0 0" fill="#c6c5ca"/><path d="m73.082031 346.996094s27.3125 21.234375 30.992188 59.191406c31.03125.015625 53.5625-5.707031 69.476562-12.628906 7.515625-29.996094 28.808594-46.5625 28.808594-46.5625zm0 0" fill="#acabb1"/><path d="m25.035156 191.820312 10.476563 87.324219c6.210937 51.734375 50.101562 90.675781 102.210937 90.675781s96-38.941406 102.207032-90.675781l10.480468-87.324219zm0 0" fill="#d8d7da"/><path d="m35.511719 279.144531c6.210937 51.734375 50.101562 90.675781 102.210937 90.675781 2.773438 0 5.550782-.113281 8.277344-.332031-23.394531-14.222656-36.484375-33.855469-43.726562-52.78125-10.730469-28.046875 6.46875-59.136719 35.933593-64.914062 53.625-10.519531 66.007813-37.046875 66.007813-37.046875v-22.925782h-179.179688zm0 0" fill="#c6c5ca"/><path d="m239.640625 214.746094h-203.839844c-19.773437 0-35.800781-16.027344-35.800781-35.800782 0-19.769531 16.027344-35.796874 35.800781-35.796874h203.839844c19.773437 0 35.800781 16.027343 35.800781 35.796874 0 19.773438-16.027344 35.800782-35.800781 35.800782zm0 0" fill="#ff929f"/><path d="m73.082031 178.945312c0-19.769531 16.027344-35.796874 35.796875-35.796874h-73.078125c-19.773437 0-35.800781 16.027343-35.800781 35.796874 0 19.769532 16.027344 35.800782 35.800781 35.800782h73.078125c-19.769531 0-35.796875-16.027344-35.796875-35.800782zm0 0" fill="#ff737d"/><path d="m192.730469 512h-110.015625c-14.164063 0-25.648438-11.480469-25.648438-25.648438 0-14.164062 11.480469-25.644531 25.648438-25.644531h110.015625c14.164062 0 25.648437 11.480469 25.648437 25.644531-.003906 14.167969-11.484375 25.648438-25.648437 25.648438zm0 0" fill="#eaeaea"/><path d="m114.132812 486.351562c0-14.164062 11.480469-25.644531 25.644532-25.644531h-57.0625c-14.164063 0-25.648438 11.480469-25.648438 25.644531 0 14.167969 11.480469 25.648438 25.648438 25.648438h57.0625c-14.164063 0-25.644532-11.480469-25.644532-25.648438zm0 0" fill="#d8d7da"/><path d="m166.40625 281.808594c0-20.910156-12.84375-37.863282-28.683594-37.863282-15.84375 0-28.6875 16.953126-28.6875 37.863282 0 20.914062 12.84375 37.863281 28.6875 37.863281 15.839844 0 28.683594-16.949219 28.683594-37.863281zm0 0" fill="#ccf8ff"/><path d="m229.425781 87.882812c-13.925781 0-25.210937-11.285156-25.210937-25.210937v-20.996094c0-13.921875 11.285156-25.210937 25.210937-25.210937 13.921875 0 25.207031 11.289062 25.207031 25.210937v21c0 13.921875-11.285156 25.207031-25.207031 25.207031zm0 0" fill="#ffde55"/></svg>