<svg height="512pt" viewBox="-44 0 512 512.0011" width="512pt" xmlns="http://www.w3.org/2000/svg"><path d="m361.859375 191.578125h-58.898437l27.53125-98.933594c7.183593-25.804687-12.222657-51.347656-39.007813-51.347656h-127.855469c-24.515625 0-45.222656 18.207031-48.363281 42.523437l-25.46875 197.238282c-3.515625 27.230468 17.691406 51.355468 45.148437 51.355468h65.746094l-3.175781 156.84375c-.46875 23 30.015625 31.5 41.519531 11.574219l150.671875-261.027343c12.371094-21.4375-3.097656-48.226563-27.847656-48.226563zm0 0" fill="#ffde55"/><path d="m361.859375 191.578125h-58.898437l27.53125-98.933594c7.183593-25.804687-12.222657-51.347656-39.007813-51.347656h-70.410156c-8.074219 11.027344-13.550781 25.996094-12.429688 46.207031 3.113281 55.988282 44.554688 79.328125 31.300781 145.832032-3.648437 18.3125 10.480469 35.363281 29.15625 35.363281 0 0 25.949219-1.449219 25.949219 27.824219l-8.496093 121.984374 103.152343-178.707031c12.371094-21.433593-3.097656-48.222656-27.847656-48.222656zm0 0" fill="#ffcd00"/><path d="m356.683594 11.136719 7.9375 14.503906c7.914062 14.472656 19.808594 26.367187 34.28125 34.285156l14.507812 7.933594c14.84375 8.121094 14.84375 29.441406 0 37.5625l-14.507812 7.933594c-14.46875 7.914062-26.367188 19.8125-34.28125 34.28125l-7.9375 14.507812c-8.117188 14.847657-29.441406 14.847657-37.5625 0l-7.933594-14.507812c-7.914062-14.46875-19.8125-26.367188-34.28125-34.28125l-14.507812-7.933594c-14.847657-8.121094-14.847657-29.441406 0-37.5625l14.507812-7.933594c14.46875-7.914062 26.367188-19.8125 34.28125-34.285156l7.933594-14.503906c8.121094-14.847657 29.445312-14.847657 37.5625 0zm0 0" fill="#ffeb99"/><path d="m62.273438 356.816406 4.683593 8.570313c4.675781 8.546875 11.703125 15.574219 20.25 20.25l8.570313 4.6875c8.769531 4.796875 8.769531 17.390625 0 22.1875l-8.570313 4.6875c-8.546875 4.671875-15.574219 11.703125-20.25 20.25l-4.683593 8.566406c-4.796876 8.769531-17.394532 8.769531-22.191407 0l-4.683593-8.566406c-4.675782-8.546875-11.703126-15.578125-20.25-20.25l-8.570313-4.6875c-8.769531-4.796875-8.769531-17.390625 0-22.1875l8.570313-4.6875c8.546874-4.675781 15.574218-11.703125 20.25-20.25l4.683593-8.570313c4.796875-8.769531 17.394531-8.769531 22.191407 0zm0 0" fill="#ffcd00"/></svg>