<svg height="511pt" viewBox="0 -80 511.99953 511" width="511pt" xmlns="http://www.w3.org/2000/svg"><path d="m38.039062 204.5625c25.433594.226562 71.589844-4.625 106.964844-52.445312 51.449219-69.554688 114.335938-151.28125 229.625-107.558594 115.289063 43.722656 101.949219 186.308594 101.949219 186.308594s-177.324219 182-456.984375 42.003906c-19.214844-9.621094-25.535156-33.992188-13.382812-51.71875 0 0 11.523437-16.773438 31.828124-16.589844zm0 0" fill="#8ed7e8"/><path d="m178.65625 202.160156c-74.671875 97.5625-159.058594 70.710938-159.058594 70.710938 149.292969 74.738281 269.417969 57.710937 348.976563 25.59375l-5.011719-135.789063s-110.230469-58.082031-184.90625 39.484375zm0 0" fill="#7ac1dd"/><path d="m485.84375 174.628906c-15.882812-11.476562-35.175781-14.523437-52.679688-10.113281-9.800781 2.46875-20.261718.148437-27.894531-6.476563-15.351562-13.328124-36.085937-20.320312-57.84375-17.585937-23.449219 2.941406-42.957031 16.542969-54.277343 35.328125-4.46875 7.414062-12.832032 11.628906-21.386719 10.296875-15.191407-2.371094-31.296875.738281-45.125 10.03125-28.554688 19.191406-36.515625 58.316406-17.761719 87.160156 9.972656 15.34375 25.472656 24.941407 42.195312 27.878907 7.691407 1.347656 14.410157 6.113281 18.355469 12.851562 7.664063 13.085938 20.765625 22.886719 36.859375 25.820312 14.214844 2.59375 28.140625-.636718 39.328125-8 8.632813-5.679687 19.730469-5.445312 28.402344.175782 14.292969 9.265625 32.730469 11.632812 49.703125 4.722656 18.121094-7.375 30.058594-23.480469 32.9375-41.484375 1.480469-9.238281 7.660156-17.121094 16.304688-20.691406 11.691406-4.835938 22.082031-13.21875 29.390624-24.832031 17.691407-28.09375 10.398438-65.632813-16.507812-85.082032zm0 0" fill="#ccf8ff"/><path d="m129.007812 88.882812c-2.703124 16.035157-21.777343 49.917969-37.8125 47.214844-16.039062-2.699218-22.964843-40.960937-20.265624-57 2.703124-16.035156 17.890624-26.847656 33.929687-24.144531 16.039063 2.699219 26.847656 17.890625 24.148437 33.929687zm0 0" fill="#8ed7e8"/><path d="m211.011719 35.933594c-6.238281 11.785156-29.816407 33.230468-41.597657 26.996094-11.785156-6.234376-7.308593-37.792969-1.074218-49.578126 6.234375-11.78125 20.84375-16.277343 32.625-10.042968 11.785156 6.234375 16.28125 20.84375 10.046875 32.625zm0 0" fill="#7ac1dd"/><g fill="#abebf4"><path d="m325.324219 245.292969c-25.425781-43.902344 11.285156-102.664063 11.285156-102.664063-18.597656 5.203125-33.929687 17.34375-43.460937 33.152344-4.46875 7.414062-12.832032 11.632812-21.382813 10.300781-15.191406-2.371093-31.300781.738281-45.128906 10.03125-28.554688 19.191407-36.511719 58.316407-17.761719 87.160157 9.972656 15.34375 25.472656 24.941406 42.195312 27.878906 7.691407 1.347656 14.410157 6.113281 18.355469 12.847656 7.664063 13.089844 20.765625 22.886719 36.859375 25.824219 14.214844 2.597656 28.140625-.636719 39.328125-8 8.632813-5.679688 19.730469-5.445313 28.402344.175781 13.792969 8.941406 31.4375 11.453125 47.910156 5.414062-5.960937-61.769531-73.882812-62.894531-96.601562-102.121093zm0 0"/><path d="m394.378906 213.195312c0 9.355469-7.585937 16.9375-16.941406 16.9375s-16.9375-7.582031-16.9375-16.9375c0-9.355468 7.582031-16.941406 16.9375-16.941406s16.941406 7.585938 16.941406 16.941406zm0 0"/><path d="m428.257812 263.613281c0 9.355469-7.582031 16.941407-16.9375 16.941407-9.355468 0-16.941406-7.585938-16.941406-16.941407s7.585938-16.941406 16.941406-16.941406c9.355469 0 16.9375 7.585937 16.9375 16.941406zm0 0"/><path d="m470.0625 219.789062c0 9.355469-7.582031 16.941407-16.941406 16.941407-9.355469 0-16.9375-7.585938-16.9375-16.941407 0-9.355468 7.582031-16.941406 16.9375-16.941406 9.359375 0 16.941406 7.585938 16.941406 16.941406zm0 0"/></g></svg>