<svg height="512pt" viewBox="-26 0 512 512.00073" width="512pt" xmlns="http://www.w3.org/2000/svg"><path d="m32.53125 382.15625s-27.039062 40.113281-21.300781 89.402344c2.792969 23.972656 18.023437 42.601562 40.558593 40.238281 23.09375-2.421875 35.523438-28.855469 28.953126-51.125-5.28125-17.894531-6.945313-43.890625 1.269531-81.253906-5.703125-1.773438-49.480469 2.738281-49.480469 2.738281zm0 0" fill="#8dc971"/><path d="m82.007812 379.417969c-5.699218-1.773438-49.476562 2.738281-49.476562 2.738281s-12.433594 18.441406-18.648438 45.695312c12.667969 13.007813 33.304688 25.472657 66.855469 32.816407-5.277343-17.890625-6.941406-43.886719 1.269531-81.25zm0 0" fill="#7fb762"/><path d="m149.523438 116.679688c72.15625.078124 137.953124-37.152344 181.300781-69.289063 25.160156-18.65625 61.0625-2.71875 63.992187 28.464844 8.09375 86.148437 5.757813 227.144531-77.800781 312.050781-56.03125 56.925781-165.636719 113.917969-267.71875 13.449219-102.082031-100.472657-34.367187-284.816407 100.226563-284.675781zm0 0" fill="#b2e59c"/><path d="m373.109375 43.863281c-11.117187 36.613281-40.375 108.675781-105.5 144.886719-75.84375 42.171875-188.210937 73.929688-235.078125 193.40625 4.976562 6.671875 10.554688 13.085938 16.761719 19.199219 102.085937 100.46875 211.691406 43.476562 267.71875-13.449219 83.5625-84.90625 85.898437-225.902344 77.800781-312.054688-1.386719-14.765624-10.167969-26.113281-21.703125-31.988281zm0 0" fill="#9ad880"/><g fill="#ffeb99"><path d="m137.609375 10.523438 7.5 13.707031c7.476563 13.675781 18.722656 24.917969 32.394531 32.398437l13.710938 7.5c14.03125 7.671875 14.03125 27.820313 0 35.496094l-13.710938 7.496094c-13.671875 7.480468-24.917968 18.722656-32.394531 32.398437l-7.5 13.710938c-7.671875 14.027343-27.824219 14.027343-35.496094 0l-7.5-13.710938c-7.476562-13.675781-18.722656-24.917969-32.394531-32.398437l-13.710938-7.496094c-14.03125-7.675781-14.03125-27.824219 0-35.496094l13.710938-7.5c13.671875-7.480468 24.917969-18.722656 32.394531-32.398437l7.5-13.707031c7.671875-14.03125 27.824219-14.03125 35.496094 0zm0 0"/><path d="m414.683594 391.507812 5.410156 9.894532c5.398438 9.867187 13.515625 17.984375 23.386719 23.382812l9.894531 5.410156c10.125 5.539063 10.125 20.085938 0 25.621094l-9.894531 5.414063c-9.871094 5.398437-17.988281 13.511719-23.386719 23.382812l-5.410156 9.894531c-5.539063 10.128907-20.082032 10.128907-25.621094 0l-5.414062-9.894531c-5.394532-9.871093-13.511719-17.984375-23.382813-23.382812l-9.894531-5.414063c-10.125-5.535156-10.125-20.082031 0-25.621094l9.894531-5.410156c9.871094-5.398437 17.988281-13.515625 23.382813-23.382812l5.414062-9.894532c5.539062-10.128906 20.082031-10.128906 25.621094 0zm0 0"/></g></svg>