<svg height="512pt" viewBox="0 -162 512 512" width="512pt" xmlns="http://www.w3.org/2000/svg"><path d="m417.734375 188.53125h-323.46875c-52.0625 0-94.265625-42.207031-94.265625-94.265625 0-52.0625 42.203125-94.265625 94.265625-94.265625h323.46875c52.0625 0 94.265625 42.203125 94.265625 94.265625 0 52.058594-42.203125 94.265625-94.265625 94.265625zm0 0" fill="#898890"/><path d="m177.402344 94.265625c0-52.0625 42.203125-94.265625 94.265625-94.265625h-177.402344c-52.0625 0-94.265625 42.203125-94.265625 94.265625 0 52.058594 42.203125 94.265625 94.265625 94.265625h177.402344c-52.0625 0-94.265625-42.207031-94.265625-94.265625zm0 0" fill="#77767c"/><path d="m475.773438 94.265625c0 32.054687-25.984376 58.039063-58.039063 58.039063s-58.039063-25.984376-58.039063-58.039063 25.984376-58.039063 58.039063-58.039063 58.039063 25.984376 58.039063 58.039063zm0 0" fill="#abebf4"/><path d="m401.769531 94.265625c-19.957031-15.152344-15.433593-38.367187-10.5-51.667969-18.738281 9.625-31.574219 29.152344-31.574219 51.667969 0 32.054687 25.984376 58.039063 58.039063 58.039063 4.402344 0 8.6875-.488282 12.808594-1.417969-2.210938-15.285157-8.855469-41.5-28.773438-56.621094zm0 0" fill="#8ed7e8"/><path d="m440.640625 86.539062h-15.179687v-15.179687c0-4.265625-3.460938-7.726563-7.726563-7.726563s-7.726563 3.460938-7.726563 7.726563v15.179687h-15.175781c-4.269531 0-7.726562 3.457032-7.726562 7.726563 0 4.265625 3.457031 7.726563 7.726562 7.726563h15.175781v15.175781c0 4.269531 3.460938 7.726562 7.726563 7.726562s7.726563-3.457031 7.726563-7.726562v-15.175781h15.179687c4.265625 0 7.726563-3.460938 7.726563-7.726563 0-4.269531-3.460938-7.726563-7.726563-7.726563zm0 0" fill="#fff"/><path d="m138.511719 59.363281c-10.378907-10.449219-26.300781-12.011719-38.339844-4.691406-3.570313 2.171875-8.039063 2.265625-11.601563.078125-12.023437-7.390625-27.96875-5.878906-38.386718 4.535156-12.183594 12.183594-12.183594 31.941406 0 44.125l28.5 28.5c8.628906 8.628906 22.621094 8.628906 31.25 0l28.261718-28.261718c12.191407-12.191407 12.464844-32.046876.316407-44.285157zm0 0" fill="#ff929f"/><path d="m228.082031 134.175781c-4.265625 0-7.726562-3.457031-7.726562-7.726562v-45.71875l-13.425781 13.429687c-3.015626 3.015625-7.910157 3.015625-10.925782 0-3.015625-3.019531-3.015625-7.910156 0-10.929687l26.617188-26.617188c2.207031-2.207031 5.535156-2.867187 8.417968-1.671875 2.886719 1.195313 4.769532 4.011719 4.769532 7.136719v64.371094c0 4.269531-3.457032 7.726562-7.726563 7.726562zm0 0" fill="#fff"/><path d="m275.324219 134.175781c-14.210938 0-25.773438-11.5625-25.773438-25.777343v-28.269532c0-14.210937 11.5625-25.773437 25.773438-25.773437 14.214843 0 25.777343 11.5625 25.777343 25.773437v28.269532c0 14.214843-11.5625 25.777343-25.777343 25.777343zm0-64.371093c-5.691407 0-10.324219 4.632812-10.324219 10.324218v28.269532c0 5.691406 4.632812 10.324218 10.324219 10.324218 5.695312 0 10.324219-4.632812 10.324219-10.324218v-28.269532c0-5.691406-4.628907-10.324218-10.324219-10.324218zm0 0" fill="#fff"/><path d="m75.0625 88.28125c-11.117188-17.289062-4.5625-30.078125 2.679688-37.648438-9.695313-1.722656-20.066407 1.160157-27.554688 8.652344-12.183594 12.183594-12.183594 31.9375 0 44.125l28.5 28.5c8.628906 8.628906 22.617188 8.628906 31.246094 0l4.800781-4.800781c-10.90625-14.367187-26.761719-18.746094-39.671875-38.828125zm0 0" fill="#ff737d"/></svg>