<svg height="512pt" viewBox="0 -162 512 512" width="512pt" xmlns="http://www.w3.org/2000/svg"><path d="m417.734375 188.53125h-323.46875c-52.0625 0-94.265625-42.207031-94.265625-94.265625 0-52.0625 42.203125-94.265625 94.265625-94.265625h323.46875c52.0625 0 94.265625 42.203125 94.265625 94.265625 0 52.058594-42.203125 94.265625-94.265625 94.265625zm0 0" fill="#898890"/><path d="m177.402344 94.265625c0-52.0625 42.203125-94.265625 94.265625-94.265625h-177.402344c-52.0625 0-94.265625 42.203125-94.265625 94.265625 0 52.058594 42.203125 94.265625 94.265625 94.265625h177.402344c-52.0625 0-94.265625-42.207031-94.265625-94.265625zm0 0" fill="#77767c"/><path d="m475.773438 94.265625c0 32.054687-25.984376 58.039063-58.039063 58.039063s-58.039063-25.984376-58.039063-58.039063 25.984376-58.039063 58.039063-58.039063 58.039063 25.984376 58.039063 58.039063zm0 0" fill="#abebf4"/><path d="m401.769531 94.265625c-19.957031-15.152344-15.4375-38.367187-10.5-51.667969-18.738281 9.625-31.574219 29.152344-31.574219 51.667969 0 32.054687 25.984376 58.039063 58.039063 58.039063 4.402344 0 8.6875-.488282 12.808594-1.417969-2.210938-15.285157-8.855469-41.5-28.773438-56.621094zm0 0" fill="#8ed7e8"/><g fill="#fff"><path d="m440.640625 86.539062h-15.179687v-15.179687c0-4.265625-3.460938-7.726563-7.726563-7.726563s-7.726563 3.460938-7.726563 7.726563v15.179687h-15.175781c-4.269531 0-7.726562 3.457032-7.726562 7.726563 0 4.265625 3.457031 7.726563 7.726562 7.726563h15.175781v15.175781c0 4.269531 3.460938 7.726562 7.726563 7.726562s7.726563-3.457031 7.726563-7.726562v-15.175781h15.179687c4.265625 0 7.726563-3.460938 7.726563-7.726563 0-4.269531-3.460938-7.726563-7.726563-7.726563zm0 0"/><path d="m201.28125 134.175781c-4.265625 0-7.726562-3.457031-7.726562-7.726562v-45.71875l-13.425782 13.429687c-3.019531 3.015625-7.910156 3.015625-10.929687 0-3.015625-3.019531-3.015625-7.910156 0-10.929687l26.617187-26.617188c2.210938-2.207031 5.535156-2.867187 8.421875-1.671875 2.886719 1.195313 4.769531 4.011719 4.769531 7.136719v64.371094c0 4.269531-3.460937 7.726562-7.726562 7.726562zm0 0"/><path d="m248.523438 134.175781c-14.214844 0-25.777344-11.5625-25.777344-25.777343v-28.269532c0-14.210937 11.566406-25.773437 25.777344-25.773437 14.214843 0 25.777343 11.5625 25.777343 25.773437v28.269532c0 14.214843-11.5625 25.777343-25.777343 25.777343zm0-64.371093c-5.691407 0-10.324219 4.632812-10.324219 10.324218v28.269532c0 5.691406 4.632812 10.324218 10.324219 10.324218 5.691406 0 10.324218-4.632812 10.324218-10.324218v-28.269532c0-5.691406-4.632812-10.324218-10.324218-10.324218zm0 0"/><path d="m310.5 134.175781c-14.214844 0-25.777344-11.5625-25.777344-25.777343v-28.269532c0-14.210937 11.5625-25.773437 25.777344-25.773437 14.210938 0 25.773438 11.5625 25.773438 25.773437v28.269532c.003906 14.214843-11.5625 25.777343-25.773438 25.777343zm0-64.371093c-5.695312 0-10.324219 4.632812-10.324219 10.324218v28.269532c0 5.691406 4.632813 10.324218 10.324219 10.324218s10.320312-4.632812 10.320312-10.324218v-28.269532c.003907-5.691406-4.628906-10.324218-10.320312-10.324218zm0 0"/></g><path d="m105.816406 46.238281h-23.101562v96.054688h23.101562c17.136719 0 31.027344-21.503907 31.027344-48.027344 0-26.527344-13.890625-48.027344-31.027344-48.027344zm0 0" fill="#ffb600"/><path d="m113.738281 94.265625c0-26.527344-13.890625-48.027344-31.023437-48.027344-17.136719 0-31.027344 21.5-31.027344 48.027344 0 26.523437 13.890625 48.027344 31.027344 48.027344 17.132812 0 31.023437-21.503907 31.023437-48.027344zm0 0" fill="#ffde55"/></svg>