<svg height="512pt" viewBox="0 -162 512 512" width="512pt" xmlns="http://www.w3.org/2000/svg"><path d="m417.734375 188.53125h-323.46875c-52.0625 0-94.265625-42.207031-94.265625-94.265625 0-52.0625 42.203125-94.265625 94.265625-94.265625h323.46875c52.0625 0 94.265625 42.203125 94.265625 94.265625 0 52.058594-42.203125 94.265625-94.265625 94.265625zm0 0" fill="#898890"/><path d="m177.402344 94.265625c0-52.0625 42.203125-94.265625 94.265625-94.265625h-177.402344c-52.0625 0-94.265625 42.203125-94.265625 94.265625 0 52.058594 42.203125 94.265625 94.265625 94.265625h177.402344c-52.0625 0-94.265625-42.207031-94.265625-94.265625zm0 0" fill="#77767c"/><path d="m475.773438 94.265625c0 32.054687-25.984376 58.039063-58.039063 58.039063s-58.039063-25.984376-58.039063-58.039063 25.984376-58.039063 58.039063-58.039063 58.039063 25.984376 58.039063 58.039063zm0 0" fill="#abebf4"/><path d="m401.769531 94.265625c-19.957031-15.152344-15.4375-38.367187-10.5-51.667969-18.738281 9.625-31.574219 29.152344-31.574219 51.667969 0 32.054687 25.984376 58.039063 58.039063 58.039063 4.402344 0 8.6875-.488282 12.808594-1.417969-2.210938-15.285157-8.855469-41.5-28.773438-56.621094zm0 0" fill="#8ed7e8"/><path d="m440.640625 86.539062h-15.179687v-15.179687c0-4.265625-3.460938-7.726563-7.726563-7.726563s-7.726563 3.460938-7.726563 7.726563v15.179687h-15.175781c-4.269531 0-7.726562 3.457032-7.726562 7.726563 0 4.265625 3.457031 7.726563 7.726562 7.726563h15.175781v15.175781c0 4.269531 3.460938 7.726562 7.726563 7.726562s7.726563-3.457031 7.726563-7.726562v-15.175781h15.179687c4.265625 0 7.726563-3.460938 7.726563-7.726563 0-4.269531-3.460938-7.726563-7.726563-7.726563zm0 0" fill="#fff"/><path d="m128.183594 74.714844h-16.632813l7.777344-27.933594c2.027344-7.289062-3.453125-14.5-11.015625-14.5h-36.101562c-6.925782 0-12.773438 5.140625-13.660157 12.007812l-7.191406 55.691407c-.992187 7.691406 4.996094 14.503906 12.75 14.503906h18.566406l-.652343 32.148437c-.199219 9.722657 12.683593 13.3125 17.546874 4.894532l36.476563-63.195313c3.496094-6.050781-.875-13.617187-7.863281-13.617187zm0 0" fill="#ffde55"/><path d="m184.179688 147.621094c-11.734376 0-21.246094-9.511719-21.246094-21.242188v-68.910156c0-11.734375 9.511718-21.246094 21.246094-21.246094 11.730468 0 21.242187 9.511719 21.242187 21.246094v68.910156c0 11.730469-9.511719 21.242188-21.242187 21.242188zm0 0" fill="#dfaeff"/><path d="m248.484375 147.621094c-11.730469 0-21.242187-9.511719-21.242187-21.242188v-68.910156c0-11.734375 9.511718-21.246094 21.242187-21.246094 11.734375 0 21.246094 9.511719 21.246094 21.246094v68.910156c0 11.730469-9.511719 21.242188-21.246094 21.242188zm0 0" fill="#dfaeff"/><path d="m312.792969 147.621094c-11.730469 0-21.242188-9.511719-21.242188-21.242188v-68.910156c0-11.734375 9.511719-21.246094 21.242188-21.246094 11.734375 0 21.246093 9.511719 21.246093 21.246094v68.910156c0 11.730469-9.511718 21.242188-21.246093 21.242188zm0 0" fill="#605f68"/><path d="m93.207031 90.710938c-6.761719-1.820313-11.171875-8.3125-10.375-15.269532l4.933594-43.160156h-15.554687c-6.925782 0-12.773438 5.140625-13.660157 12.007812l-7.191406 55.695313c-.992187 7.6875 4.996094 14.5 12.75 14.5h18.566406l-.652343 32.152344c-.117188 5.640625 4.175781 9.21875 8.746093 9.582031l12.28125-48.714844c3.035157-14.164062-9.84375-16.792968-9.84375-16.792968zm0 0" fill="#ffcd00"/></svg>