<svg height="512pt" viewBox="-1 0 512 512" width="512pt" xmlns="http://www.w3.org/2000/svg"><path d="m41.183594 369.535156-19.605469-23.886718c136.292969-111.867188 205.796875-278.601563 206.484375-280.273438l28.589844 11.742188c-.738282 1.789062-18.40625 44.496093-53.789063 102.035156-32.675781 53.132812-87.25 129.296875-161.679687 190.382812zm0 0" fill="#d8d7da"/><path d="m242.355469 22.449219s188.898437 32.53125 190.113281 204.789062c1.21875 172.253907-190.113281 138.199219-190.113281 138.199219s70.195312-52.296875 70.195312-127.707031c0-107.03125-70.195312-215.28125-70.195312-215.28125zm0 0" fill="#ccf8ff"/><path d="m242.355469 365.4375s128.234375 22.832031 174.070312-63.410156c-25.9375-103.867188-131.347656-193.574219-131.347656-193.574219 14.671875 37.632813 27.472656 83.558594 27.472656 129.277344 0 75.410156-70.195312 127.707031-70.195312 127.707031zm0 0" fill="#abebf4"/><path d="m379.894531 148.714844c-7.207031-30.105469-17.234375-56.492188-26.726562-77.410156-16.863281-12.53125-34.402344-22.0625-50.425781-29.230469 8.566406 13.78125 33.769531 57.5 47.332031 114.808593 9.511719 40.210938 11.519531 79.214844 5.964843 115.921876-4.871093 32.195312-15.648437 62.789062-32.117187 91.363281 13.835937-2.664063 28.058594-6.917969 41.464844-13.523438 10.359375-23.574219 17.488281-48.253906 21.304687-73.855469 6.078125-40.773437 3.792969-83.863281-6.796875-128.074218zm0 0" fill="#ff929f"/><path d="m356.039062 272.804688c-4.875 32.195312-15.648437 62.789062-32.121093 91.363281 13.835937-2.664063 28.058593-6.917969 41.46875-13.523438 10.359375-23.574219 17.488281-48.253906 21.304687-73.855469 1.957032-13.128906 3.046875-26.472656 3.273438-40.042968-10.441406-18.9375-22.445313-36.617188-34.539063-52.449219 4.6875 30.546875 4.898438 60.191406.613281 88.507813zm0 0" fill="#ff737d"/><path d="m263.132812 380.863281h-41.550781v-360.085937c0-11.476563 9.300781-20.777344 20.773438-20.777344 11.476562 0 20.777343 9.300781 20.777343 20.777344zm0 0" fill="#dd9f80"/><path d="m31.378906 357.59375 20.824219 72.308594c13.996094 48.617187 58.480469 82.097656 109.070313 82.097656h168.746093c50.589844 0 95.070313-33.480469 109.070313-82.097656l34.164062-118.648438-218.003906 75.023438zm0 0" fill="#dd9f80"/><path d="m214.167969 453.703125c25.167969-10.53125 38.148437-26.3125 38.148437-26.3125v-41.488281l-220.9375-28.308594 20.824219 72.308594c13.996094 48.617187 58.480469 82.097656 109.070313 82.097656h35.128906c-13.328125-19.675781-6.097656-48.308594 17.765625-58.296875zm0 0" fill="#c68d6d"/><path d="m264.042969 407.894531h-124.003907c-33.269531 0-66.433593-8.144531-95.914062-23.554687l-29.535156-15.441406c-13.296875-6.949219-18.445313-23.367188-11.492188-36.664063 6.949219-13.296875 23.363282-18.441406 36.664063-11.492187l29.539062 15.441406c21.742188 11.367187 46.203125 17.371094 70.738281 17.371094h124.007813c41.542969 0 82.589844-10.851563 118.703125-31.382813l86.832031-49.363281c13.050781-7.417969 29.632813-2.851563 37.050781 10.191406 7.414063 13.042969 2.851563 29.628906-10.191406 37.046875l-86.832031 49.363281c-44.289063 25.179688-94.621094 38.484375-145.566406 38.484375zm0 0" fill="#eab9a4"/><path d="m235.652344 353.558594h-95.613282c-24.535156 0-48.996093-6.007813-70.738281-17.375l-29.539062-15.441406c-13.300781-6.949219-29.714844-1.804688-36.664063 11.492187-6.953125 13.296875-1.808594 29.714844 11.492188 36.664063l29.535156 15.441406c29.480469 15.410156 62.644531 23.554687 95.914062 23.554687h95.613282zm0 0" fill="#dd9f80"/><path d="m208.167969 380.863281c0 27.292969-22.125 49.417969-49.417969 49.417969s-49.417969-22.125-49.417969-49.417969 22.125-49.417969 49.417969-49.417969 49.417969 22.125 49.417969 49.417969zm0 0" fill="#efd4bf"/><path d="m361.972656 380.863281c0 27.292969-22.128906 49.417969-49.421875 49.417969s-49.417969-22.125-49.417969-49.417969 22.125-49.417969 49.417969-49.417969 49.421875 22.125 49.421875 49.417969zm0 0" fill="#efd4bf"/><path d="m285.070312 380.863281c0 27.292969-22.125 49.417969-49.417968 49.417969-27.292969 0-49.421875-22.125-49.421875-49.417969s22.128906-49.417969 49.421875-49.417969c27.292968 0 49.417968 22.125 49.417968 49.417969zm0 0" fill="#fce6d4"/><path d="m312.550781 399.375c-10.207031 0-18.511719-8.304688-18.511719-18.511719s8.304688-18.511719 18.511719-18.511719c10.210938 0 18.515625 8.300782 18.515625 18.511719 0 10.207031-8.304687 18.511719-18.515625 18.511719zm0 0" fill="#ff737d"/><path d="m235.652344 399.375c-10.210938 0-18.515625-8.304688-18.515625-18.511719s8.304687-18.511719 18.515625-18.511719c10.207031 0 18.511718 8.300782 18.511718 18.511719 0 10.207031-8.304687 18.511719-18.511718 18.511719zm0 0" fill="#ff929f"/><path d="m158.75 399.375c-10.207031 0-18.515625-8.304688-18.515625-18.511719s8.304687-18.511719 18.515625-18.511719c10.207031 0 18.511719 8.300782 18.511719 18.511719 0 10.207031-8.304688 18.511719-18.511719 18.511719zm0 0" fill="#ff737d"/></svg>