<svg height="512pt" viewBox="0 -67 512.00088 512" width="512pt" xmlns="http://www.w3.org/2000/svg"><path d="m504.125 178.691406c5.476562-7.824218 8.457031-17.523437 7.78125-27.941406-1.421875-21.941406-19.8125-39.867188-41.777344-40.773438-20.242187-.835937-37.585937 12.09375-43.449218 30.195313-2.191407 6.757813-8.429688 11.375-15.535157 11.375h-65.503906v74.609375h65.503906c7.105469 0 13.34375 4.617188 15.535157 11.378906 5.863281 18.097656 23.207031 31.027344 43.445312 30.195313 21.96875-.90625 40.359375-18.835938 41.78125-40.773438.675781-10.421875-2.304688-20.121093-7.78125-27.945312-4.261719-6.089844-4.261719-14.230469 0-20.320313zm0 0" fill="#ccf8ff"/><path d="m426.675781 140.171875c-2.1875 6.757813-8.429687 11.375-15.535156 11.375h-65.5v74.609375h65.5c7.105469 0 13.347656 4.613281 15.535156 11.375 5.867188 18.097656 23.210938 31.027344 43.449219 30.195312 5.710938-.234374 11.179688-1.621093 16.171875-3.929687-.027344-34.730469-30.824219-56.257813-38.34375-83.035156-9.929687-35.371094 22.171875-70.785157 22.171875-70.785157-20.238281-.835937-37.582031 12.09375-43.449219 30.195313zm0 0" fill="#abebf4"/><path d="m122.042969.136719s288.539062-11.929688 288.539062 188.714843c0 200.640626-288.539062 188.714844-288.539062 188.714844zm0 0" fill="#dd9f80"/><path d="m366.476562 301.992188c-10.964843-3.511719-20.332031-7.898438-28.304687-12.769532-29.339844-17.910156-45.632813-51.066406-42.835937-85.324218 7.980468-97.832032-34.878907-161.308594-66.328126-194.058594-57.765624-11.738282-106.964843-9.703125-106.964843-9.703125v377.429687s163.617187 6.757813 244.433593-75.574218zm0 0" fill="#c68d6d"/><path d="m244.085938 188.851562c0-104.226562-54.640626-188.714843-122.042969-188.714843-67.402344 0-122.042969 84.488281-122.042969 188.714843 0 104.222657 54.640625 188.714844 122.042969 188.714844 67.402343 0 122.042969-84.492187 122.042969-188.714844zm0 0" fill="#fce6d4"/><path d="m122.042969 346.660156c-29.351563 0-50.40625-25.78125-60.34375-41.148437-19.570313-30.261719-30.792969-72.78125-30.792969-116.660157 0-43.878906 11.222656-86.402343 30.792969-116.660156 9.9375-15.367187 30.992187-41.148437 60.34375-41.148437 29.351562 0 50.40625 25.78125 60.34375 41.148437 19.570312 30.257813 30.792969 72.78125 30.792969 116.660156 0 43.878907-11.222657 86.402344-30.792969 116.660157-9.9375 15.367187-30.992188 41.148437-60.34375 41.148437zm0 0" fill="#ffb0d0"/><path d="m122.042969 315.757812c-15.695313 0-30.292969-20.691406-34.394531-27.03125-16.417969-25.390624-25.835938-61.792968-25.835938-99.875 0-38.082031 9.417969-74.484374 25.835938-99.875 4.101562-6.339843 18.699218-27.027343 34.394531-27.027343 15.695312 0 30.292969 20.6875 34.394531 27.027343 16.417969 25.390626 25.835938 61.792969 25.835938 99.875 0 38.082032-9.417969 74.488282-25.835938 99.875-4.101562 6.339844-18.699219 27.03125-34.394531 27.03125zm0 0" fill="#ff97bd"/><path d="m152.984375 188.851562c0-37.800781-13.855469-68.441406-30.941406-68.441406-17.089844 0-30.941407 30.640625-30.941407 68.441406 0 37.796876 13.851563 68.441407 30.941407 68.441407 17.085937 0 30.941406-30.644531 30.941406-68.441407zm0 0" fill="#fff"/></svg>