<svg height="512pt" viewBox="-10 0 512 512" width="512pt" xmlns="http://www.w3.org/2000/svg"><path d="m333.859375 424.984375c0 48.058594-38.957031 87.015625-87.015625 87.015625s-87.015625-38.957031-87.015625-87.015625 38.957031-163.859375 87.015625-163.859375 87.015625 115.800781 87.015625 163.859375zm0 0" fill="#efd4bf"/><path d="m246.84375 261.125c-41.636719 0-76.4375 86.902344-85 141.386719 82.839844 9.976562 135.035156-12.71875 162.972656-31.742188-14.234375-51.113281-43.804687-109.644531-77.972656-109.644531zm0 0" fill="#e0c1ad"/><path d="m422.363281 240.496094c0-56.417969-78.582031-102.15625-175.519531-102.15625s-175.523438 45.738281-175.523438 102.15625c0 56.417968 78.585938 102.152344 175.523438 102.152344s175.519531-45.734376 175.519531-102.152344zm0 0" fill="#fce6d4"/><path d="m246.84375 138.339844c-96.9375 0-175.523438 45.734375-175.523438 102.15625 0 54.632812 73.691407 99.246094 166.378907 102.015625-15.289063-28.324219 5.253906-64.097657 38.703125-64.175781 64.773437-.152344 102.167968 8.359374 121 14.695312 15.847656-15.347656 24.960937-33.324219 24.960937-52.535156 0-56.421875-78.582031-102.15625-175.519531-102.15625zm0 0" fill="#efd4bf"/><path d="m6.980469 159.476562c-23.996094 49.347657 17.300781 105.433594 71.597656 97.53125 52.226563-7.601562 114.914063-14.625 168.265625-14.625 53.347656 0 116.035156 7.023438 168.261719 14.625 54.300781 7.902344 95.59375-48.183593 71.601562-97.53125-36.625-75.328124-107.226562-159.476562-239.863281-159.476562-132.640625 0-203.238281 84.148438-239.863281 159.476562zm0 0" fill="#dd9f80"/><path d="m246.84375 0c-132.640625 0-203.238281 84.148438-239.863281 159.476562-23.996094 49.347657 17.300781 105.433594 71.597656 97.53125 52.226563-7.601562 114.914063-14.625 168.265625-14.625 24.859375 0 51.75 1.527344 78.667969 3.925782-82.382813-61.59375-189.039063-40.371094-185.066407-127.851563 4.359376-95.96875 106.398438-118.457031 106.398438-118.457031zm0 0" fill="#c68d6d"/><path d="m246.84375 190.144531c-15.988281 0-28.949219-12.960937-28.949219-28.949219v-21.046874c0-4.363282 3.539063-7.902344 7.902344-7.902344h42.09375c4.363281 0 7.902344 3.539062 7.902344 7.902344v21.046874c-.003907 15.988282-12.960938 28.949219-28.949219 28.949219zm0 0" fill="#57565c"/><path d="m180.886719 161.195312c0-13.582031-13.824219-24.589843-30.875-24.589843-17.054688 0-30.878907 11.007812-30.878907 24.589843 0 13.578126 13.824219 24.589844 30.878907 24.589844 17.050781 0 30.875-11.011718 30.875-24.589844zm0 0" fill="#ffd9e8"/><path d="m374.554688 161.195312c0-13.582031-13.824219-24.589843-30.878907-24.589843-17.054687 0-30.878906 11.007812-30.878906 24.589843 0 13.578126 13.824219 24.589844 30.878906 24.589844 17.054688 0 30.878907-11.011718 30.878907-24.589844zm0 0" fill="#ffd9e8"/><g fill="#57565c"><path d="m329.933594 147.695312c-4.265625 0-7.726563-3.457031-7.726563-7.722656v-12.828125c0-4.269531 3.460938-7.726562 7.726563-7.726562 4.269531 0 7.726562 3.457031 7.726562 7.726562v12.828125c0 4.265625-3.457031 7.722656-7.726562 7.722656zm0 0"/><path d="m163.75 147.695312c-4.265625 0-7.722656-3.457031-7.722656-7.722656v-12.828125c0-4.269531 3.457031-7.726562 7.722656-7.726562 4.269531 0 7.726562 3.457031 7.726562 7.726562v12.828125c0 4.265625-3.457031 7.722656-7.726562 7.722656zm0 0"/></g></svg>