<svg height="512pt" viewBox="-10 0 512 512.00024" width="512pt" xmlns="http://www.w3.org/2000/svg"><path d="m249.535156 377.988281c0 68.910157-55.859375 124.769531-124.765625 124.769531-68.910156 0-124.769531-55.859374-124.769531-124.769531 0-68.90625 55.859375-124.765625 124.769531-124.765625 68.90625 0 124.765625 55.859375 124.765625 124.765625zm0 0" fill="#ff737d"/><path d="m159.914062 399.121094c-7.664062 64.085937-69.871093 80.96875-100.140624 85.398437 17.265624 10.554688 37.355468 17.050781 58.996093 18.09375 68.828125 3.3125 127.3125-49.800781 130.621094-118.628906 1.65625-34.359375-10.753906-66.140625-32.160156-89.769531-19.957031 15.765625-50.585938 48.585937-57.316407 104.90625zm0 0" fill="#f46262"/><path d="m491.257812 377.988281c0 74.011719-59.996093 134.011719-134.007812 134.011719-74.015625 0-134.011719-60-134.011719-134.011719s59.996094-134.011719 134.011719-134.011719c74.011719 0 134.007812 60 134.007812 134.011719zm0 0" fill="#ff929f"/><path d="m357.25 243.976562c-19.816406 0-38.625 4.300782-55.546875 12.015626 0 0-28.542969 93.257812 61.964844 93.257812 40.332031 0 73.648437 32.175781 76.898437 72.378906 1.632813 20.226563-1.003906 43.628906-11.519531 69.53125 37.394531-23.773437 62.210937-65.578125 62.210937-113.171875.003907-74.011719-59.996093-134.011719-134.007812-134.011719zm0 0" fill="#ff737d"/><path d="m128.203125 313.441406c-5.824219-8.007812-4.0625-19.214844 3.929687-25.050781.472657-.347656 27.972657-20.800781 53.785157-58.109375 34.175781-49.390625 49.515625-103.628906 45.59375-161.214844-.335938-4.960937 1.398437-9.835937 4.792969-13.46875 3.394531-3.632812 8.140624-5.695312 13.113281-5.695312 13.730469 0 40.359375 26.339844 52.167969 38.824218 23.003906 24.320313 41.308593 52.058594 54.402343 82.453126 17.617188 40.878906 25.21875 85.527343 22.589844 132.703124-.550781 9.894532-9.015625 17.449219-18.917969 16.917969-9.898437-.550781-17.472656-9.019531-16.921875-18.914062 5.679688-101.925781-43.355469-166.113281-75.40625-196.792969-3.535156 51.90625-21.449219 102.035156-52.722656 146.796875-29.335937 41.992187-59.96875 64.671875-61.332031 65.503906-11.539063 7.046875-21.5625.875-25.074219-3.953125zm0 0" fill="#998176"/><path d="m238.863281 78.613281-37.445312-22.429687c-12.308594-7.375-12.300781-25.207032.011719-32.570313l34.941406-20.894531c12.652344-7.5625 28.71875 1.550781 28.71875 16.289062v44.742188c0 6.113281-3.226563 11.777344-8.484375 14.898438-5.472657 3.246093-12.285157 3.234374-17.742188-.035157zm0 0" fill="#bc9d91"/></svg>