<svg height="512pt" viewBox="-21 0 512 512" width="512pt" xmlns="http://www.w3.org/2000/svg"><path d="m422.882812 187.296875c5.363282-85.050781-71.386718-187.296875-203.71875-187.296875-132.335937 0-209.082031 102.246094-203.71875 187.296875 3.4375 54.515625-6.34375 109.210937-13.8125 141.457031-6.441406 27.808594 6.585938 56.761719 32.105469 69.550782 25.234375 12.652343 49.132813 8.789062 49.132813 8.789062h272.582031s23.042969 3.722656 47.765625-8.117188c26.257812-12.574218 40.039062-41.875 33.472656-70.242187-7.46875-32.25-17.246094-86.933594-13.808594-141.4375zm0 0" fill="#e5cfa1"/><path d="m166.855469 94.273438c-31.113281-36.902344-8.769531-72.300782 7.28125-90.09375-104.464844 20.027343-163.414063 108.238281-158.691407 183.117187 3.4375 54.515625-6.34375 109.210937-13.8125 141.457031-6.441406 27.808594 6.585938 56.761719 32.105469 69.550782 25.234375 12.652343 49.132813 8.789062 49.132813 8.789062h182.675781c-.234375-80.570312-.5-209.480469.207031-208.773438-5.152344-67.992187-54.597656-51.507812-98.898437-104.046874zm0 0" fill="#d3bd94"/><path d="m361.925781 512h-285.523437c-16.832032 0-30.480469-13.644531-30.480469-30.476562v-14.675782c0-50.714844 41.113281-91.828125 91.828125-91.828125h162.824219c50.714843 0 91.828125 41.113281 91.828125 91.828125v14.675782c0 16.832031-13.644532 30.476562-30.476563 30.476562zm0 0" fill="#c68d6d"/><path d="m219.164062 375.019531h-81.414062c-50.714844 0-91.828125 41.113281-91.828125 91.828125v14.675782c0 16.832031 13.648437 30.476562 30.480469 30.476562h142.761718zm0 0" fill="#b2785b"/><path d="m82.601562 393.421875c-22.273437 16.753906-36.679687 43.40625-36.679687 73.425781v14.675782c0 16.832031 13.648437 30.476562 30.480469 30.476562h51.332031c-3.960937-59.898438-25.753906-97.019531-45.132813-118.578125zm0 0" fill="#9ad880"/><path d="m355.722656 393.421875c22.273438 16.753906 36.679688 43.40625 36.679688 73.425781v14.675782c0 16.832031-13.644532 30.476562-30.476563 30.476562h-51.335937c3.960937-59.898438 25.757812-97.019531 45.132812-118.578125zm0 0" fill="#9ad880"/><path d="m112.964844 357.832031s-51.996094 3.726563-82.652344 50.648438c-12.011719 18.382812-.898438 43.191406 20.828125 46.398437 33.359375 4.925782 85.046875.003906 135.457031-53.90625-.589844-.757812-73.632812-43.140625-73.632812-43.140625zm0 0" fill="#acabb1"/><path d="m325.359375 357.832031s52 3.726563 82.65625 50.648438c12.011719 18.382812.894531 43.191406-20.828125 46.398437-33.359375 4.925782-85.046875.003906-135.457031-53.90625.585937-.757812 73.628906-43.140625 73.628906-43.140625zm0 0" fill="#acabb1"/><path d="m94.910156 276.96875c0 24.328125-19.71875 44.050781-44.046875 44.050781s-44.050781-19.722656-44.050781-44.050781 19.722656-44.050781 44.050781-44.050781 44.046875 19.722656 44.046875 44.050781zm0 0" fill="#ffaea1"/><path d="m431.511719 276.96875c0 24.328125-19.71875 44.050781-44.046875 44.050781s-44.050782-19.722656-44.050782-44.050781 19.722657-44.050781 44.050782-44.050781 44.046875 19.722656 44.046875 44.050781zm0 0" fill="#ffcfc2"/><path d="m235.148438 415.78125h-31.96875c-83.773438 0-152.316407-68.542969-152.316407-152.316406v-69.976563c0-92.566406 75.734375-168.300781 168.300781-168.300781 92.566407 0 168.300782 75.734375 168.300782 168.300781v69.976563c0 83.773437-68.542969 152.316406-152.316406 152.316406zm0 0" fill="#ffe2d9"/><path d="m131.445312 300.777344c-7.851562-41.566406 4.984376-84.101563 33.089844-115.714844 41.796875-47.015625 54.628906-159.875 54.628906-159.875-92.566406 0-168.300781 75.734375-168.300781 168.300781v69.976563c0 83.207031 67.632813 151.386718 150.628907 152.308594-44.289063-36.683594-63.167969-78.589844-70.046876-114.996094zm0 0" fill="#ffcfc2"/><path d="m153.203125 310.472656c0-13.582031-13.824219-24.589844-30.878906-24.589844-17.050781 0-30.875 11.007813-30.875 24.589844 0 13.578125 13.824219 24.585938 30.875 24.585938 17.054687 0 30.878906-11.007813 30.878906-24.585938zm0 0" fill="#ffa6bb"/><path d="m346.867188 310.472656c0-13.582031-13.824219-24.589844-30.875-24.589844-17.054688 0-30.878907 11.007813-30.878907 24.589844 0 13.578125 13.824219 24.585938 30.878907 24.585938 17.050781 0 30.875-11.007813 30.875-24.585938zm0 0" fill="#ffa6bb"/><g fill="#57565c"><path d="m302.253906 296.972656c-4.269531 0-7.726562-3.457031-7.726562-7.726562v-12.824219c0-4.269531 3.457031-7.726563 7.726562-7.726563 4.269532 0 7.726563 3.457032 7.726563 7.726563v12.824219c0 4.269531-3.457031 7.726562-7.726563 7.726562zm0 0"/><path d="m136.074219 296.972656c-4.269531 0-7.726563-3.457031-7.726563-7.726562v-12.824219c0-4.269531 3.457032-7.726563 7.726563-7.726563 4.265625 0 7.726562 3.457032 7.726562 7.726563v12.824219c0 4.269531-3.460937 7.726562-7.726562 7.726562zm0 0"/><path d="m240.652344 304.242188c0-14.050782-9.621094-25.441407-21.488282-25.441407-11.867187 0-21.488281 11.390625-21.488281 25.441407 0 14.050781 9.621094 25.445312 21.488281 25.445312 11.867188 0 21.488282-11.394531 21.488282-25.445312zm0 0"/></g><path d="m219.164062 13.574219s-208.261718 4.050781-168.300781 219.34375c0 0 28.109375-49.113281 103.808594-92.488281 5.332031-3.054688 11.847656-3.230469 17.328125-.445313 7.472656 3.800781 18.605469 9.398437 28.175781 14.203125 11.949219 5.996094 26.023438 5.996094 37.972657 0 9.570312-4.804688 20.703124-10.402344 28.175781-14.203125 5.480469-2.785156 11.996093-2.609375 17.332031.445313 75.699219 43.375 103.804688 92.488281 103.804688 92.488281 39.964843-215.292969-168.296876-219.34375-168.296876-219.34375zm0 0" fill="#e5cfa1"/><path d="m166.855469 94.273438c-21.660157-25.691407-17.414063-50.644532-7.421875-69.441407-58.097656 19.066407-134.136719 70.339844-108.570313 208.085938 0 0 28.109375-49.113281 103.808594-92.484375 5.335937-3.058594 11.847656-3.234375 17.328125-.449219 7.472656 3.804687 18.605469 9.402344 28.175781 14.203125 11.953125 5.996094 26.023438 5.996094 37.972657 0 2.316406-1.164062 4.726562-2.371094 7.15625-3.589844-19.609376-17.339844-50.085938-22.683594-78.449219-56.324218zm0 0" fill="#d3bd94"/><path d="m418.351562 263.984375-48.695312 49.898437c-10.664062 10.925782-17.128906 25.265626-18.257812 40.496094l-10.90625 157.621094h59.410156c10.820312 0 20.480468-6.769531 24.171875-16.9375l42.078125-115.863281c5.265625-14.332031 5.304687-30.066407.109375-44.421875l-23.722657-65.558594c-3.667968-10.132812-16.664062-12.941406-24.1875-5.234375zm0 0" fill="#eaeaea"/><path d="m432.75 260.125c-4.863281-1.359375-10.402344-.234375-14.398438 3.859375l-48.695312 49.894531c-10.664062 10.929688-17.128906 25.269532-18.257812 40.496094l-10.90625 157.625h36.378906zm0 0" fill="#d8d7da"/></svg>